<ttFont>
    <TTGlyph name=".notdef" xMin="68" yMin="0" xMax="612" yMax="1365">
      <contour>
        <pt x="68" y="0" on="1"/>
        <pt x="68" y="1365" on="1"/>
        <pt x="612" y="1365" on="1"/>
        <pt x="612" y="0" on="1"/>
      </contour>
      <contour>
        <pt x="136" y="68" on="1"/>
        <pt x="544" y="68" on="1"/>
        <pt x="544" y="1297" on="1"/>
        <pt x="136" y="1297" on="1"/>
      </contour>
    </TTGlyph>
    <TTGlyph name="A" xMin="-18" yMin="-1" xMax="1345" yMax="1269">
      <contour>
        <pt x="472" y="548" on="1"/>
        <pt x="773" y="548" on="1"/>
        <pt x="627" y="984" on="1"/>
      </contour>
      <contour>
        <pt x="-18" y="0" on="1"/>
        <pt x="-4" y="106" on="1"/>
        <pt x="150" y="185" on="1"/>
        <pt x="564" y="1221" on="1"/>
        <pt x="812" y="1269" on="1"/>
        <pt x="1202" y="181" on="1"/>
        <pt x="1345" y="112" on="1"/>
        <pt x="1334" y="-1" on="1"/>
        <pt x="714" y="-1" on="1"/>
        <pt x="728" y="105" on="1"/>
        <pt x="897" y="184" on="1"/>
        <pt x="823" y="392" on="1"/>
        <pt x="418" y="392" on="1"/>
        <pt x="344" y="182" on="1"/>
        <pt x="531" y="114" on="1"/>
        <pt x="518" y="0" on="1"/>
      </contour>
    </TTGlyph>
    <TTGlyph name="AE" xMin="-20" yMin="0" xMax="1768" yMax="1244">
      <contour>
        <pt x="583" y="592" on="1"/>
        <pt x="880" y="592" on="1"/>
        <pt x="874" y="1033" on="1"/>
      </contour>
      <contour>
        <pt x="-20" y="0" on="1"/>
        <pt x="-6" y="119" on="1"/>
        <pt x="130" y="184" on="1"/>
        <pt x="726" y="1073" on="1"/>
        <pt x="530" y="1131" on="1"/>
        <pt x="545" y="1244" on="1"/>
        <pt x="1702" y="1244" on="1"/>
        <pt x="1670" y="876" on="1"/>
        <pt x="1542" y="896" on="1"/>
        <pt x="1480" y="1112" on="1"/>
        <pt x="1136" y="1112" on="1"/>
        <pt x="1145" y="694" on="1"/>
        <pt x="1340" y="702" on="1"/>
        <pt x="1376" y="765" on="1"/>
        <pt x="1512" y="780" on="1"/>
        <pt x="1479" y="466" on="1"/>
        <pt x="1354" y="466" on="1"/>
        <pt x="1324" y="556" on="1"/>
        <pt x="1148" y="561" on="1"/>
        <pt x="1156" y="147" on="1"/>
        <pt x="1522" y="138" on="1"/>
        <pt x="1645" y="378" on="1"/>
        <pt x="1768" y="362" on="1"/>
        <pt x="1738" y="0" on="1"/>
        <pt x="716" y="0" on="1"/>
        <pt x="727" y="106" on="1"/>
        <pt x="892" y="169" on="1"/>
        <pt x="886" y="458" on="1"/>
        <pt x="505" y="458" on="1"/>
        <pt x="330" y="184" on="1"/>
        <pt x="514" y="116" on="1"/>
        <pt x="500" y="0" on="1"/>
      </contour>
    </TTGlyph>
    <TTGlyph name="Aacute" xMin="-18" yMin="-1" xMax="1345" yMax="1734">
      <contour>
        <pt x="472" y="548" on="1"/>
        <pt x="773" y="548" on="1"/>
        <pt x="627" y="984" on="1"/>
      </contour>
      <contour>
        <pt x="-18" y="0" on="1"/>
        <pt x="-4" y="106" on="1"/>
        <pt x="150" y="185" on="1"/>
        <pt x="564" y="1221" on="1"/>
        <pt x="812" y="1269" on="1"/>
        <pt x="1202" y="181" on="1"/>
        <pt x="1345" y="112" on="1"/>
        <pt x="1334" y="-1" on="1"/>
        <pt x="714" y="-1" on="1"/>
        <pt x="728" y="105" on="1"/>
        <pt x="897" y="184" on="1"/>
        <pt x="823" y="392" on="1"/>
        <pt x="418" y="392" on="1"/>
        <pt x="344" y="182" on="1"/>
        <pt x="531" y="114" on="1"/>
        <pt x="518" y="0" on="1"/>
      </contour>
      <contour>
        <pt x="620" y="1420" on="1"/>
        <pt x="734" y="1734" on="1"/>
        <pt x="956" y="1706" on="1"/>
        <pt x="774" y="1393" on="1"/>
      </contour>
    </TTGlyph>
    <TTGlyph name="Abreve" xMin="-18" yMin="-1" xMax="1345" yMax="1632">
      <contour>
        <pt x="472" y="548" on="1"/>
        <pt x="773" y="548" on="1"/>
        <pt x="627" y="984" on="1"/>
      </contour>
      <contour>
        <pt x="-18" y="0" on="1"/>
        <pt x="-4" y="106" on="1"/>
        <pt x="150" y="185" on="1"/>
        <pt x="564" y="1221" on="1"/>
        <pt x="812" y="1269" on="1"/>
        <pt x="1202" y="181" on="1"/>
        <pt x="1345" y="112" on="1"/>
        <pt x="1334" y="-1" on="1"/>
        <pt x="714" y="-1" on="1"/>
        <pt x="728" y="105" on="1"/>
        <pt x="897" y="184" on="1"/>
        <pt x="823" y="392" on="1"/>
        <pt x="418" y="392" on="1"/>
        <pt x="344" y="182" on="1"/>
        <pt x="531" y="114" on="1"/>
        <pt x="518" y="0" on="1"/>
      </contour>
      <contour>
        <pt x="498" y="1585" on="1"/>
        <pt x="571" y="1632" on="1"/>
        <pt x="593" y="1595" on="0"/>
        <pt x="651" y="1556" on="0"/>
        <pt x="702" y="1556" on="1"/>
        <pt x="800" y="1556" on="0"/>
        <pt x="845" y="1632" on="1"/>
        <pt x="907" y="1585" on="1"/>
        <pt x="880" y="1506" on="0"/>
        <pt x="777" y="1392" on="0"/>
        <pt x="656" y="1392" on="0"/>
        <pt x="583" y="1427" on="0"/>
        <pt x="560" y="1457" on="1"/>
        <pt x="516" y="1512" on="0"/>
      </contour>
    </TTGlyph>
    <TTGlyph name="Acircumflex" xMin="-18" yMin="-1" xMax="1345" yMax="1600">
      <contour>
        <pt x="472" y="548" on="1"/>
        <pt x="773" y="548" on="1"/>
        <pt x="627" y="984" on="1"/>
      </contour>
      <contour>
        <pt x="-18" y="0" on="1"/>
        <pt x="-4" y="106" on="1"/>
        <pt x="150" y="185" on="1"/>
        <pt x="564" y="1221" on="1"/>
        <pt x="812" y="1269" on="1"/>
        <pt x="1202" y="181" on="1"/>
        <pt x="1345" y="112" on="1"/>
        <pt x="1334" y="-1" on="1"/>
        <pt x="714" y="-1" on="1"/>
        <pt x="728" y="105" on="1"/>
        <pt x="897" y="184" on="1"/>
        <pt x="823" y="392" on="1"/>
        <pt x="418" y="392" on="1"/>
        <pt x="344" y="182" on="1"/>
        <pt x="531" y="114" on="1"/>
        <pt x="518" y="0" on="1"/>
      </contour>
      <contour>
        <pt x="1017" y="1380" on="1"/>
        <pt x="848" y="1345" on="1"/>
        <pt x="744" y="1430" on="1"/>
        <pt x="734" y="1430" on="1"/>
        <pt x="647" y="1339" on="1"/>
        <pt x="486" y="1363" on="1"/>
        <pt x="650" y="1579" on="1"/>
        <pt x="837" y="1600" on="1"/>
      </contour>
    </TTGlyph>
    <TTGlyph name="Adieresis" xMin="-18" yMin="-1" xMax="1345" yMax="1581">
      <contour>
        <pt x="472" y="548" on="1"/>
        <pt x="773" y="548" on="1"/>
        <pt x="627" y="984" on="1"/>
      </contour>
      <contour>
        <pt x="-18" y="0" on="1"/>
        <pt x="-4" y="106" on="1"/>
        <pt x="150" y="185" on="1"/>
        <pt x="564" y="1221" on="1"/>
        <pt x="812" y="1269" on="1"/>
        <pt x="1202" y="181" on="1"/>
        <pt x="1345" y="112" on="1"/>
        <pt x="1334" y="-1" on="1"/>
        <pt x="714" y="-1" on="1"/>
        <pt x="728" y="105" on="1"/>
        <pt x="897" y="184" on="1"/>
        <pt x="823" y="392" on="1"/>
        <pt x="418" y="392" on="1"/>
        <pt x="344" y="182" on="1"/>
        <pt x="531" y="114" on="1"/>
        <pt x="518" y="0" on="1"/>
      </contour>
      <contour>
        <pt x="481" y="1392" on="0"/>
        <pt x="428" y="1448" on="0"/>
        <pt x="428" y="1526" on="0"/>
        <pt x="483" y="1581" on="0"/>
        <pt x="591" y="1581" on="0"/>
        <pt x="648" y="1527" on="0"/>
        <pt x="648" y="1447" on="0"/>
        <pt x="591" y="1392" on="0"/>
      </contour>
      <contour>
        <pt x="790" y="1392" on="0"/>
        <pt x="737" y="1448" on="0"/>
        <pt x="737" y="1526" on="0"/>
        <pt x="792" y="1581" on="0"/>
        <pt x="900" y="1581" on="0"/>
        <pt x="957" y="1527" on="0"/>
        <pt x="957" y="1447" on="0"/>
        <pt x="900" y="1392" on="0"/>
      </contour>
    </TTGlyph>
    <TTGlyph name="Agrave" xMin="-18" yMin="-1" xMax="1345" yMax="1766">
      <contour>
        <pt x="472" y="548" on="1"/>
        <pt x="773" y="548" on="1"/>
        <pt x="627" y="984" on="1"/>
      </contour>
      <contour>
        <pt x="-18" y="0" on="1"/>
        <pt x="-4" y="106" on="1"/>
        <pt x="150" y="185" on="1"/>
        <pt x="564" y="1221" on="1"/>
        <pt x="812" y="1269" on="1"/>
        <pt x="1202" y="181" on="1"/>
        <pt x="1345" y="112" on="1"/>
        <pt x="1334" y="-1" on="1"/>
        <pt x="714" y="-1" on="1"/>
        <pt x="728" y="105" on="1"/>
        <pt x="897" y="184" on="1"/>
        <pt x="823" y="392" on="1"/>
        <pt x="418" y="392" on="1"/>
        <pt x="344" y="182" on="1"/>
        <pt x="531" y="114" on="1"/>
        <pt x="518" y="0" on="1"/>
      </contour>
      <contour>
        <pt x="447" y="1728" on="1"/>
        <pt x="664" y="1766" on="1"/>
        <pt x="804" y="1426" on="1"/>
        <pt x="647" y="1393" on="1"/>
      </contour>
    </TTGlyph>
    <TTGlyph name="Amacron" xMin="-18" yMin="-1" xMax="1345" yMax="1540">
      <contour>
        <pt x="472" y="548" on="1"/>
        <pt x="773" y="548" on="1"/>
        <pt x="627" y="984" on="1"/>
      </contour>
      <contour>
        <pt x="-18" y="0" on="1"/>
        <pt x="-4" y="106" on="1"/>
        <pt x="150" y="185" on="1"/>
        <pt x="564" y="1221" on="1"/>
        <pt x="812" y="1269" on="1"/>
        <pt x="1202" y="181" on="1"/>
        <pt x="1345" y="112" on="1"/>
        <pt x="1334" y="-1" on="1"/>
        <pt x="714" y="-1" on="1"/>
        <pt x="728" y="105" on="1"/>
        <pt x="897" y="184" on="1"/>
        <pt x="823" y="392" on="1"/>
        <pt x="418" y="392" on="1"/>
        <pt x="344" y="182" on="1"/>
        <pt x="531" y="114" on="1"/>
        <pt x="518" y="0" on="1"/>
      </contour>
      <contour>
        <pt x="480" y="1393" on="1"/>
        <pt x="497" y="1540" on="1"/>
        <pt x="944" y="1540" on="1"/>
        <pt x="927" y="1393" on="1"/>
      </contour>
    </TTGlyph>
    <TTGlyph name="Aogonek" xMin="-18" yMin="-381" xMax="1345" yMax="1269">
      <contour>
        <pt x="472" y="548" on="1"/>
        <pt x="773" y="548" on="1"/>
        <pt x="627" y="984" on="1"/>
      </contour>
      <contour>
        <pt x="-18" y="0" on="1"/>
        <pt x="-4" y="106" on="1"/>
        <pt x="150" y="185" on="1"/>
        <pt x="564" y="1221" on="1"/>
        <pt x="812" y="1269" on="1"/>
        <pt x="1202" y="181" on="1"/>
        <pt x="1345" y="112" on="1"/>
        <pt x="1334" y="-1" on="1"/>
        <pt x="1222" y="-1" on="1"/>
        <pt x="1178" y="-101" on="0"/>
        <pt x="1208" y="-247" on="0"/>
        <pt x="1293" y="-309" on="1"/>
        <pt x="1264" y="-381" on="1"/>
        <pt x="1146" y="-372" on="0"/>
        <pt x="986" y="-272" on="0"/>
        <pt x="986" y="-198" on="1"/>
        <pt x="986" y="-146" on="0"/>
        <pt x="1043" y="-59" on="0"/>
        <pt x="1117" y="-1" on="1"/>
        <pt x="714" y="-1" on="1"/>
        <pt x="728" y="105" on="1"/>
        <pt x="897" y="184" on="1"/>
        <pt x="823" y="392" on="1"/>
        <pt x="418" y="392" on="1"/>
        <pt x="344" y="182" on="1"/>
        <pt x="531" y="114" on="1"/>
        <pt x="518" y="0" on="1"/>
      </contour>
    </TTGlyph>
    <TTGlyph name="Aring" xMin="-18" yMin="-1" xMax="1345" yMax="1659">
      <contour>
        <pt x="472" y="548" on="1"/>
        <pt x="773" y="548" on="1"/>
        <pt x="627" y="984" on="1"/>
      </contour>
      <contour>
        <pt x="-18" y="0" on="1"/>
        <pt x="-4" y="106" on="1"/>
        <pt x="150" y="185" on="1"/>
        <pt x="564" y="1221" on="1"/>
        <pt x="812" y="1269" on="1"/>
        <pt x="1202" y="181" on="1"/>
        <pt x="1345" y="112" on="1"/>
        <pt x="1334" y="-1" on="1"/>
        <pt x="714" y="-1" on="1"/>
        <pt x="728" y="105" on="1"/>
        <pt x="897" y="184" on="1"/>
        <pt x="823" y="392" on="1"/>
        <pt x="418" y="392" on="1"/>
        <pt x="344" y="182" on="1"/>
        <pt x="531" y="114" on="1"/>
        <pt x="518" y="0" on="1"/>
      </contour>
      <contour>
        <pt x="642" y="1521" on="0"/>
        <pt x="642" y="1483" on="0"/>
        <pt x="651" y="1460" on="0"/>
        <pt x="660" y="1456" on="1"/>
        <pt x="675" y="1450" on="0"/>
        <pt x="692" y="1450" on="1"/>
        <pt x="740" y="1453" on="0"/>
        <pt x="742" y="1502" on="1"/>
        <pt x="742" y="1551" on="0"/>
        <pt x="686" y="1551" on="1"/>
        <pt x="665" y="1551" on="0"/>
      </contour>
      <contour>
        <pt x="697" y="1659" on="1"/>
        <pt x="912" y="1659" on="0"/>
        <pt x="912" y="1504" on="1"/>
        <pt x="912" y="1433" on="0"/>
        <pt x="796" y="1342" on="0"/>
        <pt x="684" y="1342" on="1"/>
        <pt x="476" y="1342" on="0"/>
        <pt x="476" y="1495" on="1"/>
        <pt x="476" y="1567" on="0"/>
        <pt x="592" y="1659" on="0"/>
      </contour>
    </TTGlyph>
    <TTGlyph name="Atilde" xMin="-18" yMin="-1" xMax="1345" yMax="1604">
      <contour>
        <pt x="472" y="548" on="1"/>
        <pt x="773" y="548" on="1"/>
        <pt x="627" y="984" on="1"/>
      </contour>
      <contour>
        <pt x="-18" y="0" on="1"/>
        <pt x="-4" y="106" on="1"/>
        <pt x="150" y="185" on="1"/>
        <pt x="564" y="1221" on="1"/>
        <pt x="812" y="1269" on="1"/>
        <pt x="1202" y="181" on="1"/>
        <pt x="1345" y="112" on="1"/>
        <pt x="1334" y="-1" on="1"/>
        <pt x="714" y="-1" on="1"/>
        <pt x="728" y="105" on="1"/>
        <pt x="897" y="184" on="1"/>
        <pt x="823" y="392" on="1"/>
        <pt x="418" y="392" on="1"/>
        <pt x="344" y="182" on="1"/>
        <pt x="531" y="114" on="1"/>
        <pt x="518" y="0" on="1"/>
      </contour>
      <contour>
        <pt x="414" y="1396" on="1"/>
        <pt x="407" y="1440" on="0"/>
        <pt x="454" y="1538" on="0"/>
        <pt x="477" y="1564" on="1"/>
        <pt x="530" y="1624" on="0"/>
        <pt x="617" y="1604" on="1"/>
        <pt x="823" y="1555" on="1"/>
        <pt x="854" y="1547" on="0"/>
        <pt x="878" y="1588" on="1"/>
        <pt x="886" y="1601" on="1"/>
        <pt x="968" y="1595" on="1"/>
        <pt x="968" y="1525" on="0"/>
        <pt x="912" y="1450" on="1"/>
        <pt x="885" y="1414" on="0"/>
        <pt x="795" y="1380" on="0"/>
        <pt x="742" y="1393" on="1"/>
        <pt x="555" y="1439" on="1"/>
        <pt x="536" y="1443" on="0"/>
        <pt x="507" y="1415" on="0"/>
        <pt x="496" y="1383" on="1"/>
      </contour>
    </TTGlyph>
    <TTGlyph name="B" xMin="25" yMin="0" xMax="1164" yMax="1257">
      <contour>
        <pt x="486" y="708" on="1"/>
        <pt x="702" y="708" on="1"/>
        <pt x="798" y="771" on="0"/>
        <pt x="798" y="903" on="1"/>
        <pt x="798" y="1001" on="0"/>
        <pt x="681" y="1126" on="0"/>
        <pt x="552" y="1126" on="1"/>
        <pt x="520" y="1126" on="0"/>
        <pt x="486" y="1120" on="1"/>
      </contour>
      <contour>
        <pt x="486" y="141" on="1"/>
        <pt x="652" y="141" on="1"/>
        <pt x="754" y="141" on="0"/>
        <pt x="878" y="258" on="0"/>
        <pt x="878" y="446" on="0"/>
        <pt x="748" y="583" on="0"/>
        <pt x="637" y="583" on="1"/>
        <pt x="486" y="583" on="1"/>
      </contour>
      <contour>
        <pt x="25" y="0" on="1"/>
        <pt x="38" y="106" on="1"/>
        <pt x="204" y="169" on="1"/>
        <pt x="204" y="1056" on="1"/>
        <pt x="34" y="1093" on="1"/>
        <pt x="44" y="1211" on="1"/>
        <pt x="375" y="1257" on="0"/>
        <pt x="713" y="1257" on="0"/>
        <pt x="907" y="1207" on="0"/>
        <pt x="962" y="1164" on="1"/>
        <pt x="1071" y="1080" on="0"/>
        <pt x="1071" y="959" on="1"/>
        <pt x="1071" y="874" on="0"/>
        <pt x="961" y="715" on="0"/>
        <pt x="866" y="682" on="1"/>
        <pt x="866" y="673" on="1"/>
        <pt x="1009" y="665" on="0"/>
        <pt x="1164" y="489" on="0"/>
        <pt x="1164" y="380" on="1"/>
        <pt x="1164" y="210" on="0"/>
        <pt x="884" y="0" on="0"/>
        <pt x="606" y="0" on="1"/>
      </contour>
    </TTGlyph>
    <TTGlyph name="C" xMin="30" yMin="-26" xMax="1178" yMax="1270">
      <contour>
        <pt x="30" y="586" on="1"/>
        <pt x="30" y="785" on="0"/>
        <pt x="130" y="954" on="1"/>
        <pt x="248" y="1151" on="0"/>
        <pt x="470" y="1227" on="1"/>
        <pt x="595" y="1270" on="0"/>
        <pt x="855" y="1270" on="0"/>
        <pt x="1077" y="1217" on="0"/>
        <pt x="1138" y="1170" on="1"/>
        <pt x="1108" y="792" on="1"/>
        <pt x="978" y="810" on="1"/>
        <pt x="926" y="1036" on="1"/>
        <pt x="891" y="1080" on="0"/>
        <pt x="762" y="1132" on="0"/>
        <pt x="688" y="1132" on="1"/>
        <pt x="525" y="1132" on="0"/>
        <pt x="334" y="897" on="0"/>
        <pt x="334" y="434" on="0"/>
        <pt x="579" y="158" on="0"/>
        <pt x="963" y="158" on="0"/>
        <pt x="1130" y="281" on="1"/>
        <pt x="1178" y="176" on="1"/>
        <pt x="1111" y="97" on="0"/>
        <pt x="838" y="-26" on="0"/>
        <pt x="678" y="-26" on="1"/>
        <pt x="384" y="-26" on="0"/>
        <pt x="30" y="298" on="0"/>
      </contour>
    </TTGlyph>
    <TTGlyph name="Cacute" xMin="30" yMin="-26" xMax="1178" yMax="1734">
      <contour>
        <pt x="30" y="586" on="1"/>
        <pt x="30" y="785" on="0"/>
        <pt x="130" y="954" on="1"/>
        <pt x="248" y="1151" on="0"/>
        <pt x="470" y="1227" on="1"/>
        <pt x="595" y="1270" on="0"/>
        <pt x="855" y="1270" on="0"/>
        <pt x="1077" y="1217" on="0"/>
        <pt x="1138" y="1170" on="1"/>
        <pt x="1108" y="792" on="1"/>
        <pt x="978" y="810" on="1"/>
        <pt x="926" y="1036" on="1"/>
        <pt x="891" y="1080" on="0"/>
        <pt x="762" y="1132" on="0"/>
        <pt x="688" y="1132" on="1"/>
        <pt x="525" y="1132" on="0"/>
        <pt x="334" y="897" on="0"/>
        <pt x="334" y="434" on="0"/>
        <pt x="579" y="158" on="0"/>
        <pt x="963" y="158" on="0"/>
        <pt x="1130" y="281" on="1"/>
        <pt x="1178" y="176" on="1"/>
        <pt x="1111" y="97" on="0"/>
        <pt x="838" y="-26" on="0"/>
        <pt x="678" y="-26" on="1"/>
        <pt x="384" y="-26" on="0"/>
        <pt x="30" y="298" on="0"/>
      </contour>
      <contour>
        <pt x="656" y="1420" on="1"/>
        <pt x="770" y="1734" on="1"/>
        <pt x="992" y="1706" on="1"/>
        <pt x="810" y="1393" on="1"/>
      </contour>
    </TTGlyph>
    <TTGlyph name="Ccaron" xMin="30" yMin="-26" xMax="1178" yMax="1578">
      <contour>
        <pt x="30" y="586" on="1"/>
        <pt x="30" y="785" on="0"/>
        <pt x="130" y="954" on="1"/>
        <pt x="248" y="1151" on="0"/>
        <pt x="470" y="1227" on="1"/>
        <pt x="595" y="1270" on="0"/>
        <pt x="855" y="1270" on="0"/>
        <pt x="1077" y="1217" on="0"/>
        <pt x="1138" y="1170" on="1"/>
        <pt x="1108" y="792" on="1"/>
        <pt x="978" y="810" on="1"/>
        <pt x="926" y="1036" on="1"/>
        <pt x="891" y="1080" on="0"/>
        <pt x="762" y="1132" on="0"/>
        <pt x="688" y="1132" on="1"/>
        <pt x="525" y="1132" on="0"/>
        <pt x="334" y="897" on="0"/>
        <pt x="334" y="434" on="0"/>
        <pt x="579" y="158" on="0"/>
        <pt x="963" y="158" on="0"/>
        <pt x="1130" y="281" on="1"/>
        <pt x="1178" y="176" on="1"/>
        <pt x="1111" y="97" on="0"/>
        <pt x="838" y="-26" on="0"/>
        <pt x="678" y="-26" on="1"/>
        <pt x="384" y="-26" on="0"/>
        <pt x="30" y="298" on="0"/>
      </contour>
      <contour>
        <pt x="482" y="1543" on="1"/>
        <pt x="687" y="1578" on="1"/>
        <pt x="776" y="1493" on="1"/>
        <pt x="786" y="1493" on="1"/>
        <pt x="870" y="1574" on="1"/>
        <pt x="1013" y="1560" on="1"/>
        <pt x="823" y="1344" on="1"/>
        <pt x="676" y="1323" on="1"/>
      </contour>
    </TTGlyph>
    <TTGlyph name="Ccedilla" xMin="30" yMin="-404" xMax="1178" yMax="1270">
      <contour>
        <pt x="634" y="-258" on="1"/>
        <pt x="634" y="-221" on="0"/>
        <pt x="509" y="-157" on="1"/>
        <pt x="675" y="-26" on="1"/>
        <pt x="381" y="-25" on="0"/>
        <pt x="30" y="299" on="0"/>
        <pt x="30" y="586" on="1"/>
        <pt x="30" y="785" on="0"/>
        <pt x="130" y="954" on="1"/>
        <pt x="248" y="1151" on="0"/>
        <pt x="470" y="1227" on="1"/>
        <pt x="595" y="1270" on="0"/>
        <pt x="855" y="1270" on="0"/>
        <pt x="1077" y="1217" on="0"/>
        <pt x="1138" y="1170" on="1"/>
        <pt x="1108" y="792" on="1"/>
        <pt x="978" y="810" on="1"/>
        <pt x="926" y="1036" on="1"/>
        <pt x="891" y="1080" on="0"/>
        <pt x="762" y="1132" on="0"/>
        <pt x="688" y="1132" on="1"/>
        <pt x="525" y="1132" on="0"/>
        <pt x="334" y="897" on="0"/>
        <pt x="334" y="434" on="0"/>
        <pt x="579" y="158" on="0"/>
        <pt x="963" y="158" on="0"/>
        <pt x="1130" y="281" on="1"/>
        <pt x="1178" y="176" on="1"/>
        <pt x="1126" y="115" on="0"/>
        <pt x="926" y="6" on="0"/>
        <pt x="804" y="-15" on="1"/>
        <pt x="720" y="-96" on="1"/>
        <pt x="803" y="-143" on="0"/>
        <pt x="822" y="-184" on="1"/>
        <pt x="832" y="-206" on="0"/>
        <pt x="832" y="-232" on="1"/>
        <pt x="832" y="-307" on="0"/>
        <pt x="676" y="-386" on="0"/>
        <pt x="540" y="-404" on="1"/>
        <pt x="512" y="-320" on="1"/>
        <pt x="560" y="-313" on="0"/>
        <pt x="634" y="-279" on="0"/>
      </contour>
    </TTGlyph>
    <TTGlyph name="Cdotaccent" xMin="30" yMin="-26" xMax="1178" yMax="1665">
      <contour>
        <pt x="30" y="586" on="1"/>
        <pt x="30" y="785" on="0"/>
        <pt x="130" y="954" on="1"/>
        <pt x="248" y="1151" on="0"/>
        <pt x="470" y="1227" on="1"/>
        <pt x="595" y="1270" on="0"/>
        <pt x="855" y="1270" on="0"/>
        <pt x="1077" y="1217" on="0"/>
        <pt x="1138" y="1170" on="1"/>
        <pt x="1108" y="792" on="1"/>
        <pt x="978" y="810" on="1"/>
        <pt x="926" y="1036" on="1"/>
        <pt x="891" y="1080" on="0"/>
        <pt x="762" y="1132" on="0"/>
        <pt x="688" y="1132" on="1"/>
        <pt x="525" y="1132" on="0"/>
        <pt x="334" y="897" on="0"/>
        <pt x="334" y="434" on="0"/>
        <pt x="579" y="158" on="0"/>
        <pt x="963" y="158" on="0"/>
        <pt x="1130" y="281" on="1"/>
        <pt x="1178" y="176" on="1"/>
        <pt x="1111" y="97" on="0"/>
        <pt x="838" y="-26" on="0"/>
        <pt x="678" y="-26" on="1"/>
        <pt x="384" y="-26" on="0"/>
        <pt x="30" y="298" on="0"/>
      </contour>
      <contour>
        <pt x="661" y="1393" on="0"/>
        <pt x="581" y="1472" on="0"/>
        <pt x="581" y="1584" on="0"/>
        <pt x="667" y="1665" on="0"/>
        <pt x="829" y="1665" on="0"/>
        <pt x="915" y="1586" on="0"/>
        <pt x="915" y="1471" on="0"/>
        <pt x="829" y="1393" on="0"/>
      </contour>
    </TTGlyph>
    <TTGlyph name="D" xMin="24" yMin="0" xMax="1378" yMax="1258">
      <contour>
        <pt x="568" y="1106" on="1"/>
        <pt x="498" y="1101" on="1"/>
        <pt x="498" y="153" on="1"/>
        <pt x="608" y="153" on="1"/>
        <pt x="895" y="153" on="0"/>
        <pt x="1010" y="354" on="1"/>
        <pt x="1070" y="461" on="0"/>
        <pt x="1070" y="695" on="0"/>
        <pt x="1009" y="872" on="0"/>
        <pt x="891" y="1019" on="0"/>
        <pt x="694" y="1106" on="0"/>
      </contour>
      <contour>
        <pt x="24" y="0" on="1"/>
        <pt x="42" y="106" on="1"/>
        <pt x="218" y="185" on="1"/>
        <pt x="218" y="1053" on="1"/>
        <pt x="46" y="1091" on="1"/>
        <pt x="54" y="1208" on="1"/>
        <pt x="370" y="1258" on="0"/>
        <pt x="735" y="1258" on="0"/>
        <pt x="950" y="1223" on="0"/>
        <pt x="1107" y="1161" on="0"/>
        <pt x="1229" y="1071" on="0"/>
        <pt x="1307" y="969" on="0"/>
        <pt x="1332" y="907" on="1"/>
        <pt x="1378" y="796" on="0"/>
        <pt x="1378" y="549" on="0"/>
        <pt x="1311" y="357" on="0"/>
        <pt x="1176" y="192" on="0"/>
        <pt x="1082" y="131" on="1"/>
        <pt x="880" y="0" on="0"/>
        <pt x="580" y="0" on="1"/>
      </contour>
    </TTGlyph>
    <TTGlyph name="Dcaron" xMin="24" yMin="0" xMax="1378" yMax="1578">
      <contour>
        <pt x="568" y="1106" on="1"/>
        <pt x="498" y="1101" on="1"/>
        <pt x="498" y="153" on="1"/>
        <pt x="608" y="153" on="1"/>
        <pt x="895" y="153" on="0"/>
        <pt x="1010" y="354" on="1"/>
        <pt x="1070" y="461" on="0"/>
        <pt x="1070" y="695" on="0"/>
        <pt x="1009" y="872" on="0"/>
        <pt x="891" y="1019" on="0"/>
        <pt x="694" y="1106" on="0"/>
      </contour>
      <contour>
        <pt x="24" y="0" on="1"/>
        <pt x="42" y="106" on="1"/>
        <pt x="218" y="185" on="1"/>
        <pt x="218" y="1053" on="1"/>
        <pt x="46" y="1091" on="1"/>
        <pt x="54" y="1208" on="1"/>
        <pt x="370" y="1258" on="0"/>
        <pt x="735" y="1258" on="0"/>
        <pt x="950" y="1223" on="0"/>
        <pt x="1107" y="1161" on="0"/>
        <pt x="1229" y="1071" on="0"/>
        <pt x="1307" y="969" on="0"/>
        <pt x="1332" y="907" on="1"/>
        <pt x="1378" y="796" on="0"/>
        <pt x="1378" y="549" on="0"/>
        <pt x="1311" y="357" on="0"/>
        <pt x="1176" y="192" on="0"/>
        <pt x="1082" y="131" on="1"/>
        <pt x="880" y="0" on="0"/>
        <pt x="580" y="0" on="1"/>
      </contour>
      <contour>
        <pt x="434" y="1543" on="1"/>
        <pt x="639" y="1578" on="1"/>
        <pt x="728" y="1493" on="1"/>
        <pt x="738" y="1493" on="1"/>
        <pt x="822" y="1574" on="1"/>
        <pt x="965" y="1560" on="1"/>
        <pt x="775" y="1344" on="1"/>
        <pt x="628" y="1323" on="1"/>
      </contour>
    </TTGlyph>
    <TTGlyph name="Dcroat" xMin="28" yMin="0" xMax="1388" yMax="1259">
      <contour>
        <pt x="573" y="1107" on="1"/>
        <pt x="503" y="1101" on="1"/>
        <pt x="503" y="692" on="1"/>
        <pt x="731" y="715" on="1"/>
        <pt x="716" y="575" on="1"/>
        <pt x="503" y="558" on="1"/>
        <pt x="503" y="153" on="1"/>
        <pt x="646" y="153" on="1"/>
        <pt x="922" y="153" on="0"/>
        <pt x="1026" y="356" on="1"/>
        <pt x="1079" y="461" on="0"/>
        <pt x="1079" y="675" on="0"/>
        <pt x="1042" y="820" on="0"/>
        <pt x="961" y="951" on="0"/>
        <pt x="903" y="1000" on="1"/>
        <pt x="776" y="1107" on="0"/>
      </contour>
      <contour>
        <pt x="42" y="519" on="1"/>
        <pt x="56" y="656" on="1"/>
        <pt x="222" y="670" on="1"/>
        <pt x="222" y="1054" on="1"/>
        <pt x="50" y="1092" on="1"/>
        <pt x="58" y="1208" on="1"/>
        <pt x="380" y="1259" on="0"/>
        <pt x="790" y="1259" on="0"/>
        <pt x="1066" y="1191" on="0"/>
        <pt x="1237" y="1080" on="0"/>
        <pt x="1292" y="1000" on="1"/>
        <pt x="1388" y="858" on="0"/>
        <pt x="1388" y="655" on="1"/>
        <pt x="1388" y="446" on="0"/>
        <pt x="1252" y="280" on="1"/>
        <pt x="1107" y="103" on="0"/>
        <pt x="868" y="36" on="1"/>
        <pt x="740" y="0" on="0"/>
        <pt x="593" y="0" on="1"/>
        <pt x="28" y="0" on="1"/>
        <pt x="46" y="106" on="1"/>
        <pt x="222" y="185" on="1"/>
        <pt x="222" y="534" on="1"/>
      </contour>
    </TTGlyph>
    <TTGlyph name="E" xMin="25" yMin="0" xMax="1170" yMax="1244">
      <contour>
        <pt x="25" y="1134" on="1"/>
        <pt x="40" y="1244" on="1"/>
        <pt x="1124" y="1244" on="1"/>
        <pt x="1093" y="875" on="1"/>
        <pt x="964" y="894" on="1"/>
        <pt x="902" y="1112" on="1"/>
        <pt x="495" y="1112" on="1"/>
        <pt x="495" y="684" on="1"/>
        <pt x="730" y="684" on="1"/>
        <pt x="774" y="813" on="1"/>
        <pt x="918" y="840" on="1"/>
        <pt x="884" y="416" on="1"/>
        <pt x="745" y="393" on="1"/>
        <pt x="712" y="562" on="1"/>
        <pt x="495" y="562" on="1"/>
        <pt x="495" y="151" on="1"/>
        <pt x="924" y="151" on="1"/>
        <pt x="1046" y="377" on="1"/>
        <pt x="1170" y="362" on="1"/>
        <pt x="1140" y="0" on="1"/>
        <pt x="36" y="0" on="1"/>
        <pt x="46" y="106" on="1"/>
        <pt x="211" y="169" on="1"/>
        <pt x="211" y="1078" on="1"/>
      </contour>
    </TTGlyph>
    <TTGlyph name="Eacute" xMin="25" yMin="0" xMax="1170" yMax="1734">
      <contour>
        <pt x="25" y="1134" on="1"/>
        <pt x="40" y="1244" on="1"/>
        <pt x="1124" y="1244" on="1"/>
        <pt x="1093" y="875" on="1"/>
        <pt x="964" y="894" on="1"/>
        <pt x="902" y="1112" on="1"/>
        <pt x="495" y="1112" on="1"/>
        <pt x="495" y="684" on="1"/>
        <pt x="730" y="684" on="1"/>
        <pt x="774" y="813" on="1"/>
        <pt x="918" y="840" on="1"/>
        <pt x="884" y="416" on="1"/>
        <pt x="745" y="393" on="1"/>
        <pt x="712" y="562" on="1"/>
        <pt x="495" y="562" on="1"/>
        <pt x="495" y="151" on="1"/>
        <pt x="924" y="151" on="1"/>
        <pt x="1046" y="377" on="1"/>
        <pt x="1170" y="362" on="1"/>
        <pt x="1140" y="0" on="1"/>
        <pt x="36" y="0" on="1"/>
        <pt x="46" y="106" on="1"/>
        <pt x="211" y="169" on="1"/>
        <pt x="211" y="1078" on="1"/>
      </contour>
      <contour>
        <pt x="490" y="1420" on="1"/>
        <pt x="604" y="1734" on="1"/>
        <pt x="826" y="1706" on="1"/>
        <pt x="644" y="1393" on="1"/>
      </contour>
    </TTGlyph>
    <TTGlyph name="Ecaron" xMin="25" yMin="0" xMax="1170" yMax="1578">
      <contour>
        <pt x="25" y="1134" on="1"/>
        <pt x="40" y="1244" on="1"/>
        <pt x="1124" y="1244" on="1"/>
        <pt x="1093" y="875" on="1"/>
        <pt x="964" y="894" on="1"/>
        <pt x="902" y="1112" on="1"/>
        <pt x="495" y="1112" on="1"/>
        <pt x="495" y="684" on="1"/>
        <pt x="730" y="684" on="1"/>
        <pt x="774" y="813" on="1"/>
        <pt x="918" y="840" on="1"/>
        <pt x="884" y="416" on="1"/>
        <pt x="745" y="393" on="1"/>
        <pt x="712" y="562" on="1"/>
        <pt x="495" y="562" on="1"/>
        <pt x="495" y="151" on="1"/>
        <pt x="924" y="151" on="1"/>
        <pt x="1046" y="377" on="1"/>
        <pt x="1170" y="362" on="1"/>
        <pt x="1140" y="0" on="1"/>
        <pt x="36" y="0" on="1"/>
        <pt x="46" y="106" on="1"/>
        <pt x="211" y="169" on="1"/>
        <pt x="211" y="1078" on="1"/>
      </contour>
      <contour>
        <pt x="394" y="1543" on="1"/>
        <pt x="599" y="1578" on="1"/>
        <pt x="688" y="1493" on="1"/>
        <pt x="698" y="1493" on="1"/>
        <pt x="782" y="1574" on="1"/>
        <pt x="925" y="1560" on="1"/>
        <pt x="735" y="1344" on="1"/>
        <pt x="588" y="1323" on="1"/>
      </contour>
    </TTGlyph>
    <TTGlyph name="Ecircumflex" xMin="25" yMin="0" xMax="1170" yMax="1600">
      <contour>
        <pt x="25" y="1134" on="1"/>
        <pt x="40" y="1244" on="1"/>
        <pt x="1124" y="1244" on="1"/>
        <pt x="1093" y="875" on="1"/>
        <pt x="964" y="894" on="1"/>
        <pt x="902" y="1112" on="1"/>
        <pt x="495" y="1112" on="1"/>
        <pt x="495" y="684" on="1"/>
        <pt x="730" y="684" on="1"/>
        <pt x="774" y="813" on="1"/>
        <pt x="918" y="840" on="1"/>
        <pt x="884" y="416" on="1"/>
        <pt x="745" y="393" on="1"/>
        <pt x="712" y="562" on="1"/>
        <pt x="495" y="562" on="1"/>
        <pt x="495" y="151" on="1"/>
        <pt x="924" y="151" on="1"/>
        <pt x="1046" y="377" on="1"/>
        <pt x="1170" y="362" on="1"/>
        <pt x="1140" y="0" on="1"/>
        <pt x="36" y="0" on="1"/>
        <pt x="46" y="106" on="1"/>
        <pt x="211" y="169" on="1"/>
        <pt x="211" y="1078" on="1"/>
      </contour>
      <contour>
        <pt x="886" y="1380" on="1"/>
        <pt x="717" y="1345" on="1"/>
        <pt x="613" y="1430" on="1"/>
        <pt x="603" y="1430" on="1"/>
        <pt x="516" y="1339" on="1"/>
        <pt x="355" y="1363" on="1"/>
        <pt x="519" y="1579" on="1"/>
        <pt x="706" y="1600" on="1"/>
      </contour>
    </TTGlyph>
    <TTGlyph name="Edieresis" xMin="25" yMin="0" xMax="1170" yMax="1581">
      <contour>
        <pt x="25" y="1134" on="1"/>
        <pt x="40" y="1244" on="1"/>
        <pt x="1124" y="1244" on="1"/>
        <pt x="1093" y="875" on="1"/>
        <pt x="964" y="894" on="1"/>
        <pt x="902" y="1112" on="1"/>
        <pt x="495" y="1112" on="1"/>
        <pt x="495" y="684" on="1"/>
        <pt x="730" y="684" on="1"/>
        <pt x="774" y="813" on="1"/>
        <pt x="918" y="840" on="1"/>
        <pt x="884" y="416" on="1"/>
        <pt x="745" y="393" on="1"/>
        <pt x="712" y="562" on="1"/>
        <pt x="495" y="562" on="1"/>
        <pt x="495" y="151" on="1"/>
        <pt x="924" y="151" on="1"/>
        <pt x="1046" y="377" on="1"/>
        <pt x="1170" y="362" on="1"/>
        <pt x="1140" y="0" on="1"/>
        <pt x="36" y="0" on="1"/>
        <pt x="46" y="106" on="1"/>
        <pt x="211" y="169" on="1"/>
        <pt x="211" y="1078" on="1"/>
      </contour>
      <contour>
        <pt x="370" y="1392" on="0"/>
        <pt x="317" y="1448" on="0"/>
        <pt x="317" y="1526" on="0"/>
        <pt x="372" y="1581" on="0"/>
        <pt x="480" y="1581" on="0"/>
        <pt x="537" y="1527" on="0"/>
        <pt x="537" y="1447" on="0"/>
        <pt x="480" y="1392" on="0"/>
      </contour>
      <contour>
        <pt x="679" y="1392" on="0"/>
        <pt x="626" y="1448" on="0"/>
        <pt x="626" y="1526" on="0"/>
        <pt x="681" y="1581" on="0"/>
        <pt x="789" y="1581" on="0"/>
        <pt x="846" y="1527" on="0"/>
        <pt x="846" y="1447" on="0"/>
        <pt x="789" y="1392" on="0"/>
      </contour>
    </TTGlyph>
    <TTGlyph name="Edotaccent" xMin="25" yMin="0" xMax="1170" yMax="1665">
      <contour>
        <pt x="25" y="1134" on="1"/>
        <pt x="40" y="1244" on="1"/>
        <pt x="1124" y="1244" on="1"/>
        <pt x="1093" y="875" on="1"/>
        <pt x="964" y="894" on="1"/>
        <pt x="902" y="1112" on="1"/>
        <pt x="495" y="1112" on="1"/>
        <pt x="495" y="684" on="1"/>
        <pt x="730" y="684" on="1"/>
        <pt x="774" y="813" on="1"/>
        <pt x="918" y="840" on="1"/>
        <pt x="884" y="416" on="1"/>
        <pt x="745" y="393" on="1"/>
        <pt x="712" y="562" on="1"/>
        <pt x="495" y="562" on="1"/>
        <pt x="495" y="151" on="1"/>
        <pt x="924" y="151" on="1"/>
        <pt x="1046" y="377" on="1"/>
        <pt x="1170" y="362" on="1"/>
        <pt x="1140" y="0" on="1"/>
        <pt x="36" y="0" on="1"/>
        <pt x="46" y="106" on="1"/>
        <pt x="211" y="169" on="1"/>
        <pt x="211" y="1078" on="1"/>
      </contour>
      <contour>
        <pt x="495" y="1393" on="0"/>
        <pt x="415" y="1472" on="0"/>
        <pt x="415" y="1584" on="0"/>
        <pt x="501" y="1665" on="0"/>
        <pt x="663" y="1665" on="0"/>
        <pt x="749" y="1586" on="0"/>
        <pt x="749" y="1471" on="0"/>
        <pt x="663" y="1393" on="0"/>
      </contour>
    </TTGlyph>
    <TTGlyph name="Egrave" xMin="25" yMin="0" xMax="1170" yMax="1766">
      <contour>
        <pt x="25" y="1134" on="1"/>
        <pt x="40" y="1244" on="1"/>
        <pt x="1124" y="1244" on="1"/>
        <pt x="1093" y="875" on="1"/>
        <pt x="964" y="894" on="1"/>
        <pt x="902" y="1112" on="1"/>
        <pt x="495" y="1112" on="1"/>
        <pt x="495" y="684" on="1"/>
        <pt x="730" y="684" on="1"/>
        <pt x="774" y="813" on="1"/>
        <pt x="918" y="840" on="1"/>
        <pt x="884" y="416" on="1"/>
        <pt x="745" y="393" on="1"/>
        <pt x="712" y="562" on="1"/>
        <pt x="495" y="562" on="1"/>
        <pt x="495" y="151" on="1"/>
        <pt x="924" y="151" on="1"/>
        <pt x="1046" y="377" on="1"/>
        <pt x="1170" y="362" on="1"/>
        <pt x="1140" y="0" on="1"/>
        <pt x="36" y="0" on="1"/>
        <pt x="46" y="106" on="1"/>
        <pt x="211" y="169" on="1"/>
        <pt x="211" y="1078" on="1"/>
      </contour>
      <contour>
        <pt x="342" y="1728" on="1"/>
        <pt x="559" y="1766" on="1"/>
        <pt x="699" y="1426" on="1"/>
        <pt x="542" y="1393" on="1"/>
      </contour>
    </TTGlyph>
    <TTGlyph name="Emacron" xMin="25" yMin="0" xMax="1170" yMax="1540">
      <contour>
        <pt x="25" y="1134" on="1"/>
        <pt x="40" y="1244" on="1"/>
        <pt x="1124" y="1244" on="1"/>
        <pt x="1093" y="875" on="1"/>
        <pt x="964" y="894" on="1"/>
        <pt x="902" y="1112" on="1"/>
        <pt x="495" y="1112" on="1"/>
        <pt x="495" y="684" on="1"/>
        <pt x="730" y="684" on="1"/>
        <pt x="774" y="813" on="1"/>
        <pt x="918" y="840" on="1"/>
        <pt x="884" y="416" on="1"/>
        <pt x="745" y="393" on="1"/>
        <pt x="712" y="562" on="1"/>
        <pt x="495" y="562" on="1"/>
        <pt x="495" y="151" on="1"/>
        <pt x="924" y="151" on="1"/>
        <pt x="1046" y="377" on="1"/>
        <pt x="1170" y="362" on="1"/>
        <pt x="1140" y="0" on="1"/>
        <pt x="36" y="0" on="1"/>
        <pt x="46" y="106" on="1"/>
        <pt x="211" y="169" on="1"/>
        <pt x="211" y="1078" on="1"/>
      </contour>
      <contour>
        <pt x="400" y="1393" on="1"/>
        <pt x="417" y="1540" on="1"/>
        <pt x="864" y="1540" on="1"/>
        <pt x="847" y="1393" on="1"/>
      </contour>
    </TTGlyph>
    <TTGlyph name="Eng" xMin="27" yMin="-354" xMax="1380" yMax="1244">
      <contour>
        <pt x="27" y="1128" on="1"/>
        <pt x="40" y="1244" on="1"/>
        <pt x="435" y="1244" on="1"/>
        <pt x="1022" y="402" on="1"/>
        <pt x="1022" y="1073" on="1"/>
        <pt x="836" y="1131" on="1"/>
        <pt x="854" y="1244" on="1"/>
        <pt x="1380" y="1244" on="1"/>
        <pt x="1360" y="1131" on="1"/>
        <pt x="1193" y="1078" on="1"/>
        <pt x="1193" y="292" on="1"/>
        <pt x="1193" y="46" on="0"/>
        <pt x="1106" y="-90" on="1"/>
        <pt x="1060" y="-162" on="0"/>
        <pt x="938" y="-269" on="0"/>
        <pt x="846" y="-325" on="1"/>
        <pt x="796" y="-354" on="1"/>
        <pt x="712" y="-223" on="1"/>
        <pt x="861" y="-110" on="0"/>
        <pt x="904" y="64" on="1"/>
        <pt x="387" y="790" on="1"/>
        <pt x="387" y="162" on="1"/>
        <pt x="568" y="114" on="1"/>
        <pt x="556" y="0" on="1"/>
        <pt x="28" y="0" on="1"/>
        <pt x="38" y="106" on="1"/>
        <pt x="206" y="169" on="1"/>
        <pt x="206" y="1060" on="1"/>
      </contour>
    </TTGlyph>
    <TTGlyph name="Eogonek" xMin="25" yMin="-368" xMax="1199" yMax="1244">
      <contour>
        <pt x="25" y="1134" on="1"/>
        <pt x="40" y="1244" on="1"/>
        <pt x="1124" y="1244" on="1"/>
        <pt x="1093" y="875" on="1"/>
        <pt x="964" y="894" on="1"/>
        <pt x="902" y="1112" on="1"/>
        <pt x="495" y="1112" on="1"/>
        <pt x="495" y="684" on="1"/>
        <pt x="730" y="684" on="1"/>
        <pt x="774" y="813" on="1"/>
        <pt x="918" y="840" on="1"/>
        <pt x="884" y="416" on="1"/>
        <pt x="745" y="393" on="1"/>
        <pt x="712" y="562" on="1"/>
        <pt x="495" y="562" on="1"/>
        <pt x="495" y="151" on="1"/>
        <pt x="924" y="151" on="1"/>
        <pt x="1046" y="377" on="1"/>
        <pt x="1170" y="362" on="1"/>
        <pt x="1140" y="0" on="1"/>
        <pt x="1124" y="0" on="1"/>
        <pt x="1084" y="-94" on="0"/>
        <pt x="1116" y="-236" on="0"/>
        <pt x="1199" y="-296" on="1"/>
        <pt x="1170" y="-368" on="1"/>
        <pt x="1052" y="-359" on="0"/>
        <pt x="892" y="-259" on="0"/>
        <pt x="892" y="-185" on="1"/>
        <pt x="892" y="-135" on="0"/>
        <pt x="942" y="-53" on="0"/>
        <pt x="1008" y="0" on="1"/>
        <pt x="36" y="0" on="1"/>
        <pt x="46" y="106" on="1"/>
        <pt x="211" y="169" on="1"/>
        <pt x="211" y="1078" on="1"/>
      </contour>
    </TTGlyph>
    <TTGlyph name="Eth" xMin="24" yMin="0" xMax="1384" yMax="1259">
      <contour>
        <pt x="568" y="1107" on="1"/>
        <pt x="498" y="1101" on="1"/>
        <pt x="498" y="692" on="1"/>
        <pt x="726" y="715" on="1"/>
        <pt x="711" y="575" on="1"/>
        <pt x="498" y="558" on="1"/>
        <pt x="498" y="153" on="1"/>
        <pt x="642" y="153" on="1"/>
        <pt x="917" y="153" on="0"/>
        <pt x="1020" y="356" on="1"/>
        <pt x="1074" y="461" on="0"/>
        <pt x="1074" y="675" on="0"/>
        <pt x="1037" y="820" on="0"/>
        <pt x="956" y="951" on="0"/>
        <pt x="898" y="1000" on="1"/>
        <pt x="771" y="1107" on="0"/>
      </contour>
      <contour>
        <pt x="38" y="519" on="1"/>
        <pt x="51" y="656" on="1"/>
        <pt x="218" y="670" on="1"/>
        <pt x="218" y="1054" on="1"/>
        <pt x="46" y="1092" on="1"/>
        <pt x="54" y="1208" on="1"/>
        <pt x="376" y="1259" on="0"/>
        <pt x="785" y="1259" on="0"/>
        <pt x="1061" y="1191" on="0"/>
        <pt x="1232" y="1080" on="0"/>
        <pt x="1287" y="1000" on="1"/>
        <pt x="1384" y="859" on="0"/>
        <pt x="1384" y="655" on="1"/>
        <pt x="1384" y="446" on="0"/>
        <pt x="1248" y="280" on="1"/>
        <pt x="1103" y="103" on="0"/>
        <pt x="864" y="36" on="1"/>
        <pt x="736" y="0" on="0"/>
        <pt x="589" y="0" on="1"/>
        <pt x="24" y="0" on="1"/>
        <pt x="42" y="106" on="1"/>
        <pt x="218" y="185" on="1"/>
        <pt x="218" y="534" on="1"/>
      </contour>
    </TTGlyph>
    <TTGlyph name="Euro" xMin="-7" yMin="-24" xMax="1164" yMax="1268">
      <contour>
        <pt x="6" y="653" on="1"/>
        <pt x="19" y="770" on="1"/>
        <pt x="156" y="770" on="1"/>
        <pt x="209" y="974" on="0"/>
        <pt x="368" y="1116" on="1"/>
        <pt x="537" y="1268" on="0"/>
        <pt x="1016" y="1268" on="0"/>
        <pt x="1146" y="1168" on="1"/>
        <pt x="1116" y="826" on="1"/>
        <pt x="985" y="844" on="1"/>
        <pt x="931" y="1048" on="1"/>
        <pt x="840" y="1135" on="0"/>
        <pt x="580" y="1135" on="0"/>
        <pt x="435" y="945" on="0"/>
        <pt x="425" y="770" on="1"/>
        <pt x="920" y="770" on="1"/>
        <pt x="896" y="653" on="1"/>
        <pt x="426" y="653" on="1"/>
        <pt x="429" y="616" on="0"/>
        <pt x="435" y="578" on="1"/>
        <pt x="873" y="578" on="1"/>
        <pt x="849" y="462" on="1"/>
        <pt x="461" y="462" on="1"/>
        <pt x="504" y="313" on="0"/>
        <pt x="677" y="124" on="0"/>
        <pt x="903" y="124" on="0"/>
        <pt x="943" y="181" on="1"/>
        <pt x="1002" y="404" on="1"/>
        <pt x="1134" y="425" on="1"/>
        <pt x="1164" y="119" on="1"/>
        <pt x="1067" y="37" on="0"/>
        <pt x="881" y="-24" on="0"/>
        <pt x="752" y="-24" on="1"/>
        <pt x="499" y="-24" on="0"/>
        <pt x="185" y="242" on="0"/>
        <pt x="146" y="462" on="1"/>
        <pt x="-7" y="462" on="1"/>
        <pt x="6" y="578" on="1"/>
        <pt x="134" y="578" on="1"/>
        <pt x="134" y="603" on="1"/>
        <pt x="134" y="619" on="0"/>
        <pt x="136" y="653" on="1"/>
      </contour>
    </TTGlyph>
    <TTGlyph name="Euro.osf" xMin="6" yMin="-33" xMax="964" yMax="1018">
      <contour>
        <pt x="8" y="348" on="1"/>
        <pt x="20" y="464" on="1"/>
        <pt x="125" y="464" on="1"/>
        <pt x="125" y="507" on="1"/>
        <pt x="6" y="507" on="1"/>
        <pt x="22" y="624" on="1"/>
        <pt x="139" y="624" on="1"/>
        <pt x="178" y="797" on="0"/>
        <pt x="443" y="1018" on="0"/>
        <pt x="630" y="1018" on="1"/>
        <pt x="742" y="1018" on="0"/>
        <pt x="915" y="956" on="0"/>
        <pt x="956" y="907" on="1"/>
        <pt x="930" y="616" on="1"/>
        <pt x="814" y="635" on="1"/>
        <pt x="764" y="834" on="1"/>
        <pt x="737" y="860" on="0"/>
        <pt x="720" y="874" on="1"/>
        <pt x="673" y="909" on="0"/>
        <pt x="588" y="909" on="1"/>
        <pt x="416" y="909" on="0"/>
        <pt x="395" y="624" on="1"/>
        <pt x="717" y="624" on="1"/>
        <pt x="693" y="507" on="1"/>
        <pt x="392" y="507" on="1"/>
        <pt x="392" y="478" on="0"/>
        <pt x="393" y="464" on="1"/>
        <pt x="686" y="464" on="1"/>
        <pt x="662" y="348" on="1"/>
        <pt x="407" y="348" on="1"/>
        <pt x="432" y="219" on="0"/>
        <pt x="556" y="97" on="0"/>
        <pt x="643" y="97" on="1"/>
        <pt x="680" y="97" on="0"/>
        <pt x="750" y="130" on="0"/>
        <pt x="770" y="152" on="1"/>
        <pt x="824" y="390" on="1"/>
        <pt x="939" y="380" on="1"/>
        <pt x="964" y="98" on="1"/>
        <pt x="799" y="-33" on="0"/>
        <pt x="570" y="-33" on="1"/>
        <pt x="395" y="-33" on="0"/>
        <pt x="169" y="162" on="0"/>
        <pt x="137" y="348" on="1"/>
      </contour>
    </TTGlyph>
    <TTGlyph name="F" xMin="25" yMin="0" xMax="1120" yMax="1244">
      <contour>
        <pt x="25" y="1134" on="1"/>
        <pt x="40" y="1244" on="1"/>
        <pt x="1120" y="1244" on="1"/>
        <pt x="1070" y="878" on="1"/>
        <pt x="943" y="898" on="1"/>
        <pt x="896" y="1112" on="1"/>
        <pt x="496" y="1112" on="1"/>
        <pt x="496" y="638" on="1"/>
        <pt x="729" y="638" on="1"/>
        <pt x="775" y="770" on="1"/>
        <pt x="922" y="800" on="1"/>
        <pt x="882" y="354" on="1"/>
        <pt x="747" y="326" on="1"/>
        <pt x="715" y="506" on="1"/>
        <pt x="496" y="506" on="1"/>
        <pt x="496" y="174" on="1"/>
        <pt x="726" y="113" on="1"/>
        <pt x="711" y="0" on="1"/>
        <pt x="36" y="0" on="1"/>
        <pt x="48" y="106" on="1"/>
        <pt x="212" y="169" on="1"/>
        <pt x="212" y="1078" on="1"/>
      </contour>
    </TTGlyph>
    <TTGlyph name="G" xMin="30" yMin="-28" xMax="1323" yMax="1266">
      <contour>
        <pt x="30" y="579" on="1"/>
        <pt x="30" y="950" on="0"/>
        <pt x="337" y="1150" on="1"/>
        <pt x="516" y="1266" on="0"/>
        <pt x="739" y="1266" on="1"/>
        <pt x="889" y="1266" on="0"/>
        <pt x="1094" y="1217" on="0"/>
        <pt x="1190" y="1174" on="1"/>
        <pt x="1158" y="794" on="1"/>
        <pt x="1020" y="808" on="1"/>
        <pt x="982" y="1013" on="1"/>
        <pt x="871" y="1124" on="0"/>
        <pt x="690" y="1124" on="1"/>
        <pt x="539" y="1124" on="0"/>
        <pt x="444" y="1020" on="1"/>
        <pt x="342" y="909" on="0"/>
        <pt x="342" y="672" on="1"/>
        <pt x="342" y="520" on="0"/>
        <pt x="437" y="275" on="0"/>
        <pt x="624" y="128" on="0"/>
        <pt x="856" y="128" on="0"/>
        <pt x="926" y="177" on="1"/>
        <pt x="926" y="394" on="1"/>
        <pt x="698" y="446" on="1"/>
        <pt x="715" y="573" on="1"/>
        <pt x="1323" y="573" on="1"/>
        <pt x="1306" y="458" on="1"/>
        <pt x="1192" y="401" on="1"/>
        <pt x="1192" y="86" on="1"/>
        <pt x="1111" y="36" on="0"/>
        <pt x="833" y="-28" on="0"/>
        <pt x="699" y="-28" on="1"/>
        <pt x="371" y="-28" on="0"/>
        <pt x="30" y="296" on="0"/>
      </contour>
    </TTGlyph>
    <TTGlyph name="Gbreve" xMin="30" yMin="-28" xMax="1323" yMax="1632">
      <contour>
        <pt x="30" y="579" on="1"/>
        <pt x="30" y="950" on="0"/>
        <pt x="337" y="1150" on="1"/>
        <pt x="516" y="1266" on="0"/>
        <pt x="739" y="1266" on="1"/>
        <pt x="889" y="1266" on="0"/>
        <pt x="1094" y="1217" on="0"/>
        <pt x="1190" y="1174" on="1"/>
        <pt x="1158" y="794" on="1"/>
        <pt x="1020" y="808" on="1"/>
        <pt x="982" y="1013" on="1"/>
        <pt x="871" y="1124" on="0"/>
        <pt x="690" y="1124" on="1"/>
        <pt x="539" y="1124" on="0"/>
        <pt x="444" y="1020" on="1"/>
        <pt x="342" y="909" on="0"/>
        <pt x="342" y="672" on="1"/>
        <pt x="342" y="520" on="0"/>
        <pt x="437" y="275" on="0"/>
        <pt x="624" y="128" on="0"/>
        <pt x="856" y="128" on="0"/>
        <pt x="926" y="177" on="1"/>
        <pt x="926" y="394" on="1"/>
        <pt x="698" y="446" on="1"/>
        <pt x="715" y="573" on="1"/>
        <pt x="1323" y="573" on="1"/>
        <pt x="1306" y="458" on="1"/>
        <pt x="1192" y="401" on="1"/>
        <pt x="1192" y="86" on="1"/>
        <pt x="1111" y="36" on="0"/>
        <pt x="833" y="-28" on="0"/>
        <pt x="699" y="-28" on="1"/>
        <pt x="371" y="-28" on="0"/>
        <pt x="30" y="296" on="0"/>
      </contour>
      <contour>
        <pt x="535" y="1585" on="1"/>
        <pt x="608" y="1632" on="1"/>
        <pt x="630" y="1595" on="0"/>
        <pt x="688" y="1556" on="0"/>
        <pt x="739" y="1556" on="1"/>
        <pt x="837" y="1556" on="0"/>
        <pt x="882" y="1632" on="1"/>
        <pt x="944" y="1585" on="1"/>
        <pt x="917" y="1506" on="0"/>
        <pt x="814" y="1392" on="0"/>
        <pt x="693" y="1392" on="0"/>
        <pt x="620" y="1427" on="0"/>
        <pt x="596" y="1457" on="1"/>
        <pt x="553" y="1512" on="0"/>
      </contour>
    </TTGlyph>
    <TTGlyph name="Gcommaaccent" xMin="30" yMin="-478" xMax="1323" yMax="1266">
      <contour>
        <pt x="30" y="579" on="1"/>
        <pt x="30" y="950" on="0"/>
        <pt x="337" y="1150" on="1"/>
        <pt x="516" y="1266" on="0"/>
        <pt x="739" y="1266" on="1"/>
        <pt x="889" y="1266" on="0"/>
        <pt x="1094" y="1217" on="0"/>
        <pt x="1190" y="1174" on="1"/>
        <pt x="1158" y="794" on="1"/>
        <pt x="1020" y="808" on="1"/>
        <pt x="982" y="1013" on="1"/>
        <pt x="871" y="1124" on="0"/>
        <pt x="690" y="1124" on="1"/>
        <pt x="539" y="1124" on="0"/>
        <pt x="444" y="1020" on="1"/>
        <pt x="342" y="909" on="0"/>
        <pt x="342" y="672" on="1"/>
        <pt x="342" y="520" on="0"/>
        <pt x="437" y="275" on="0"/>
        <pt x="624" y="128" on="0"/>
        <pt x="856" y="128" on="0"/>
        <pt x="926" y="177" on="1"/>
        <pt x="926" y="394" on="1"/>
        <pt x="698" y="446" on="1"/>
        <pt x="715" y="573" on="1"/>
        <pt x="1323" y="573" on="1"/>
        <pt x="1306" y="458" on="1"/>
        <pt x="1192" y="401" on="1"/>
        <pt x="1192" y="86" on="1"/>
        <pt x="1111" y="36" on="0"/>
        <pt x="833" y="-28" on="0"/>
        <pt x="699" y="-28" on="1"/>
        <pt x="371" y="-28" on="0"/>
        <pt x="30" y="296" on="0"/>
      </contour>
      <contour>
        <pt x="589" y="-278" on="1"/>
        <pt x="591" y="-137" on="0"/>
        <pt x="733" y="-137" on="1"/>
        <pt x="810" y="-137" on="0"/>
        <pt x="899" y="-213" on="0"/>
        <pt x="901" y="-282" on="1"/>
        <pt x="904" y="-387" on="0"/>
        <pt x="735" y="-487" on="0"/>
        <pt x="608" y="-478" on="1"/>
        <pt x="589" y="-399" on="1"/>
        <pt x="638" y="-404" on="0"/>
        <pt x="702" y="-369" on="0"/>
        <pt x="702" y="-312" on="0"/>
        <pt x="634" y="-278" on="0"/>
      </contour>
    </TTGlyph>
    <TTGlyph name="Gdotaccent" xMin="30" yMin="-28" xMax="1323" yMax="1665">
      <contour>
        <pt x="30" y="579" on="1"/>
        <pt x="30" y="950" on="0"/>
        <pt x="337" y="1150" on="1"/>
        <pt x="516" y="1266" on="0"/>
        <pt x="739" y="1266" on="1"/>
        <pt x="889" y="1266" on="0"/>
        <pt x="1094" y="1217" on="0"/>
        <pt x="1190" y="1174" on="1"/>
        <pt x="1158" y="794" on="1"/>
        <pt x="1020" y="808" on="1"/>
        <pt x="982" y="1013" on="1"/>
        <pt x="871" y="1124" on="0"/>
        <pt x="690" y="1124" on="1"/>
        <pt x="539" y="1124" on="0"/>
        <pt x="444" y="1020" on="1"/>
        <pt x="342" y="909" on="0"/>
        <pt x="342" y="672" on="1"/>
        <pt x="342" y="520" on="0"/>
        <pt x="437" y="275" on="0"/>
        <pt x="624" y="128" on="0"/>
        <pt x="856" y="128" on="0"/>
        <pt x="926" y="177" on="1"/>
        <pt x="926" y="394" on="1"/>
        <pt x="698" y="446" on="1"/>
        <pt x="715" y="573" on="1"/>
        <pt x="1323" y="573" on="1"/>
        <pt x="1306" y="458" on="1"/>
        <pt x="1192" y="401" on="1"/>
        <pt x="1192" y="86" on="1"/>
        <pt x="1111" y="36" on="0"/>
        <pt x="833" y="-28" on="0"/>
        <pt x="699" y="-28" on="1"/>
        <pt x="371" y="-28" on="0"/>
        <pt x="30" y="296" on="0"/>
      </contour>
      <contour>
        <pt x="652" y="1393" on="0"/>
        <pt x="572" y="1472" on="0"/>
        <pt x="572" y="1584" on="0"/>
        <pt x="658" y="1665" on="0"/>
        <pt x="820" y="1665" on="0"/>
        <pt x="906" y="1586" on="0"/>
        <pt x="906" y="1471" on="0"/>
        <pt x="820" y="1393" on="0"/>
      </contour>
    </TTGlyph>
    <TTGlyph name="H" xMin="25" yMin="0" xMax="1499" yMax="1244">
      <contour>
        <pt x="25" y="1131" on="1"/>
        <pt x="43" y="1244" on="1"/>
        <pt x="675" y="1244" on="1"/>
        <pt x="660" y="1131" on="1"/>
        <pt x="493" y="1078" on="1"/>
        <pt x="493" y="718" on="1"/>
        <pt x="1030" y="718" on="1"/>
        <pt x="1030" y="1073" on="1"/>
        <pt x="848" y="1131" on="1"/>
        <pt x="862" y="1244" on="1"/>
        <pt x="1499" y="1244" on="1"/>
        <pt x="1484" y="1131" on="1"/>
        <pt x="1316" y="1078" on="1"/>
        <pt x="1316" y="162" on="1"/>
        <pt x="1496" y="114" on="1"/>
        <pt x="1484" y="0" on="1"/>
        <pt x="852" y="0" on="1"/>
        <pt x="864" y="106" on="1"/>
        <pt x="1030" y="169" on="1"/>
        <pt x="1030" y="541" on="1"/>
        <pt x="493" y="541" on="1"/>
        <pt x="493" y="162" on="1"/>
        <pt x="676" y="114" on="1"/>
        <pt x="660" y="0" on="1"/>
        <pt x="31" y="0" on="1"/>
        <pt x="41" y="106" on="1"/>
        <pt x="209" y="169" on="1"/>
        <pt x="209" y="1073" on="1"/>
      </contour>
    </TTGlyph>
    <TTGlyph name="Hbar" xMin="39" yMin="0" xMax="1513" yMax="1244">
      <contour>
        <pt x="1044" y="848" on="1"/>
        <pt x="507" y="848" on="1"/>
        <pt x="507" y="718" on="1"/>
        <pt x="1044" y="718" on="1"/>
      </contour>
      <contour>
        <pt x="69" y="808" on="1"/>
        <pt x="80" y="968" on="1"/>
        <pt x="223" y="968" on="1"/>
        <pt x="223" y="1073" on="1"/>
        <pt x="39" y="1131" on="1"/>
        <pt x="57" y="1244" on="1"/>
        <pt x="689" y="1244" on="1"/>
        <pt x="674" y="1131" on="1"/>
        <pt x="507" y="1078" on="1"/>
        <pt x="507" y="941" on="1"/>
        <pt x="1044" y="941" on="1"/>
        <pt x="1044" y="1073" on="1"/>
        <pt x="862" y="1131" on="1"/>
        <pt x="876" y="1244" on="1"/>
        <pt x="1513" y="1244" on="1"/>
        <pt x="1498" y="1131" on="1"/>
        <pt x="1330" y="1078" on="1"/>
        <pt x="1330" y="968" on="1"/>
        <pt x="1458" y="968" on="1"/>
        <pt x="1450" y="808" on="1"/>
        <pt x="1330" y="808" on="1"/>
        <pt x="1330" y="162" on="1"/>
        <pt x="1510" y="114" on="1"/>
        <pt x="1498" y="0" on="1"/>
        <pt x="866" y="0" on="1"/>
        <pt x="878" y="106" on="1"/>
        <pt x="1044" y="169" on="1"/>
        <pt x="1044" y="541" on="1"/>
        <pt x="507" y="541" on="1"/>
        <pt x="507" y="162" on="1"/>
        <pt x="690" y="114" on="1"/>
        <pt x="674" y="0" on="1"/>
        <pt x="45" y="0" on="1"/>
        <pt x="55" y="106" on="1"/>
        <pt x="223" y="169" on="1"/>
        <pt x="223" y="808" on="1"/>
      </contour>
    </TTGlyph>
    <TTGlyph name="I" xMin="25" yMin="0" xMax="676" yMax="1244">
      <contour>
        <pt x="25" y="1131" on="1"/>
        <pt x="40" y="1244" on="1"/>
        <pt x="676" y="1244" on="1"/>
        <pt x="663" y="1126" on="1"/>
        <pt x="489" y="1074" on="1"/>
        <pt x="489" y="168" on="1"/>
        <pt x="670" y="120" on="1"/>
        <pt x="658" y="0" on="1"/>
        <pt x="30" y="0" on="1"/>
        <pt x="38" y="108" on="1"/>
        <pt x="210" y="171" on="1"/>
        <pt x="210" y="1073" on="1"/>
      </contour>
    </TTGlyph>
    <TTGlyph name="Iacute" xMin="25" yMin="0" xMax="676" yMax="1734">
      <contour>
        <pt x="25" y="1131" on="1"/>
        <pt x="40" y="1244" on="1"/>
        <pt x="676" y="1244" on="1"/>
        <pt x="663" y="1126" on="1"/>
        <pt x="489" y="1074" on="1"/>
        <pt x="489" y="168" on="1"/>
        <pt x="670" y="120" on="1"/>
        <pt x="658" y="0" on="1"/>
        <pt x="30" y="0" on="1"/>
        <pt x="38" y="108" on="1"/>
        <pt x="210" y="171" on="1"/>
        <pt x="210" y="1073" on="1"/>
      </contour>
      <contour>
        <pt x="266" y="1420" on="1"/>
        <pt x="380" y="1734" on="1"/>
        <pt x="602" y="1706" on="1"/>
        <pt x="420" y="1393" on="1"/>
      </contour>
    </TTGlyph>
    <TTGlyph name="Icircumflex" xMin="25" yMin="0" xMax="676" yMax="1600">
      <contour>
        <pt x="25" y="1131" on="1"/>
        <pt x="40" y="1244" on="1"/>
        <pt x="676" y="1244" on="1"/>
        <pt x="663" y="1126" on="1"/>
        <pt x="489" y="1074" on="1"/>
        <pt x="489" y="168" on="1"/>
        <pt x="670" y="120" on="1"/>
        <pt x="658" y="0" on="1"/>
        <pt x="30" y="0" on="1"/>
        <pt x="38" y="108" on="1"/>
        <pt x="210" y="171" on="1"/>
        <pt x="210" y="1073" on="1"/>
      </contour>
      <contour>
        <pt x="663" y="1380" on="1"/>
        <pt x="494" y="1345" on="1"/>
        <pt x="390" y="1430" on="1"/>
        <pt x="380" y="1430" on="1"/>
        <pt x="293" y="1339" on="1"/>
        <pt x="132" y="1363" on="1"/>
        <pt x="296" y="1579" on="1"/>
        <pt x="483" y="1600" on="1"/>
      </contour>
    </TTGlyph>
    <TTGlyph name="Idieresis" xMin="25" yMin="0" xMax="676" yMax="1581">
      <contour>
        <pt x="25" y="1131" on="1"/>
        <pt x="40" y="1244" on="1"/>
        <pt x="676" y="1244" on="1"/>
        <pt x="663" y="1126" on="1"/>
        <pt x="489" y="1074" on="1"/>
        <pt x="489" y="168" on="1"/>
        <pt x="670" y="120" on="1"/>
        <pt x="658" y="0" on="1"/>
        <pt x="30" y="0" on="1"/>
        <pt x="38" y="108" on="1"/>
        <pt x="210" y="171" on="1"/>
        <pt x="210" y="1073" on="1"/>
      </contour>
      <contour>
        <pt x="147" y="1392" on="0"/>
        <pt x="94" y="1448" on="0"/>
        <pt x="94" y="1526" on="0"/>
        <pt x="149" y="1581" on="0"/>
        <pt x="257" y="1581" on="0"/>
        <pt x="314" y="1527" on="0"/>
        <pt x="314" y="1447" on="0"/>
        <pt x="257" y="1392" on="0"/>
      </contour>
      <contour>
        <pt x="456" y="1392" on="0"/>
        <pt x="403" y="1448" on="0"/>
        <pt x="403" y="1526" on="0"/>
        <pt x="458" y="1581" on="0"/>
        <pt x="566" y="1581" on="0"/>
        <pt x="623" y="1527" on="0"/>
        <pt x="623" y="1447" on="0"/>
        <pt x="566" y="1392" on="0"/>
      </contour>
    </TTGlyph>
    <TTGlyph name="Idotaccent" xMin="25" yMin="0" xMax="676" yMax="1665">
      <contour>
        <pt x="25" y="1131" on="1"/>
        <pt x="40" y="1244" on="1"/>
        <pt x="676" y="1244" on="1"/>
        <pt x="663" y="1126" on="1"/>
        <pt x="489" y="1074" on="1"/>
        <pt x="489" y="168" on="1"/>
        <pt x="670" y="120" on="1"/>
        <pt x="658" y="0" on="1"/>
        <pt x="30" y="0" on="1"/>
        <pt x="38" y="108" on="1"/>
        <pt x="210" y="171" on="1"/>
        <pt x="210" y="1073" on="1"/>
      </contour>
      <contour>
        <pt x="271" y="1393" on="0"/>
        <pt x="191" y="1472" on="0"/>
        <pt x="191" y="1584" on="0"/>
        <pt x="277" y="1665" on="0"/>
        <pt x="439" y="1665" on="0"/>
        <pt x="525" y="1586" on="0"/>
        <pt x="525" y="1471" on="0"/>
        <pt x="439" y="1393" on="0"/>
      </contour>
    </TTGlyph>
    <TTGlyph name="Igrave" xMin="25" yMin="0" xMax="676" yMax="1766">
      <contour>
        <pt x="25" y="1131" on="1"/>
        <pt x="40" y="1244" on="1"/>
        <pt x="676" y="1244" on="1"/>
        <pt x="663" y="1126" on="1"/>
        <pt x="489" y="1074" on="1"/>
        <pt x="489" y="168" on="1"/>
        <pt x="670" y="120" on="1"/>
        <pt x="658" y="0" on="1"/>
        <pt x="30" y="0" on="1"/>
        <pt x="38" y="108" on="1"/>
        <pt x="210" y="171" on="1"/>
        <pt x="210" y="1073" on="1"/>
      </contour>
      <contour>
        <pt x="118" y="1728" on="1"/>
        <pt x="335" y="1766" on="1"/>
        <pt x="475" y="1426" on="1"/>
        <pt x="318" y="1393" on="1"/>
      </contour>
    </TTGlyph>
    <TTGlyph name="Imacron" xMin="25" yMin="0" xMax="676" yMax="1540">
      <contour>
        <pt x="25" y="1131" on="1"/>
        <pt x="40" y="1244" on="1"/>
        <pt x="676" y="1244" on="1"/>
        <pt x="663" y="1126" on="1"/>
        <pt x="489" y="1074" on="1"/>
        <pt x="489" y="168" on="1"/>
        <pt x="670" y="120" on="1"/>
        <pt x="658" y="0" on="1"/>
        <pt x="30" y="0" on="1"/>
        <pt x="38" y="108" on="1"/>
        <pt x="210" y="171" on="1"/>
        <pt x="210" y="1073" on="1"/>
      </contour>
      <contour>
        <pt x="126" y="1393" on="1"/>
        <pt x="143" y="1540" on="1"/>
        <pt x="590" y="1540" on="1"/>
        <pt x="573" y="1393" on="1"/>
      </contour>
    </TTGlyph>
    <TTGlyph name="Iogonek" xMin="25" yMin="-380" xMax="676" yMax="1244">
      <contour>
        <pt x="25" y="1131" on="1"/>
        <pt x="40" y="1244" on="1"/>
        <pt x="676" y="1244" on="1"/>
        <pt x="663" y="1126" on="1"/>
        <pt x="489" y="1074" on="1"/>
        <pt x="489" y="168" on="1"/>
        <pt x="670" y="120" on="1"/>
        <pt x="658" y="0" on="1"/>
        <pt x="424" y="0" on="1"/>
        <pt x="380" y="-100" on="0"/>
        <pt x="410" y="-246" on="0"/>
        <pt x="495" y="-308" on="1"/>
        <pt x="466" y="-380" on="1"/>
        <pt x="348" y="-371" on="0"/>
        <pt x="188" y="-271" on="0"/>
        <pt x="188" y="-197" on="1"/>
        <pt x="188" y="-145" on="0"/>
        <pt x="245" y="-58" on="0"/>
        <pt x="319" y="0" on="1"/>
        <pt x="30" y="0" on="1"/>
        <pt x="38" y="108" on="1"/>
        <pt x="210" y="171" on="1"/>
        <pt x="210" y="1073" on="1"/>
      </contour>
    </TTGlyph>
    <TTGlyph name="J" xMin="-2" yMin="-326" xMax="684" yMax="1244">
      <contour>
        <pt x="-2" y="-194" on="1"/>
        <pt x="218" y="-1" on="0"/>
        <pt x="218" y="241" on="1"/>
        <pt x="218" y="1073" on="1"/>
        <pt x="38" y="1131" on="1"/>
        <pt x="53" y="1244" on="1"/>
        <pt x="684" y="1244" on="1"/>
        <pt x="669" y="1131" on="1"/>
        <pt x="499" y="1078" on="1"/>
        <pt x="498" y="410" on="1"/>
        <pt x="498" y="203" on="0"/>
        <pt x="441" y="15" on="0"/>
        <pt x="383" y="-86" on="0"/>
        <pt x="334" y="-136" on="1"/>
        <pt x="251" y="-222" on="0"/>
        <pt x="84" y="-326" on="1"/>
      </contour>
    </TTGlyph>
    <TTGlyph name="K" xMin="24" yMin="-24" xMax="1378" yMax="1244">
      <contour>
        <pt x="542" y="640" on="1"/>
        <pt x="613" y="717" on="0"/>
        <pt x="650" y="769" on="1"/>
        <pt x="859" y="1062" on="1"/>
        <pt x="788" y="1125" on="1"/>
        <pt x="806" y="1244" on="1"/>
        <pt x="1312" y="1244" on="1"/>
        <pt x="1292" y="1131" on="1"/>
        <pt x="1091" y="1060" on="1"/>
        <pt x="788" y="669" on="1"/>
        <pt x="1066" y="321" on="1"/>
        <pt x="1155" y="213" on="0"/>
        <pt x="1193" y="186" on="1"/>
        <pt x="1276" y="129" on="0"/>
        <pt x="1348" y="111" on="1"/>
        <pt x="1378" y="102" on="1"/>
        <pt x="1358" y="2" on="1"/>
        <pt x="1289" y="-24" on="0"/>
        <pt x="1109" y="-24" on="0"/>
        <pt x="982" y="23" on="0"/>
        <pt x="927" y="70" on="1"/>
        <pt x="832" y="150" on="0"/>
        <pt x="734" y="304" on="1"/>
        <pt x="540" y="594" on="1"/>
      </contour>
      <contour>
        <pt x="24" y="1131" on="1"/>
        <pt x="46" y="1244" on="1"/>
        <pt x="676" y="1244" on="1"/>
        <pt x="661" y="1131" on="1"/>
        <pt x="507" y="1060" on="1"/>
        <pt x="507" y="182" on="1"/>
        <pt x="699" y="114" on="1"/>
        <pt x="688" y="0" on="1"/>
        <pt x="28" y="0" on="1"/>
        <pt x="42" y="106" on="1"/>
        <pt x="228" y="185" on="1"/>
        <pt x="228" y="1055" on="1"/>
      </contour>
    </TTGlyph>
    <TTGlyph name="Kcommaaccent" xMin="24" yMin="-409" xMax="1378" yMax="1244">
      <contour>
        <pt x="542" y="640" on="1"/>
        <pt x="613" y="717" on="0"/>
        <pt x="650" y="769" on="1"/>
        <pt x="859" y="1062" on="1"/>
        <pt x="788" y="1125" on="1"/>
        <pt x="806" y="1244" on="1"/>
        <pt x="1312" y="1244" on="1"/>
        <pt x="1292" y="1131" on="1"/>
        <pt x="1091" y="1060" on="1"/>
        <pt x="788" y="669" on="1"/>
        <pt x="1066" y="321" on="1"/>
        <pt x="1155" y="213" on="0"/>
        <pt x="1193" y="186" on="1"/>
        <pt x="1276" y="129" on="0"/>
        <pt x="1348" y="111" on="1"/>
        <pt x="1378" y="102" on="1"/>
        <pt x="1358" y="2" on="1"/>
        <pt x="1289" y="-24" on="0"/>
        <pt x="1109" y="-24" on="0"/>
        <pt x="982" y="23" on="0"/>
        <pt x="927" y="70" on="1"/>
        <pt x="832" y="150" on="0"/>
        <pt x="734" y="304" on="1"/>
        <pt x="540" y="594" on="1"/>
      </contour>
      <contour>
        <pt x="24" y="1131" on="1"/>
        <pt x="46" y="1244" on="1"/>
        <pt x="676" y="1244" on="1"/>
        <pt x="661" y="1131" on="1"/>
        <pt x="507" y="1060" on="1"/>
        <pt x="507" y="182" on="1"/>
        <pt x="699" y="114" on="1"/>
        <pt x="688" y="0" on="1"/>
        <pt x="28" y="0" on="1"/>
        <pt x="42" y="106" on="1"/>
        <pt x="228" y="185" on="1"/>
        <pt x="228" y="1055" on="1"/>
      </contour>
      <contour>
        <pt x="606" y="-209" on="1"/>
        <pt x="608" y="-68" on="0"/>
        <pt x="750" y="-68" on="1"/>
        <pt x="827" y="-68" on="0"/>
        <pt x="916" y="-144" on="0"/>
        <pt x="918" y="-213" on="1"/>
        <pt x="921" y="-318" on="0"/>
        <pt x="752" y="-418" on="0"/>
        <pt x="625" y="-409" on="1"/>
        <pt x="606" y="-330" on="1"/>
        <pt x="655" y="-335" on="0"/>
        <pt x="719" y="-300" on="0"/>
        <pt x="719" y="-243" on="0"/>
        <pt x="651" y="-209" on="0"/>
      </contour>
    </TTGlyph>
    <TTGlyph name="L" xMin="24" yMin="0" xMax="1122" yMax="1244">
      <contour>
        <pt x="29" y="0" on="1"/>
        <pt x="42" y="106" on="1"/>
        <pt x="204" y="169" on="1"/>
        <pt x="204" y="1058" on="1"/>
        <pt x="24" y="1133" on="1"/>
        <pt x="40" y="1244" on="1"/>
        <pt x="687" y="1244" on="1"/>
        <pt x="672" y="1133" on="1"/>
        <pt x="488" y="1060" on="1"/>
        <pt x="488" y="148" on="1"/>
        <pt x="844" y="137" on="1"/>
        <pt x="996" y="398" on="1"/>
        <pt x="1122" y="380" on="1"/>
        <pt x="1080" y="0" on="1"/>
      </contour>
    </TTGlyph>
    <TTGlyph name="Lacute" xMin="24" yMin="0" xMax="1122" yMax="1734">
      <contour>
        <pt x="29" y="0" on="1"/>
        <pt x="42" y="106" on="1"/>
        <pt x="204" y="169" on="1"/>
        <pt x="204" y="1058" on="1"/>
        <pt x="24" y="1133" on="1"/>
        <pt x="40" y="1244" on="1"/>
        <pt x="687" y="1244" on="1"/>
        <pt x="672" y="1133" on="1"/>
        <pt x="488" y="1060" on="1"/>
        <pt x="488" y="148" on="1"/>
        <pt x="844" y="137" on="1"/>
        <pt x="996" y="398" on="1"/>
        <pt x="1122" y="380" on="1"/>
        <pt x="1080" y="0" on="1"/>
      </contour>
      <contour>
        <pt x="254" y="1420" on="1"/>
        <pt x="368" y="1734" on="1"/>
        <pt x="590" y="1706" on="1"/>
        <pt x="408" y="1393" on="1"/>
      </contour>
    </TTGlyph>
    <TTGlyph name="Lcaron" xMin="24" yMin="0" xMax="1134" yMax="1249">
      <contour>
        <pt x="29" y="0" on="1"/>
        <pt x="42" y="106" on="1"/>
        <pt x="204" y="169" on="1"/>
        <pt x="204" y="1058" on="1"/>
        <pt x="24" y="1133" on="1"/>
        <pt x="40" y="1244" on="1"/>
        <pt x="687" y="1244" on="1"/>
        <pt x="672" y="1133" on="1"/>
        <pt x="488" y="1060" on="1"/>
        <pt x="488" y="148" on="1"/>
        <pt x="844" y="137" on="1"/>
        <pt x="996" y="398" on="1"/>
        <pt x="1122" y="380" on="1"/>
        <pt x="1080" y="0" on="1"/>
      </contour>
      <contour>
        <pt x="756" y="749" on="1"/>
        <pt x="843" y="774" on="0"/>
        <pt x="929" y="873" on="0"/>
        <pt x="929" y="968" on="0"/>
        <pt x="872" y="1024" on="0"/>
        <pt x="806" y="1024" on="0"/>
        <pt x="786" y="1017" on="1"/>
        <pt x="763" y="1063" on="0"/>
        <pt x="763" y="1097" on="1"/>
        <pt x="763" y="1168" on="0"/>
        <pt x="858" y="1249" on="0"/>
        <pt x="1020" y="1249" on="0"/>
        <pt x="1134" y="1124" on="0"/>
        <pt x="1134" y="1012" on="1"/>
        <pt x="1134" y="905" on="0"/>
        <pt x="1063" y="807" on="1"/>
        <pt x="981" y="694" on="0"/>
        <pt x="789" y="656" on="1"/>
      </contour>
    </TTGlyph>
    <TTGlyph name="Lcommaaccent" xMin="24" yMin="-410" xMax="1122" yMax="1244">
      <contour>
        <pt x="29" y="0" on="1"/>
        <pt x="42" y="106" on="1"/>
        <pt x="204" y="169" on="1"/>
        <pt x="204" y="1058" on="1"/>
        <pt x="24" y="1133" on="1"/>
        <pt x="40" y="1244" on="1"/>
        <pt x="687" y="1244" on="1"/>
        <pt x="672" y="1133" on="1"/>
        <pt x="488" y="1060" on="1"/>
        <pt x="488" y="148" on="1"/>
        <pt x="844" y="137" on="1"/>
        <pt x="996" y="398" on="1"/>
        <pt x="1122" y="380" on="1"/>
        <pt x="1080" y="0" on="1"/>
      </contour>
      <contour>
        <pt x="445" y="-210" on="1"/>
        <pt x="447" y="-69" on="0"/>
        <pt x="589" y="-69" on="1"/>
        <pt x="666" y="-69" on="0"/>
        <pt x="755" y="-145" on="0"/>
        <pt x="757" y="-214" on="1"/>
        <pt x="760" y="-319" on="0"/>
        <pt x="591" y="-419" on="0"/>
        <pt x="464" y="-410" on="1"/>
        <pt x="445" y="-331" on="1"/>
        <pt x="494" y="-336" on="0"/>
        <pt x="558" y="-301" on="0"/>
        <pt x="558" y="-244" on="0"/>
        <pt x="490" y="-210" on="0"/>
      </contour>
    </TTGlyph>
    <TTGlyph name="Lslash" xMin="24" yMin="0" xMax="1122" yMax="1244">
      <contour>
        <pt x="58" y="480" on="1"/>
        <pt x="59" y="624" on="1"/>
        <pt x="204" y="684" on="1"/>
        <pt x="204" y="1058" on="1"/>
        <pt x="24" y="1133" on="1"/>
        <pt x="40" y="1244" on="1"/>
        <pt x="687" y="1244" on="1"/>
        <pt x="672" y="1133" on="1"/>
        <pt x="488" y="1060" on="1"/>
        <pt x="488" y="802" on="1"/>
        <pt x="672" y="878" on="1"/>
        <pt x="668" y="737" on="1"/>
        <pt x="488" y="661" on="1"/>
        <pt x="488" y="148" on="1"/>
        <pt x="844" y="137" on="1"/>
        <pt x="996" y="398" on="1"/>
        <pt x="1122" y="380" on="1"/>
        <pt x="1080" y="0" on="1"/>
        <pt x="29" y="0" on="1"/>
        <pt x="42" y="106" on="1"/>
        <pt x="204" y="169" on="1"/>
        <pt x="204" y="542" on="1"/>
      </contour>
    </TTGlyph>
    <TTGlyph name="M" xMin="12" yMin="0" xMax="1739" yMax="1244">
      <contour>
        <pt x="12" y="0" on="1"/>
        <pt x="28" y="114" on="1"/>
        <pt x="196" y="177" on="1"/>
        <pt x="261" y="1078" on="1"/>
        <pt x="78" y="1128" on="1"/>
        <pt x="90" y="1244" on="1"/>
        <pt x="595" y="1244" on="1"/>
        <pt x="670" y="1044" on="1"/>
        <pt x="878" y="426" on="1"/>
        <pt x="1180" y="1244" on="1"/>
        <pt x="1678" y="1244" on="1"/>
        <pt x="1664" y="1128" on="1"/>
        <pt x="1499" y="1082" on="1"/>
        <pt x="1560" y="172" on="1"/>
        <pt x="1739" y="120" on="1"/>
        <pt x="1727" y="0" on="1"/>
        <pt x="1138" y="0" on="1"/>
        <pt x="1156" y="114" on="1"/>
        <pt x="1294" y="177" on="1"/>
        <pt x="1240" y="890" on="1"/>
        <pt x="937" y="40" on="1"/>
        <pt x="732" y="12" on="1"/>
        <pt x="440" y="877" on="1"/>
        <pt x="392" y="172" on="1"/>
        <pt x="548" y="120" on="1"/>
        <pt x="530" y="0" on="1"/>
      </contour>
    </TTGlyph>
    <TTGlyph name="N" xMin="27" yMin="-30" xMax="1380" yMax="1244">
      <contour>
        <pt x="27" y="1128" on="1"/>
        <pt x="40" y="1244" on="1"/>
        <pt x="435" y="1244" on="1"/>
        <pt x="1022" y="402" on="1"/>
        <pt x="1022" y="1073" on="1"/>
        <pt x="836" y="1131" on="1"/>
        <pt x="854" y="1244" on="1"/>
        <pt x="1380" y="1244" on="1"/>
        <pt x="1360" y="1131" on="1"/>
        <pt x="1193" y="1078" on="1"/>
        <pt x="1193" y="8" on="1"/>
        <pt x="975" y="-30" on="1"/>
        <pt x="387" y="790" on="1"/>
        <pt x="387" y="162" on="1"/>
        <pt x="568" y="114" on="1"/>
        <pt x="556" y="0" on="1"/>
        <pt x="28" y="0" on="1"/>
        <pt x="38" y="106" on="1"/>
        <pt x="206" y="169" on="1"/>
        <pt x="206" y="1060" on="1"/>
      </contour>
    </TTGlyph>
    <TTGlyph name="Nacute" xMin="27" yMin="-30" xMax="1380" yMax="1734">
      <contour>
        <pt x="27" y="1128" on="1"/>
        <pt x="40" y="1244" on="1"/>
        <pt x="435" y="1244" on="1"/>
        <pt x="1022" y="402" on="1"/>
        <pt x="1022" y="1073" on="1"/>
        <pt x="836" y="1131" on="1"/>
        <pt x="854" y="1244" on="1"/>
        <pt x="1380" y="1244" on="1"/>
        <pt x="1360" y="1131" on="1"/>
        <pt x="1193" y="1078" on="1"/>
        <pt x="1193" y="8" on="1"/>
        <pt x="975" y="-30" on="1"/>
        <pt x="387" y="790" on="1"/>
        <pt x="387" y="162" on="1"/>
        <pt x="568" y="114" on="1"/>
        <pt x="556" y="0" on="1"/>
        <pt x="28" y="0" on="1"/>
        <pt x="38" y="106" on="1"/>
        <pt x="206" y="169" on="1"/>
        <pt x="206" y="1060" on="1"/>
      </contour>
      <contour>
        <pt x="578" y="1420" on="1"/>
        <pt x="692" y="1734" on="1"/>
        <pt x="914" y="1706" on="1"/>
        <pt x="732" y="1393" on="1"/>
      </contour>
    </TTGlyph>
    <TTGlyph name="Ncaron" xMin="27" yMin="-30" xMax="1380" yMax="1578">
      <contour>
        <pt x="27" y="1128" on="1"/>
        <pt x="40" y="1244" on="1"/>
        <pt x="435" y="1244" on="1"/>
        <pt x="1022" y="402" on="1"/>
        <pt x="1022" y="1073" on="1"/>
        <pt x="836" y="1131" on="1"/>
        <pt x="854" y="1244" on="1"/>
        <pt x="1380" y="1244" on="1"/>
        <pt x="1360" y="1131" on="1"/>
        <pt x="1193" y="1078" on="1"/>
        <pt x="1193" y="8" on="1"/>
        <pt x="975" y="-30" on="1"/>
        <pt x="387" y="790" on="1"/>
        <pt x="387" y="162" on="1"/>
        <pt x="568" y="114" on="1"/>
        <pt x="556" y="0" on="1"/>
        <pt x="28" y="0" on="1"/>
        <pt x="38" y="106" on="1"/>
        <pt x="206" y="169" on="1"/>
        <pt x="206" y="1060" on="1"/>
      </contour>
      <contour>
        <pt x="444" y="1543" on="1"/>
        <pt x="649" y="1578" on="1"/>
        <pt x="738" y="1493" on="1"/>
        <pt x="748" y="1493" on="1"/>
        <pt x="832" y="1574" on="1"/>
        <pt x="975" y="1560" on="1"/>
        <pt x="785" y="1344" on="1"/>
        <pt x="638" y="1323" on="1"/>
      </contour>
    </TTGlyph>
    <TTGlyph name="Ncommaaccent" xMin="27" yMin="-409" xMax="1380" yMax="1244">
      <contour>
        <pt x="27" y="1128" on="1"/>
        <pt x="40" y="1244" on="1"/>
        <pt x="435" y="1244" on="1"/>
        <pt x="1022" y="402" on="1"/>
        <pt x="1022" y="1073" on="1"/>
        <pt x="836" y="1131" on="1"/>
        <pt x="854" y="1244" on="1"/>
        <pt x="1380" y="1244" on="1"/>
        <pt x="1360" y="1131" on="1"/>
        <pt x="1193" y="1078" on="1"/>
        <pt x="1193" y="8" on="1"/>
        <pt x="975" y="-30" on="1"/>
        <pt x="387" y="790" on="1"/>
        <pt x="387" y="162" on="1"/>
        <pt x="568" y="114" on="1"/>
        <pt x="556" y="0" on="1"/>
        <pt x="28" y="0" on="1"/>
        <pt x="38" y="106" on="1"/>
        <pt x="206" y="169" on="1"/>
        <pt x="206" y="1060" on="1"/>
      </contour>
      <contour>
        <pt x="510" y="-209" on="1"/>
        <pt x="512" y="-68" on="0"/>
        <pt x="654" y="-68" on="1"/>
        <pt x="731" y="-68" on="0"/>
        <pt x="820" y="-144" on="0"/>
        <pt x="822" y="-213" on="1"/>
        <pt x="825" y="-318" on="0"/>
        <pt x="656" y="-418" on="0"/>
        <pt x="529" y="-409" on="1"/>
        <pt x="510" y="-330" on="1"/>
        <pt x="559" y="-335" on="0"/>
        <pt x="623" y="-300" on="0"/>
        <pt x="623" y="-243" on="0"/>
        <pt x="555" y="-209" on="0"/>
      </contour>
    </TTGlyph>
    <TTGlyph name="Ntilde" xMin="27" yMin="-30" xMax="1380" yMax="1604">
      <contour>
        <pt x="27" y="1128" on="1"/>
        <pt x="40" y="1244" on="1"/>
        <pt x="435" y="1244" on="1"/>
        <pt x="1022" y="402" on="1"/>
        <pt x="1022" y="1073" on="1"/>
        <pt x="836" y="1131" on="1"/>
        <pt x="854" y="1244" on="1"/>
        <pt x="1380" y="1244" on="1"/>
        <pt x="1360" y="1131" on="1"/>
        <pt x="1193" y="1078" on="1"/>
        <pt x="1193" y="8" on="1"/>
        <pt x="975" y="-30" on="1"/>
        <pt x="387" y="790" on="1"/>
        <pt x="387" y="162" on="1"/>
        <pt x="568" y="114" on="1"/>
        <pt x="556" y="0" on="1"/>
        <pt x="28" y="0" on="1"/>
        <pt x="38" y="106" on="1"/>
        <pt x="206" y="169" on="1"/>
        <pt x="206" y="1060" on="1"/>
      </contour>
      <contour>
        <pt x="431" y="1396" on="1"/>
        <pt x="424" y="1440" on="0"/>
        <pt x="471" y="1538" on="0"/>
        <pt x="494" y="1564" on="1"/>
        <pt x="547" y="1624" on="0"/>
        <pt x="634" y="1604" on="1"/>
        <pt x="840" y="1555" on="1"/>
        <pt x="856" y="1551" on="0"/>
        <pt x="888" y="1574" on="0"/>
        <pt x="903" y="1601" on="1"/>
        <pt x="985" y="1595" on="1"/>
        <pt x="985" y="1525" on="0"/>
        <pt x="928" y="1450" on="1"/>
        <pt x="902" y="1414" on="0"/>
        <pt x="812" y="1380" on="0"/>
        <pt x="759" y="1393" on="1"/>
        <pt x="572" y="1439" on="1"/>
        <pt x="553" y="1443" on="0"/>
        <pt x="524" y="1415" on="0"/>
        <pt x="513" y="1383" on="1"/>
      </contour>
    </TTGlyph>
    <TTGlyph name="O" xMin="50" yMin="-27" xMax="1353" yMax="1270">
      <contour>
        <pt x="366" y="697" on="1"/>
        <pt x="366" y="616" on="0"/>
        <pt x="381" y="497" on="0"/>
        <pt x="412" y="370" on="0"/>
        <pt x="467" y="260" on="0"/>
        <pt x="504" y="216" on="1"/>
        <pt x="584" y="121" on="0"/>
        <pt x="711" y="121" on="1"/>
        <pt x="1030" y="121" on="0"/>
        <pt x="1030" y="573" on="1"/>
        <pt x="1030" y="684" on="0"/>
        <pt x="985" y="879" on="0"/>
        <pt x="929" y="991" on="0"/>
        <pt x="892" y="1036" on="1"/>
        <pt x="813" y="1135" on="0"/>
        <pt x="682" y="1135" on="1"/>
        <pt x="504" y="1135" on="0"/>
        <pt x="432" y="1002" on="1"/>
        <pt x="366" y="880" on="0"/>
      </contour>
      <contour>
        <pt x="50" y="913" on="0"/>
        <pt x="410" y="1270" on="0"/>
        <pt x="1022" y="1270" on="0"/>
        <pt x="1353" y="926" on="0"/>
        <pt x="1353" y="328" on="0"/>
        <pt x="976" y="-27" on="0"/>
        <pt x="660" y="-27" on="1"/>
        <pt x="359" y="-27" on="0"/>
        <pt x="202" y="157" on="1"/>
        <pt x="50" y="334" on="0"/>
      </contour>
    </TTGlyph>
    <TTGlyph name="OE" xMin="32" yMin="-27" xMax="1750" yMax="1270">
      <contour>
        <pt x="446" y="270" on="1"/>
        <pt x="475" y="213" on="0"/>
        <pt x="573" y="137" on="0"/>
        <pt x="709" y="137" on="0"/>
        <pt x="784" y="181" on="1"/>
        <pt x="784" y="1092" on="1"/>
        <pt x="688" y="1140" on="0"/>
        <pt x="608" y="1140" on="1"/>
        <pt x="486" y="1140" on="0"/>
        <pt x="366" y="920" on="0"/>
        <pt x="366" y="427" on="0"/>
      </contour>
      <contour>
        <pt x="146" y="135" on="0"/>
        <pt x="32" y="421" on="0"/>
        <pt x="32" y="770" on="0"/>
        <pt x="102" y="1006" on="0"/>
        <pt x="174" y="1092" on="1"/>
        <pt x="320" y="1270" on="0"/>
        <pt x="634" y="1270" on="1"/>
        <pt x="745" y="1270" on="0"/>
        <pt x="826" y="1242" on="1"/>
        <pt x="1684" y="1244" on="1"/>
        <pt x="1654" y="875" on="1"/>
        <pt x="1525" y="894" on="1"/>
        <pt x="1464" y="1112" on="1"/>
        <pt x="1064" y="1112" on="1"/>
        <pt x="1064" y="694" on="1"/>
        <pt x="1304" y="702" on="1"/>
        <pt x="1334" y="763" on="1"/>
        <pt x="1494" y="780" on="1"/>
        <pt x="1461" y="462" on="1"/>
        <pt x="1310" y="465" on="1"/>
        <pt x="1284" y="554" on="1"/>
        <pt x="1064" y="562" on="1"/>
        <pt x="1064" y="137" on="1"/>
        <pt x="1504" y="138" on="1"/>
        <pt x="1626" y="377" on="1"/>
        <pt x="1750" y="362" on="1"/>
        <pt x="1720" y="0" on="1"/>
        <pt x="780" y="0" on="1"/>
        <pt x="677" y="-27" on="0"/>
        <pt x="563" y="-27" on="1"/>
        <pt x="387" y="-27" on="0"/>
      </contour>
    </TTGlyph>
    <TTGlyph name="Oacute" xMin="50" yMin="-27" xMax="1353" yMax="1734">
      <contour>
        <pt x="366" y="697" on="1"/>
        <pt x="366" y="616" on="0"/>
        <pt x="381" y="497" on="0"/>
        <pt x="412" y="370" on="0"/>
        <pt x="467" y="260" on="0"/>
        <pt x="504" y="216" on="1"/>
        <pt x="584" y="121" on="0"/>
        <pt x="711" y="121" on="1"/>
        <pt x="1030" y="121" on="0"/>
        <pt x="1030" y="573" on="1"/>
        <pt x="1030" y="684" on="0"/>
        <pt x="985" y="879" on="0"/>
        <pt x="929" y="991" on="0"/>
        <pt x="892" y="1036" on="1"/>
        <pt x="813" y="1135" on="0"/>
        <pt x="682" y="1135" on="1"/>
        <pt x="504" y="1135" on="0"/>
        <pt x="432" y="1002" on="1"/>
        <pt x="366" y="880" on="0"/>
      </contour>
      <contour>
        <pt x="50" y="913" on="0"/>
        <pt x="410" y="1270" on="0"/>
        <pt x="1022" y="1270" on="0"/>
        <pt x="1353" y="926" on="0"/>
        <pt x="1353" y="328" on="0"/>
        <pt x="976" y="-27" on="0"/>
        <pt x="660" y="-27" on="1"/>
        <pt x="359" y="-27" on="0"/>
        <pt x="202" y="157" on="1"/>
        <pt x="50" y="334" on="0"/>
      </contour>
      <contour>
        <pt x="638" y="1420" on="1"/>
        <pt x="752" y="1734" on="1"/>
        <pt x="974" y="1706" on="1"/>
        <pt x="792" y="1393" on="1"/>
      </contour>
    </TTGlyph>
    <TTGlyph name="Ocircumflex" xMin="50" yMin="-27" xMax="1353" yMax="1600">
      <contour>
        <pt x="366" y="697" on="1"/>
        <pt x="366" y="616" on="0"/>
        <pt x="381" y="497" on="0"/>
        <pt x="412" y="370" on="0"/>
        <pt x="467" y="260" on="0"/>
        <pt x="504" y="216" on="1"/>
        <pt x="584" y="121" on="0"/>
        <pt x="711" y="121" on="1"/>
        <pt x="1030" y="121" on="0"/>
        <pt x="1030" y="573" on="1"/>
        <pt x="1030" y="684" on="0"/>
        <pt x="985" y="879" on="0"/>
        <pt x="929" y="991" on="0"/>
        <pt x="892" y="1036" on="1"/>
        <pt x="813" y="1135" on="0"/>
        <pt x="682" y="1135" on="1"/>
        <pt x="504" y="1135" on="0"/>
        <pt x="432" y="1002" on="1"/>
        <pt x="366" y="880" on="0"/>
      </contour>
      <contour>
        <pt x="50" y="913" on="0"/>
        <pt x="410" y="1270" on="0"/>
        <pt x="1022" y="1270" on="0"/>
        <pt x="1353" y="926" on="0"/>
        <pt x="1353" y="328" on="0"/>
        <pt x="976" y="-27" on="0"/>
        <pt x="660" y="-27" on="1"/>
        <pt x="359" y="-27" on="0"/>
        <pt x="202" y="157" on="1"/>
        <pt x="50" y="334" on="0"/>
      </contour>
      <contour>
        <pt x="974" y="1380" on="1"/>
        <pt x="805" y="1345" on="1"/>
        <pt x="701" y="1430" on="1"/>
        <pt x="691" y="1430" on="1"/>
        <pt x="604" y="1339" on="1"/>
        <pt x="443" y="1363" on="1"/>
        <pt x="607" y="1579" on="1"/>
        <pt x="794" y="1600" on="1"/>
      </contour>
    </TTGlyph>
    <TTGlyph name="Odieresis" xMin="50" yMin="-27" xMax="1353" yMax="1581">
      <contour>
        <pt x="366" y="697" on="1"/>
        <pt x="366" y="616" on="0"/>
        <pt x="381" y="497" on="0"/>
        <pt x="412" y="370" on="0"/>
        <pt x="467" y="260" on="0"/>
        <pt x="504" y="216" on="1"/>
        <pt x="584" y="121" on="0"/>
        <pt x="711" y="121" on="1"/>
        <pt x="1030" y="121" on="0"/>
        <pt x="1030" y="573" on="1"/>
        <pt x="1030" y="684" on="0"/>
        <pt x="985" y="879" on="0"/>
        <pt x="929" y="991" on="0"/>
        <pt x="892" y="1036" on="1"/>
        <pt x="813" y="1135" on="0"/>
        <pt x="682" y="1135" on="1"/>
        <pt x="504" y="1135" on="0"/>
        <pt x="432" y="1002" on="1"/>
        <pt x="366" y="880" on="0"/>
      </contour>
      <contour>
        <pt x="50" y="913" on="0"/>
        <pt x="410" y="1270" on="0"/>
        <pt x="1022" y="1270" on="0"/>
        <pt x="1353" y="926" on="0"/>
        <pt x="1353" y="328" on="0"/>
        <pt x="976" y="-27" on="0"/>
        <pt x="660" y="-27" on="1"/>
        <pt x="359" y="-27" on="0"/>
        <pt x="202" y="157" on="1"/>
        <pt x="50" y="334" on="0"/>
      </contour>
      <contour>
        <pt x="518" y="1392" on="0"/>
        <pt x="465" y="1448" on="0"/>
        <pt x="465" y="1526" on="0"/>
        <pt x="520" y="1581" on="0"/>
        <pt x="628" y="1581" on="0"/>
        <pt x="685" y="1527" on="0"/>
        <pt x="685" y="1447" on="0"/>
        <pt x="628" y="1392" on="0"/>
      </contour>
      <contour>
        <pt x="827" y="1392" on="0"/>
        <pt x="774" y="1448" on="0"/>
        <pt x="774" y="1526" on="0"/>
        <pt x="829" y="1581" on="0"/>
        <pt x="937" y="1581" on="0"/>
        <pt x="994" y="1527" on="0"/>
        <pt x="994" y="1447" on="0"/>
        <pt x="937" y="1392" on="0"/>
      </contour>
    </TTGlyph>
    <TTGlyph name="Ograve" xMin="50" yMin="-27" xMax="1353" yMax="1766">
      <contour>
        <pt x="366" y="697" on="1"/>
        <pt x="366" y="616" on="0"/>
        <pt x="381" y="497" on="0"/>
        <pt x="412" y="370" on="0"/>
        <pt x="467" y="260" on="0"/>
        <pt x="504" y="216" on="1"/>
        <pt x="584" y="121" on="0"/>
        <pt x="711" y="121" on="1"/>
        <pt x="1030" y="121" on="0"/>
        <pt x="1030" y="573" on="1"/>
        <pt x="1030" y="684" on="0"/>
        <pt x="985" y="879" on="0"/>
        <pt x="929" y="991" on="0"/>
        <pt x="892" y="1036" on="1"/>
        <pt x="813" y="1135" on="0"/>
        <pt x="682" y="1135" on="1"/>
        <pt x="504" y="1135" on="0"/>
        <pt x="432" y="1002" on="1"/>
        <pt x="366" y="880" on="0"/>
      </contour>
      <contour>
        <pt x="50" y="913" on="0"/>
        <pt x="410" y="1270" on="0"/>
        <pt x="1022" y="1270" on="0"/>
        <pt x="1353" y="926" on="0"/>
        <pt x="1353" y="328" on="0"/>
        <pt x="976" y="-27" on="0"/>
        <pt x="660" y="-27" on="1"/>
        <pt x="359" y="-27" on="0"/>
        <pt x="202" y="157" on="1"/>
        <pt x="50" y="334" on="0"/>
      </contour>
      <contour>
        <pt x="489" y="1728" on="1"/>
        <pt x="706" y="1766" on="1"/>
        <pt x="846" y="1426" on="1"/>
        <pt x="689" y="1393" on="1"/>
      </contour>
    </TTGlyph>
    <TTGlyph name="Ohungarumlaut" xMin="50" yMin="-27" xMax="1353" yMax="1659">
      <contour>
        <pt x="366" y="697" on="1"/>
        <pt x="366" y="616" on="0"/>
        <pt x="381" y="497" on="0"/>
        <pt x="412" y="370" on="0"/>
        <pt x="467" y="260" on="0"/>
        <pt x="504" y="216" on="1"/>
        <pt x="584" y="121" on="0"/>
        <pt x="711" y="121" on="1"/>
        <pt x="1030" y="121" on="0"/>
        <pt x="1030" y="573" on="1"/>
        <pt x="1030" y="684" on="0"/>
        <pt x="985" y="879" on="0"/>
        <pt x="929" y="991" on="0"/>
        <pt x="892" y="1036" on="1"/>
        <pt x="813" y="1135" on="0"/>
        <pt x="682" y="1135" on="1"/>
        <pt x="504" y="1135" on="0"/>
        <pt x="432" y="1002" on="1"/>
        <pt x="366" y="880" on="0"/>
      </contour>
      <contour>
        <pt x="50" y="913" on="0"/>
        <pt x="410" y="1270" on="0"/>
        <pt x="1022" y="1270" on="0"/>
        <pt x="1353" y="926" on="0"/>
        <pt x="1353" y="328" on="0"/>
        <pt x="976" y="-27" on="0"/>
        <pt x="660" y="-27" on="1"/>
        <pt x="359" y="-27" on="0"/>
        <pt x="202" y="157" on="1"/>
        <pt x="50" y="334" on="0"/>
      </contour>
      <contour>
        <pt x="669" y="1428" on="1"/>
        <pt x="921" y="1654" on="1"/>
        <pt x="1112" y="1618" on="1"/>
        <pt x="810" y="1403" on="1"/>
      </contour>
      <contour>
        <pt x="404" y="1428" on="1"/>
        <pt x="671" y="1659" on="1"/>
        <pt x="860" y="1624" on="1"/>
        <pt x="548" y="1403" on="1"/>
      </contour>
    </TTGlyph>
    <TTGlyph name="Omacron" xMin="50" yMin="-27" xMax="1353" yMax="1540">
      <contour>
        <pt x="366" y="697" on="1"/>
        <pt x="366" y="616" on="0"/>
        <pt x="381" y="497" on="0"/>
        <pt x="412" y="370" on="0"/>
        <pt x="467" y="260" on="0"/>
        <pt x="504" y="216" on="1"/>
        <pt x="584" y="121" on="0"/>
        <pt x="711" y="121" on="1"/>
        <pt x="1030" y="121" on="0"/>
        <pt x="1030" y="573" on="1"/>
        <pt x="1030" y="684" on="0"/>
        <pt x="985" y="879" on="0"/>
        <pt x="929" y="991" on="0"/>
        <pt x="892" y="1036" on="1"/>
        <pt x="813" y="1135" on="0"/>
        <pt x="682" y="1135" on="1"/>
        <pt x="504" y="1135" on="0"/>
        <pt x="432" y="1002" on="1"/>
        <pt x="366" y="880" on="0"/>
      </contour>
      <contour>
        <pt x="50" y="913" on="0"/>
        <pt x="410" y="1270" on="0"/>
        <pt x="1022" y="1270" on="0"/>
        <pt x="1353" y="926" on="0"/>
        <pt x="1353" y="328" on="0"/>
        <pt x="976" y="-27" on="0"/>
        <pt x="660" y="-27" on="1"/>
        <pt x="359" y="-27" on="0"/>
        <pt x="202" y="157" on="1"/>
        <pt x="50" y="334" on="0"/>
      </contour>
      <contour>
        <pt x="497" y="1393" on="1"/>
        <pt x="514" y="1540" on="1"/>
        <pt x="961" y="1540" on="1"/>
        <pt x="944" y="1393" on="1"/>
      </contour>
    </TTGlyph>
    <TTGlyph name="Oslash" xMin="36" yMin="-60" xMax="1379" yMax="1293">
      <contour>
        <pt x="235" y="121" on="1"/>
        <pt x="36" y="299" on="0"/>
        <pt x="36" y="911" on="0"/>
        <pt x="414" y="1270" on="0"/>
        <pt x="736" y="1270" on="1"/>
        <pt x="892" y="1270" on="0"/>
        <pt x="1016" y="1220" on="1"/>
        <pt x="1074" y="1293" on="1"/>
        <pt x="1271" y="1272" on="1"/>
        <pt x="1162" y="1135" on="1"/>
        <pt x="1379" y="958" on="0"/>
        <pt x="1379" y="616" on="1"/>
        <pt x="1379" y="330" on="0"/>
        <pt x="984" y="-27" on="0"/>
        <pt x="666" y="-27" on="1"/>
        <pt x="509" y="-27" on="0"/>
        <pt x="382" y="28" on="1"/>
        <pt x="320" y="-60" on="1"/>
        <pt x="124" y="-34" on="1"/>
      </contour>
      <contour>
        <pt x="962" y="938" on="1"/>
        <pt x="499" y="229" on="1"/>
        <pt x="585" y="121" on="0"/>
        <pt x="717" y="121" on="1"/>
        <pt x="1036" y="121" on="0"/>
        <pt x="1036" y="573" on="1"/>
        <pt x="1036" y="782" on="0"/>
      </contour>
      <contour>
        <pt x="915" y="1016" on="1"/>
        <pt x="826" y="1135" on="0"/>
        <pt x="688" y="1135" on="1"/>
        <pt x="510" y="1135" on="0"/>
        <pt x="438" y="1002" on="1"/>
        <pt x="372" y="880" on="0"/>
        <pt x="372" y="462" on="0"/>
        <pt x="449" y="308" on="1"/>
      </contour>
    </TTGlyph>
    <TTGlyph name="Otilde" xMin="50" yMin="-27" xMax="1353" yMax="1604">
      <contour>
        <pt x="366" y="697" on="1"/>
        <pt x="366" y="616" on="0"/>
        <pt x="381" y="497" on="0"/>
        <pt x="412" y="370" on="0"/>
        <pt x="467" y="260" on="0"/>
        <pt x="504" y="216" on="1"/>
        <pt x="584" y="121" on="0"/>
        <pt x="711" y="121" on="1"/>
        <pt x="1030" y="121" on="0"/>
        <pt x="1030" y="573" on="1"/>
        <pt x="1030" y="684" on="0"/>
        <pt x="985" y="879" on="0"/>
        <pt x="929" y="991" on="0"/>
        <pt x="892" y="1036" on="1"/>
        <pt x="813" y="1135" on="0"/>
        <pt x="682" y="1135" on="1"/>
        <pt x="504" y="1135" on="0"/>
        <pt x="432" y="1002" on="1"/>
        <pt x="366" y="880" on="0"/>
      </contour>
      <contour>
        <pt x="50" y="913" on="0"/>
        <pt x="410" y="1270" on="0"/>
        <pt x="1022" y="1270" on="0"/>
        <pt x="1353" y="926" on="0"/>
        <pt x="1353" y="328" on="0"/>
        <pt x="976" y="-27" on="0"/>
        <pt x="660" y="-27" on="1"/>
        <pt x="359" y="-27" on="0"/>
        <pt x="202" y="157" on="1"/>
        <pt x="50" y="334" on="0"/>
      </contour>
      <contour>
        <pt x="451" y="1396" on="1"/>
        <pt x="444" y="1440" on="0"/>
        <pt x="491" y="1538" on="0"/>
        <pt x="514" y="1564" on="1"/>
        <pt x="567" y="1624" on="0"/>
        <pt x="654" y="1604" on="1"/>
        <pt x="860" y="1555" on="1"/>
        <pt x="876" y="1551" on="0"/>
        <pt x="908" y="1574" on="0"/>
        <pt x="923" y="1601" on="1"/>
        <pt x="1005" y="1595" on="1"/>
        <pt x="1005" y="1525" on="0"/>
        <pt x="948" y="1450" on="1"/>
        <pt x="922" y="1414" on="0"/>
        <pt x="832" y="1380" on="0"/>
        <pt x="779" y="1393" on="1"/>
        <pt x="592" y="1439" on="1"/>
        <pt x="573" y="1443" on="0"/>
        <pt x="544" y="1415" on="0"/>
        <pt x="533" y="1383" on="1"/>
      </contour>
    </TTGlyph>
    <TTGlyph name="P" xMin="25" yMin="0" xMax="1120" yMax="1261">
      <contour>
        <pt x="25" y="0" on="1"/>
        <pt x="42" y="106" on="1"/>
        <pt x="218" y="169" on="1"/>
        <pt x="218" y="1056" on="1"/>
        <pt x="38" y="1093" on="1"/>
        <pt x="50" y="1211" on="1"/>
        <pt x="381" y="1261" on="0"/>
        <pt x="612" y="1261" on="1"/>
        <pt x="904" y="1261" on="0"/>
        <pt x="1025" y="1148" on="1"/>
        <pt x="1120" y="1059" on="0"/>
        <pt x="1120" y="712" on="0"/>
        <pt x="844" y="470" on="0"/>
        <pt x="641" y="470" on="1"/>
        <pt x="610" y="470" on="0"/>
        <pt x="550" y="474" on="1"/>
        <pt x="526" y="602" on="1"/>
        <pt x="562" y="603" on="1"/>
        <pt x="696" y="605" on="0"/>
        <pt x="832" y="733" on="0"/>
        <pt x="832" y="965" on="0"/>
        <pt x="704" y="1113" on="0"/>
        <pt x="576" y="1113" on="1"/>
        <pt x="534" y="1113" on="0"/>
        <pt x="492" y="1106" on="1"/>
        <pt x="492" y="178" on="1"/>
        <pt x="730" y="120" on="1"/>
        <pt x="712" y="0" on="1"/>
      </contour>
    </TTGlyph>
    <TTGlyph name="Q" xMin="50" yMin="-384" xMax="1355" yMax="1270">
      <contour>
        <pt x="680" y="1131" on="1"/>
        <pt x="359" y="1131" on="0"/>
        <pt x="359" y="675" on="1"/>
        <pt x="359" y="418" on="0"/>
        <pt x="494" y="252" on="1"/>
        <pt x="541" y="195" on="0"/>
        <pt x="689" y="116" on="0"/>
        <pt x="780" y="108" on="1"/>
        <pt x="935" y="162" on="0"/>
        <pt x="988" y="288" on="1"/>
        <pt x="1036" y="400" on="0"/>
        <pt x="1036" y="568" on="1"/>
        <pt x="1036" y="830" on="0"/>
        <pt x="917" y="1002" on="1"/>
        <pt x="877" y="1059" on="0"/>
        <pt x="754" y="1131" on="0"/>
      </contour>
      <contour>
        <pt x="190" y="137" on="0"/>
        <pt x="50" y="421" on="0"/>
        <pt x="50" y="752" on="0"/>
        <pt x="147" y="996" on="0"/>
        <pt x="323" y="1171" on="0"/>
        <pt x="582" y="1270" on="0"/>
        <pt x="738" y="1270" on="1"/>
        <pt x="1028" y="1270" on="0"/>
        <pt x="1355" y="929" on="0"/>
        <pt x="1355" y="626" on="1"/>
        <pt x="1355" y="399" on="0"/>
        <pt x="1110" y="59" on="0"/>
        <pt x="906" y="5" on="1"/>
        <pt x="952" y="-91" on="0"/>
        <pt x="1160" y="-206" on="0"/>
        <pt x="1339" y="-238" on="1"/>
        <pt x="1339" y="-247" on="0"/>
        <pt x="1326" y="-336" on="0"/>
        <pt x="1324" y="-343" on="1"/>
        <pt x="1220" y="-384" on="0"/>
        <pt x="989" y="-384" on="0"/>
        <pt x="817" y="-307" on="0"/>
        <pt x="710" y="-140" on="0"/>
        <pt x="714" y="-24" on="1"/>
        <pt x="693" y="-27" on="0"/>
        <pt x="662" y="-27" on="1"/>
        <pt x="469" y="-27" on="0"/>
      </contour>
    </TTGlyph>
    <TTGlyph name="R" xMin="25" yMin="-24" xMax="1350" yMax="1254">
      <contour>
        <pt x="576" y="1122" on="1"/>
        <pt x="500" y="1119" on="1"/>
        <pt x="500" y="648" on="1"/>
        <pt x="675" y="648" on="1"/>
        <pt x="834" y="717" on="0"/>
        <pt x="834" y="874" on="1"/>
        <pt x="834" y="981" on="0"/>
        <pt x="694" y="1122" on="0"/>
      </contour>
      <contour>
        <pt x="25" y="0" on="1"/>
        <pt x="40" y="106" on="1"/>
        <pt x="218" y="169" on="1"/>
        <pt x="218" y="1048" on="1"/>
        <pt x="37" y="1086" on="1"/>
        <pt x="48" y="1205" on="1"/>
        <pt x="355" y="1254" on="0"/>
        <pt x="862" y="1254" on="0"/>
        <pt x="1138" y="1103" on="0"/>
        <pt x="1138" y="926" on="1"/>
        <pt x="1138" y="813" on="0"/>
        <pt x="973" y="621" on="0"/>
        <pt x="857" y="580" on="1"/>
        <pt x="1008" y="374" on="1"/>
        <pt x="1142" y="191" on="0"/>
        <pt x="1225" y="145" on="1"/>
        <pt x="1265" y="123" on="0"/>
        <pt x="1314" y="110" on="1"/>
        <pt x="1350" y="100" on="1"/>
        <pt x="1327" y="0" on="1"/>
        <pt x="1253" y="-24" on="0"/>
        <pt x="1158" y="-24" on="1"/>
        <pt x="1016" y="-24" on="0"/>
        <pt x="823" y="128" on="0"/>
        <pt x="748" y="268" on="1"/>
        <pt x="624" y="498" on="1"/>
        <pt x="500" y="498" on="1"/>
        <pt x="500" y="178" on="1"/>
        <pt x="665" y="119" on="1"/>
        <pt x="654" y="0" on="1"/>
      </contour>
    </TTGlyph>
    <TTGlyph name="Racute" xMin="25" yMin="-24" xMax="1350" yMax="1734">
      <contour>
        <pt x="576" y="1122" on="1"/>
        <pt x="500" y="1119" on="1"/>
        <pt x="500" y="648" on="1"/>
        <pt x="675" y="648" on="1"/>
        <pt x="834" y="717" on="0"/>
        <pt x="834" y="874" on="1"/>
        <pt x="834" y="981" on="0"/>
        <pt x="694" y="1122" on="0"/>
      </contour>
      <contour>
        <pt x="25" y="0" on="1"/>
        <pt x="40" y="106" on="1"/>
        <pt x="218" y="169" on="1"/>
        <pt x="218" y="1048" on="1"/>
        <pt x="37" y="1086" on="1"/>
        <pt x="48" y="1205" on="1"/>
        <pt x="355" y="1254" on="0"/>
        <pt x="862" y="1254" on="0"/>
        <pt x="1138" y="1103" on="0"/>
        <pt x="1138" y="926" on="1"/>
        <pt x="1138" y="813" on="0"/>
        <pt x="973" y="621" on="0"/>
        <pt x="857" y="580" on="1"/>
        <pt x="1008" y="374" on="1"/>
        <pt x="1142" y="191" on="0"/>
        <pt x="1225" y="145" on="1"/>
        <pt x="1265" y="123" on="0"/>
        <pt x="1314" y="110" on="1"/>
        <pt x="1350" y="100" on="1"/>
        <pt x="1327" y="0" on="1"/>
        <pt x="1253" y="-24" on="0"/>
        <pt x="1158" y="-24" on="1"/>
        <pt x="1016" y="-24" on="0"/>
        <pt x="823" y="128" on="0"/>
        <pt x="748" y="268" on="1"/>
        <pt x="624" y="498" on="1"/>
        <pt x="500" y="498" on="1"/>
        <pt x="500" y="178" on="1"/>
        <pt x="665" y="119" on="1"/>
        <pt x="654" y="0" on="1"/>
      </contour>
      <contour>
        <pt x="502" y="1420" on="1"/>
        <pt x="616" y="1734" on="1"/>
        <pt x="838" y="1706" on="1"/>
        <pt x="656" y="1393" on="1"/>
      </contour>
    </TTGlyph>
    <TTGlyph name="Rcaron" xMin="25" yMin="-24" xMax="1350" yMax="1578">
      <contour>
        <pt x="576" y="1122" on="1"/>
        <pt x="500" y="1119" on="1"/>
        <pt x="500" y="648" on="1"/>
        <pt x="675" y="648" on="1"/>
        <pt x="834" y="717" on="0"/>
        <pt x="834" y="874" on="1"/>
        <pt x="834" y="981" on="0"/>
        <pt x="694" y="1122" on="0"/>
      </contour>
      <contour>
        <pt x="25" y="0" on="1"/>
        <pt x="40" y="106" on="1"/>
        <pt x="218" y="169" on="1"/>
        <pt x="218" y="1048" on="1"/>
        <pt x="37" y="1086" on="1"/>
        <pt x="48" y="1205" on="1"/>
        <pt x="355" y="1254" on="0"/>
        <pt x="862" y="1254" on="0"/>
        <pt x="1138" y="1103" on="0"/>
        <pt x="1138" y="926" on="1"/>
        <pt x="1138" y="813" on="0"/>
        <pt x="973" y="621" on="0"/>
        <pt x="857" y="580" on="1"/>
        <pt x="1008" y="374" on="1"/>
        <pt x="1142" y="191" on="0"/>
        <pt x="1225" y="145" on="1"/>
        <pt x="1265" y="123" on="0"/>
        <pt x="1314" y="110" on="1"/>
        <pt x="1350" y="100" on="1"/>
        <pt x="1327" y="0" on="1"/>
        <pt x="1253" y="-24" on="0"/>
        <pt x="1158" y="-24" on="1"/>
        <pt x="1016" y="-24" on="0"/>
        <pt x="823" y="128" on="0"/>
        <pt x="748" y="268" on="1"/>
        <pt x="624" y="498" on="1"/>
        <pt x="500" y="498" on="1"/>
        <pt x="500" y="178" on="1"/>
        <pt x="665" y="119" on="1"/>
        <pt x="654" y="0" on="1"/>
      </contour>
      <contour>
        <pt x="328" y="1543" on="1"/>
        <pt x="533" y="1578" on="1"/>
        <pt x="622" y="1493" on="1"/>
        <pt x="632" y="1493" on="1"/>
        <pt x="716" y="1574" on="1"/>
        <pt x="859" y="1560" on="1"/>
        <pt x="669" y="1344" on="1"/>
        <pt x="522" y="1323" on="1"/>
      </contour>
    </TTGlyph>
    <TTGlyph name="Rcommaaccent" xMin="25" yMin="-393" xMax="1350" yMax="1254">
      <contour>
        <pt x="576" y="1122" on="1"/>
        <pt x="500" y="1119" on="1"/>
        <pt x="500" y="648" on="1"/>
        <pt x="675" y="648" on="1"/>
        <pt x="834" y="717" on="0"/>
        <pt x="834" y="874" on="1"/>
        <pt x="834" y="981" on="0"/>
        <pt x="694" y="1122" on="0"/>
      </contour>
      <contour>
        <pt x="25" y="0" on="1"/>
        <pt x="40" y="106" on="1"/>
        <pt x="218" y="169" on="1"/>
        <pt x="218" y="1048" on="1"/>
        <pt x="37" y="1086" on="1"/>
        <pt x="48" y="1205" on="1"/>
        <pt x="355" y="1254" on="0"/>
        <pt x="862" y="1254" on="0"/>
        <pt x="1138" y="1103" on="0"/>
        <pt x="1138" y="926" on="1"/>
        <pt x="1138" y="813" on="0"/>
        <pt x="973" y="621" on="0"/>
        <pt x="857" y="580" on="1"/>
        <pt x="1008" y="374" on="1"/>
        <pt x="1142" y="191" on="0"/>
        <pt x="1225" y="145" on="1"/>
        <pt x="1265" y="123" on="0"/>
        <pt x="1314" y="110" on="1"/>
        <pt x="1350" y="100" on="1"/>
        <pt x="1327" y="0" on="1"/>
        <pt x="1253" y="-24" on="0"/>
        <pt x="1158" y="-24" on="1"/>
        <pt x="1016" y="-24" on="0"/>
        <pt x="823" y="128" on="0"/>
        <pt x="748" y="268" on="1"/>
        <pt x="624" y="498" on="1"/>
        <pt x="500" y="498" on="1"/>
        <pt x="500" y="178" on="1"/>
        <pt x="665" y="119" on="1"/>
        <pt x="654" y="0" on="1"/>
      </contour>
      <contour>
        <pt x="594" y="-193" on="1"/>
        <pt x="596" y="-52" on="0"/>
        <pt x="738" y="-52" on="1"/>
        <pt x="815" y="-52" on="0"/>
        <pt x="904" y="-128" on="0"/>
        <pt x="906" y="-197" on="1"/>
        <pt x="909" y="-302" on="0"/>
        <pt x="740" y="-402" on="0"/>
        <pt x="613" y="-393" on="1"/>
        <pt x="594" y="-314" on="1"/>
        <pt x="643" y="-319" on="0"/>
        <pt x="707" y="-284" on="0"/>
        <pt x="707" y="-227" on="0"/>
        <pt x="639" y="-193" on="0"/>
      </contour>
    </TTGlyph>
    <TTGlyph name="S" xMin="33" yMin="-24" xMax="923" yMax="1268">
      <contour>
        <pt x="33" y="124" on="1"/>
        <pt x="56" y="438" on="1"/>
        <pt x="196" y="417" on="1"/>
        <pt x="236" y="230" on="1"/>
        <pt x="266" y="186" on="0"/>
        <pt x="386" y="129" on="0"/>
        <pt x="526" y="129" on="0"/>
        <pt x="634" y="213" on="0"/>
        <pt x="634" y="330" on="0"/>
        <pt x="569" y="406" on="0"/>
        <pt x="466" y="462" on="0"/>
        <pt x="342" y="519" on="0"/>
        <pt x="217" y="589" on="0"/>
        <pt x="166" y="632" on="1"/>
        <pt x="49" y="729" on="0"/>
        <pt x="49" y="886" on="1"/>
        <pt x="49" y="1102" on="0"/>
        <pt x="252" y="1207" on="1"/>
        <pt x="370" y="1268" on="0"/>
        <pt x="514" y="1268" on="1"/>
        <pt x="598" y="1268" on="0"/>
        <pt x="785" y="1214" on="0"/>
        <pt x="832" y="1172" on="1"/>
        <pt x="806" y="850" on="1"/>
        <pt x="670" y="872" on="1"/>
        <pt x="638" y="1038" on="1"/>
        <pt x="614" y="1077" on="0"/>
        <pt x="503" y="1136" on="0"/>
        <pt x="381" y="1136" on="0"/>
        <pt x="302" y="1061" on="0"/>
        <pt x="302" y="943" on="0"/>
        <pt x="370" y="863" on="0"/>
        <pt x="480" y="802" on="0"/>
        <pt x="612" y="742" on="0"/>
        <pt x="745" y="669" on="0"/>
        <pt x="800" y="625" on="1"/>
        <pt x="923" y="527" on="0"/>
        <pt x="923" y="368" on="1"/>
        <pt x="923" y="148" on="0"/>
        <pt x="692" y="36" on="1"/>
        <pt x="566" y="-24" on="0"/>
        <pt x="292" y="-24" on="0"/>
        <pt x="79" y="60" on="0"/>
      </contour>
    </TTGlyph>
    <TTGlyph name="Sacute" xMin="33" yMin="-24" xMax="923" yMax="1734">
      <contour>
        <pt x="33" y="124" on="1"/>
        <pt x="56" y="438" on="1"/>
        <pt x="196" y="417" on="1"/>
        <pt x="236" y="230" on="1"/>
        <pt x="266" y="186" on="0"/>
        <pt x="386" y="129" on="0"/>
        <pt x="526" y="129" on="0"/>
        <pt x="634" y="213" on="0"/>
        <pt x="634" y="330" on="0"/>
        <pt x="569" y="406" on="0"/>
        <pt x="466" y="462" on="0"/>
        <pt x="342" y="519" on="0"/>
        <pt x="217" y="589" on="0"/>
        <pt x="166" y="632" on="1"/>
        <pt x="49" y="729" on="0"/>
        <pt x="49" y="886" on="1"/>
        <pt x="49" y="1102" on="0"/>
        <pt x="252" y="1207" on="1"/>
        <pt x="370" y="1268" on="0"/>
        <pt x="514" y="1268" on="1"/>
        <pt x="598" y="1268" on="0"/>
        <pt x="785" y="1214" on="0"/>
        <pt x="832" y="1172" on="1"/>
        <pt x="806" y="850" on="1"/>
        <pt x="670" y="872" on="1"/>
        <pt x="638" y="1038" on="1"/>
        <pt x="614" y="1077" on="0"/>
        <pt x="503" y="1136" on="0"/>
        <pt x="381" y="1136" on="0"/>
        <pt x="302" y="1061" on="0"/>
        <pt x="302" y="943" on="0"/>
        <pt x="370" y="863" on="0"/>
        <pt x="480" y="802" on="0"/>
        <pt x="612" y="742" on="0"/>
        <pt x="745" y="669" on="0"/>
        <pt x="800" y="625" on="1"/>
        <pt x="923" y="527" on="0"/>
        <pt x="923" y="368" on="1"/>
        <pt x="923" y="148" on="0"/>
        <pt x="692" y="36" on="1"/>
        <pt x="566" y="-24" on="0"/>
        <pt x="292" y="-24" on="0"/>
        <pt x="79" y="60" on="0"/>
      </contour>
      <contour>
        <pt x="422" y="1420" on="1"/>
        <pt x="536" y="1734" on="1"/>
        <pt x="758" y="1706" on="1"/>
        <pt x="576" y="1393" on="1"/>
      </contour>
    </TTGlyph>
    <TTGlyph name="Scaron" xMin="33" yMin="-24" xMax="923" yMax="1578">
      <contour>
        <pt x="33" y="124" on="1"/>
        <pt x="56" y="438" on="1"/>
        <pt x="196" y="417" on="1"/>
        <pt x="236" y="230" on="1"/>
        <pt x="266" y="186" on="0"/>
        <pt x="386" y="129" on="0"/>
        <pt x="526" y="129" on="0"/>
        <pt x="634" y="213" on="0"/>
        <pt x="634" y="330" on="0"/>
        <pt x="569" y="406" on="0"/>
        <pt x="466" y="462" on="0"/>
        <pt x="342" y="519" on="0"/>
        <pt x="217" y="589" on="0"/>
        <pt x="166" y="632" on="1"/>
        <pt x="49" y="729" on="0"/>
        <pt x="49" y="886" on="1"/>
        <pt x="49" y="1102" on="0"/>
        <pt x="252" y="1207" on="1"/>
        <pt x="370" y="1268" on="0"/>
        <pt x="514" y="1268" on="1"/>
        <pt x="598" y="1268" on="0"/>
        <pt x="785" y="1214" on="0"/>
        <pt x="832" y="1172" on="1"/>
        <pt x="806" y="850" on="1"/>
        <pt x="670" y="872" on="1"/>
        <pt x="638" y="1038" on="1"/>
        <pt x="614" y="1077" on="0"/>
        <pt x="503" y="1136" on="0"/>
        <pt x="381" y="1136" on="0"/>
        <pt x="302" y="1061" on="0"/>
        <pt x="302" y="943" on="0"/>
        <pt x="370" y="863" on="0"/>
        <pt x="480" y="802" on="0"/>
        <pt x="612" y="742" on="0"/>
        <pt x="745" y="669" on="0"/>
        <pt x="800" y="625" on="1"/>
        <pt x="923" y="527" on="0"/>
        <pt x="923" y="368" on="1"/>
        <pt x="923" y="148" on="0"/>
        <pt x="692" y="36" on="1"/>
        <pt x="566" y="-24" on="0"/>
        <pt x="292" y="-24" on="0"/>
        <pt x="79" y="60" on="0"/>
      </contour>
      <contour>
        <pt x="248" y="1543" on="1"/>
        <pt x="453" y="1578" on="1"/>
        <pt x="542" y="1493" on="1"/>
        <pt x="552" y="1493" on="1"/>
        <pt x="636" y="1574" on="1"/>
        <pt x="779" y="1560" on="1"/>
        <pt x="589" y="1344" on="1"/>
        <pt x="442" y="1323" on="1"/>
      </contour>
    </TTGlyph>
    <TTGlyph name="Scedilla" xMin="33" yMin="-401" xMax="923" yMax="1268">
      <contour>
        <pt x="382" y="-255" on="1"/>
        <pt x="382" y="-218" on="0"/>
        <pt x="257" y="-154" on="1"/>
        <pt x="422" y="-24" on="1"/>
        <pt x="288" y="-23" on="0"/>
        <pt x="78" y="61" on="0"/>
        <pt x="33" y="124" on="1"/>
        <pt x="56" y="438" on="1"/>
        <pt x="196" y="417" on="1"/>
        <pt x="236" y="230" on="1"/>
        <pt x="266" y="186" on="0"/>
        <pt x="386" y="129" on="0"/>
        <pt x="526" y="129" on="0"/>
        <pt x="634" y="213" on="0"/>
        <pt x="634" y="330" on="0"/>
        <pt x="569" y="406" on="0"/>
        <pt x="466" y="462" on="0"/>
        <pt x="342" y="519" on="0"/>
        <pt x="217" y="589" on="0"/>
        <pt x="166" y="632" on="1"/>
        <pt x="49" y="729" on="0"/>
        <pt x="49" y="886" on="1"/>
        <pt x="49" y="1102" on="0"/>
        <pt x="252" y="1207" on="1"/>
        <pt x="370" y="1268" on="0"/>
        <pt x="514" y="1268" on="1"/>
        <pt x="598" y="1268" on="0"/>
        <pt x="785" y="1214" on="0"/>
        <pt x="832" y="1172" on="1"/>
        <pt x="806" y="850" on="1"/>
        <pt x="670" y="872" on="1"/>
        <pt x="638" y="1038" on="1"/>
        <pt x="614" y="1077" on="0"/>
        <pt x="503" y="1136" on="0"/>
        <pt x="381" y="1136" on="0"/>
        <pt x="302" y="1061" on="0"/>
        <pt x="302" y="943" on="0"/>
        <pt x="370" y="863" on="0"/>
        <pt x="480" y="802" on="0"/>
        <pt x="612" y="742" on="0"/>
        <pt x="745" y="669" on="0"/>
        <pt x="800" y="625" on="1"/>
        <pt x="923" y="527" on="0"/>
        <pt x="923" y="368" on="1"/>
        <pt x="923" y="146" on="0"/>
        <pt x="689" y="35" on="1"/>
        <pt x="626" y="5" on="0"/>
        <pt x="554" y="-10" on="1"/>
        <pt x="468" y="-93" on="1"/>
        <pt x="551" y="-140" on="0"/>
        <pt x="570" y="-181" on="1"/>
        <pt x="580" y="-203" on="0"/>
        <pt x="580" y="-229" on="1"/>
        <pt x="580" y="-304" on="0"/>
        <pt x="424" y="-383" on="0"/>
        <pt x="288" y="-401" on="1"/>
        <pt x="260" y="-317" on="1"/>
        <pt x="308" y="-310" on="0"/>
        <pt x="382" y="-276" on="0"/>
      </contour>
    </TTGlyph>
    <TTGlyph name="Scommaaccent" xMin="33" yMin="-474" xMax="923" yMax="1268">
      <contour>
        <pt x="33" y="124" on="1"/>
        <pt x="56" y="438" on="1"/>
        <pt x="196" y="417" on="1"/>
        <pt x="236" y="230" on="1"/>
        <pt x="266" y="186" on="0"/>
        <pt x="386" y="129" on="0"/>
        <pt x="526" y="129" on="0"/>
        <pt x="634" y="213" on="0"/>
        <pt x="634" y="330" on="0"/>
        <pt x="569" y="406" on="0"/>
        <pt x="466" y="462" on="0"/>
        <pt x="342" y="519" on="0"/>
        <pt x="217" y="589" on="0"/>
        <pt x="166" y="632" on="1"/>
        <pt x="49" y="729" on="0"/>
        <pt x="49" y="886" on="1"/>
        <pt x="49" y="1102" on="0"/>
        <pt x="252" y="1207" on="1"/>
        <pt x="370" y="1268" on="0"/>
        <pt x="514" y="1268" on="1"/>
        <pt x="598" y="1268" on="0"/>
        <pt x="785" y="1214" on="0"/>
        <pt x="832" y="1172" on="1"/>
        <pt x="806" y="850" on="1"/>
        <pt x="670" y="872" on="1"/>
        <pt x="638" y="1038" on="1"/>
        <pt x="614" y="1077" on="0"/>
        <pt x="503" y="1136" on="0"/>
        <pt x="381" y="1136" on="0"/>
        <pt x="302" y="1061" on="0"/>
        <pt x="302" y="943" on="0"/>
        <pt x="370" y="863" on="0"/>
        <pt x="480" y="802" on="0"/>
        <pt x="612" y="742" on="0"/>
        <pt x="745" y="669" on="0"/>
        <pt x="800" y="625" on="1"/>
        <pt x="923" y="527" on="0"/>
        <pt x="923" y="368" on="1"/>
        <pt x="923" y="148" on="0"/>
        <pt x="692" y="36" on="1"/>
        <pt x="566" y="-24" on="0"/>
        <pt x="292" y="-24" on="0"/>
        <pt x="79" y="60" on="0"/>
      </contour>
      <contour>
        <pt x="317" y="-274" on="1"/>
        <pt x="319" y="-133" on="0"/>
        <pt x="461" y="-133" on="1"/>
        <pt x="538" y="-133" on="0"/>
        <pt x="627" y="-209" on="0"/>
        <pt x="629" y="-278" on="1"/>
        <pt x="632" y="-383" on="0"/>
        <pt x="463" y="-483" on="0"/>
        <pt x="336" y="-474" on="1"/>
        <pt x="317" y="-395" on="1"/>
        <pt x="366" y="-400" on="0"/>
        <pt x="430" y="-365" on="0"/>
        <pt x="430" y="-308" on="0"/>
        <pt x="362" y="-274" on="0"/>
      </contour>
    </TTGlyph>
    <TTGlyph name="T" xMin="12" yMin="0" xMax="1199" yMax="1244">
      <contour>
        <pt x="12" y="1244" on="1"/>
        <pt x="1199" y="1244" on="1"/>
        <pt x="1166" y="851" on="1"/>
        <pt x="1027" y="874" on="1"/>
        <pt x="976" y="1112" on="1"/>
        <pt x="732" y="1112" on="1"/>
        <pt x="732" y="161" on="1"/>
        <pt x="925" y="116" on="1"/>
        <pt x="910" y="0" on="1"/>
        <pt x="272" y="0" on="1"/>
        <pt x="282" y="107" on="1"/>
        <pt x="455" y="165" on="1"/>
        <pt x="455" y="1112" on="1"/>
        <pt x="218" y="1112" on="1"/>
        <pt x="148" y="848" on="1"/>
        <pt x="17" y="867" on="1"/>
      </contour>
    </TTGlyph>
    <TTGlyph name="Tbar" xMin="124" yMin="0" xMax="1311" yMax="1244">
      <contour>
        <pt x="124" y="1244" on="1"/>
        <pt x="1311" y="1244" on="1"/>
        <pt x="1278" y="851" on="1"/>
        <pt x="1139" y="874" on="1"/>
        <pt x="1088" y="1112" on="1"/>
        <pt x="844" y="1112" on="1"/>
        <pt x="844" y="729" on="1"/>
        <pt x="1113" y="729" on="1"/>
        <pt x="1113" y="564" on="1"/>
        <pt x="844" y="564" on="1"/>
        <pt x="844" y="161" on="1"/>
        <pt x="1037" y="116" on="1"/>
        <pt x="1022" y="0" on="1"/>
        <pt x="384" y="0" on="1"/>
        <pt x="394" y="107" on="1"/>
        <pt x="567" y="165" on="1"/>
        <pt x="567" y="564" on="1"/>
        <pt x="300" y="564" on="1"/>
        <pt x="300" y="729" on="1"/>
        <pt x="567" y="729" on="1"/>
        <pt x="567" y="1112" on="1"/>
        <pt x="330" y="1112" on="1"/>
        <pt x="260" y="848" on="1"/>
        <pt x="129" y="867" on="1"/>
      </contour>
    </TTGlyph>
    <TTGlyph name="Tcaron" xMin="12" yMin="0" xMax="1199" yMax="1578">
      <contour>
        <pt x="12" y="1244" on="1"/>
        <pt x="1199" y="1244" on="1"/>
        <pt x="1166" y="851" on="1"/>
        <pt x="1027" y="874" on="1"/>
        <pt x="976" y="1112" on="1"/>
        <pt x="732" y="1112" on="1"/>
        <pt x="732" y="161" on="1"/>
        <pt x="925" y="116" on="1"/>
        <pt x="910" y="0" on="1"/>
        <pt x="272" y="0" on="1"/>
        <pt x="282" y="107" on="1"/>
        <pt x="455" y="165" on="1"/>
        <pt x="455" y="1112" on="1"/>
        <pt x="218" y="1112" on="1"/>
        <pt x="148" y="848" on="1"/>
        <pt x="17" y="867" on="1"/>
      </contour>
      <contour>
        <pt x="339" y="1543" on="1"/>
        <pt x="544" y="1578" on="1"/>
        <pt x="633" y="1493" on="1"/>
        <pt x="643" y="1493" on="1"/>
        <pt x="727" y="1574" on="1"/>
        <pt x="870" y="1560" on="1"/>
        <pt x="680" y="1344" on="1"/>
        <pt x="533" y="1323" on="1"/>
      </contour>
    </TTGlyph>
    <TTGlyph name="Tcommaaccent" xMin="12" yMin="-378" xMax="1199" yMax="1244">
      <contour>
        <pt x="536" y="-232" on="1"/>
        <pt x="536" y="-195" on="0"/>
        <pt x="411" y="-131" on="1"/>
        <pt x="577" y="0" on="1"/>
        <pt x="272" y="0" on="1"/>
        <pt x="282" y="107" on="1"/>
        <pt x="455" y="165" on="1"/>
        <pt x="455" y="1112" on="1"/>
        <pt x="218" y="1112" on="1"/>
        <pt x="148" y="848" on="1"/>
        <pt x="17" y="867" on="1"/>
        <pt x="12" y="1244" on="1"/>
        <pt x="1199" y="1244" on="1"/>
        <pt x="1166" y="851" on="1"/>
        <pt x="1027" y="874" on="1"/>
        <pt x="976" y="1112" on="1"/>
        <pt x="732" y="1112" on="1"/>
        <pt x="732" y="161" on="1"/>
        <pt x="925" y="116" on="1"/>
        <pt x="910" y="0" on="1"/>
        <pt x="695" y="0" on="1"/>
        <pt x="622" y="-70" on="1"/>
        <pt x="705" y="-117" on="0"/>
        <pt x="724" y="-158" on="1"/>
        <pt x="734" y="-180" on="0"/>
        <pt x="734" y="-206" on="1"/>
        <pt x="734" y="-281" on="0"/>
        <pt x="578" y="-360" on="0"/>
        <pt x="442" y="-378" on="1"/>
        <pt x="414" y="-294" on="1"/>
        <pt x="462" y="-287" on="0"/>
        <pt x="536" y="-253" on="0"/>
      </contour>
    </TTGlyph>
    <TTGlyph name="Thorn" xMin="25" yMin="0" xMax="1117" yMax="1244">
      <contour>
        <pt x="25" y="1131" on="1"/>
        <pt x="40" y="1244" on="1"/>
        <pt x="676" y="1244" on="1"/>
        <pt x="662" y="1126" on="1"/>
        <pt x="488" y="1074" on="1"/>
        <pt x="488" y="1001" on="1"/>
        <pt x="558" y="1008" on="0"/>
        <pt x="701" y="1008" on="0"/>
        <pt x="845" y="991" on="0"/>
        <pt x="978" y="944" on="0"/>
        <pt x="1022" y="904" on="1"/>
        <pt x="1117" y="818" on="0"/>
        <pt x="1117" y="475" on="0"/>
        <pt x="851" y="251" on="0"/>
        <pt x="646" y="251" on="1"/>
        <pt x="590" y="251" on="0"/>
        <pt x="548" y="256" on="1"/>
        <pt x="523" y="386" on="1"/>
        <pt x="675" y="381" on="0"/>
        <pt x="828" y="489" on="0"/>
        <pt x="828" y="724" on="0"/>
        <pt x="702" y="858" on="0"/>
        <pt x="575" y="858" on="1"/>
        <pt x="530" y="858" on="0"/>
        <pt x="488" y="851" on="1"/>
        <pt x="488" y="172" on="1"/>
        <pt x="696" y="122" on="1"/>
        <pt x="683" y="0" on="1"/>
        <pt x="28" y="0" on="1"/>
        <pt x="38" y="108" on="1"/>
        <pt x="210" y="170" on="1"/>
        <pt x="210" y="1073" on="1"/>
      </contour>
    </TTGlyph>
    <TTGlyph name="U" xMin="11" yMin="-27" xMax="1462" yMax="1244">
      <contour>
        <pt x="11" y="1131" on="1"/>
        <pt x="32" y="1244" on="1"/>
        <pt x="663" y="1244" on="1"/>
        <pt x="648" y="1131" on="1"/>
        <pt x="480" y="1078" on="1"/>
        <pt x="480" y="526" on="1"/>
        <pt x="480" y="344" on="0"/>
        <pt x="652" y="169" on="0"/>
        <pt x="940" y="169" on="0"/>
        <pt x="1094" y="337" on="0"/>
        <pt x="1094" y="510" on="1"/>
        <pt x="1095" y="1073" on="1"/>
        <pt x="916" y="1131" on="1"/>
        <pt x="930" y="1244" on="1"/>
        <pt x="1462" y="1244" on="1"/>
        <pt x="1448" y="1131" on="1"/>
        <pt x="1282" y="1078" on="1"/>
        <pt x="1278" y="540" on="1"/>
        <pt x="1275" y="252" on="0"/>
        <pt x="1007" y="-27" on="0"/>
        <pt x="737" y="-27" on="1"/>
        <pt x="541" y="-27" on="0"/>
        <pt x="427" y="28" on="1"/>
        <pt x="198" y="137" on="0"/>
        <pt x="198" y="476" on="1"/>
        <pt x="198" y="1073" on="1"/>
      </contour>
    </TTGlyph>
    <TTGlyph name="Uacute" xMin="11" yMin="-27" xMax="1462" yMax="1734">
      <contour>
        <pt x="11" y="1131" on="1"/>
        <pt x="32" y="1244" on="1"/>
        <pt x="663" y="1244" on="1"/>
        <pt x="648" y="1131" on="1"/>
        <pt x="480" y="1078" on="1"/>
        <pt x="480" y="526" on="1"/>
        <pt x="480" y="344" on="0"/>
        <pt x="652" y="169" on="0"/>
        <pt x="940" y="169" on="0"/>
        <pt x="1094" y="337" on="0"/>
        <pt x="1094" y="510" on="1"/>
        <pt x="1095" y="1073" on="1"/>
        <pt x="916" y="1131" on="1"/>
        <pt x="930" y="1244" on="1"/>
        <pt x="1462" y="1244" on="1"/>
        <pt x="1448" y="1131" on="1"/>
        <pt x="1282" y="1078" on="1"/>
        <pt x="1278" y="540" on="1"/>
        <pt x="1275" y="252" on="0"/>
        <pt x="1007" y="-27" on="0"/>
        <pt x="737" y="-27" on="1"/>
        <pt x="541" y="-27" on="0"/>
        <pt x="427" y="28" on="1"/>
        <pt x="198" y="137" on="0"/>
        <pt x="198" y="476" on="1"/>
        <pt x="198" y="1073" on="1"/>
      </contour>
      <contour>
        <pt x="655" y="1420" on="1"/>
        <pt x="769" y="1734" on="1"/>
        <pt x="991" y="1706" on="1"/>
        <pt x="809" y="1393" on="1"/>
      </contour>
    </TTGlyph>
    <TTGlyph name="Ucircumflex" xMin="11" yMin="-27" xMax="1462" yMax="1600">
      <contour>
        <pt x="11" y="1131" on="1"/>
        <pt x="32" y="1244" on="1"/>
        <pt x="663" y="1244" on="1"/>
        <pt x="648" y="1131" on="1"/>
        <pt x="480" y="1078" on="1"/>
        <pt x="480" y="526" on="1"/>
        <pt x="480" y="344" on="0"/>
        <pt x="652" y="169" on="0"/>
        <pt x="940" y="169" on="0"/>
        <pt x="1094" y="337" on="0"/>
        <pt x="1094" y="510" on="1"/>
        <pt x="1095" y="1073" on="1"/>
        <pt x="916" y="1131" on="1"/>
        <pt x="930" y="1244" on="1"/>
        <pt x="1462" y="1244" on="1"/>
        <pt x="1448" y="1131" on="1"/>
        <pt x="1282" y="1078" on="1"/>
        <pt x="1278" y="540" on="1"/>
        <pt x="1275" y="252" on="0"/>
        <pt x="1007" y="-27" on="0"/>
        <pt x="737" y="-27" on="1"/>
        <pt x="541" y="-27" on="0"/>
        <pt x="427" y="28" on="1"/>
        <pt x="198" y="137" on="0"/>
        <pt x="198" y="476" on="1"/>
        <pt x="198" y="1073" on="1"/>
      </contour>
      <contour>
        <pt x="1051" y="1380" on="1"/>
        <pt x="882" y="1345" on="1"/>
        <pt x="778" y="1430" on="1"/>
        <pt x="768" y="1430" on="1"/>
        <pt x="681" y="1339" on="1"/>
        <pt x="520" y="1363" on="1"/>
        <pt x="684" y="1579" on="1"/>
        <pt x="871" y="1600" on="1"/>
      </contour>
    </TTGlyph>
    <TTGlyph name="Udieresis" xMin="11" yMin="-27" xMax="1462" yMax="1581">
      <contour>
        <pt x="11" y="1131" on="1"/>
        <pt x="32" y="1244" on="1"/>
        <pt x="663" y="1244" on="1"/>
        <pt x="648" y="1131" on="1"/>
        <pt x="480" y="1078" on="1"/>
        <pt x="480" y="526" on="1"/>
        <pt x="480" y="344" on="0"/>
        <pt x="652" y="169" on="0"/>
        <pt x="940" y="169" on="0"/>
        <pt x="1094" y="337" on="0"/>
        <pt x="1094" y="510" on="1"/>
        <pt x="1095" y="1073" on="1"/>
        <pt x="916" y="1131" on="1"/>
        <pt x="930" y="1244" on="1"/>
        <pt x="1462" y="1244" on="1"/>
        <pt x="1448" y="1131" on="1"/>
        <pt x="1282" y="1078" on="1"/>
        <pt x="1278" y="540" on="1"/>
        <pt x="1275" y="252" on="0"/>
        <pt x="1007" y="-27" on="0"/>
        <pt x="737" y="-27" on="1"/>
        <pt x="541" y="-27" on="0"/>
        <pt x="427" y="28" on="1"/>
        <pt x="198" y="137" on="0"/>
        <pt x="198" y="476" on="1"/>
        <pt x="198" y="1073" on="1"/>
      </contour>
      <contour>
        <pt x="535" y="1392" on="0"/>
        <pt x="482" y="1448" on="0"/>
        <pt x="482" y="1526" on="0"/>
        <pt x="537" y="1581" on="0"/>
        <pt x="645" y="1581" on="0"/>
        <pt x="702" y="1527" on="0"/>
        <pt x="702" y="1447" on="0"/>
        <pt x="645" y="1392" on="0"/>
      </contour>
      <contour>
        <pt x="844" y="1392" on="0"/>
        <pt x="791" y="1448" on="0"/>
        <pt x="791" y="1526" on="0"/>
        <pt x="846" y="1581" on="0"/>
        <pt x="954" y="1581" on="0"/>
        <pt x="1011" y="1527" on="0"/>
        <pt x="1011" y="1447" on="0"/>
        <pt x="954" y="1392" on="0"/>
      </contour>
    </TTGlyph>
    <TTGlyph name="Ugrave" xMin="11" yMin="-27" xMax="1462" yMax="1766">
      <contour>
        <pt x="11" y="1131" on="1"/>
        <pt x="32" y="1244" on="1"/>
        <pt x="663" y="1244" on="1"/>
        <pt x="648" y="1131" on="1"/>
        <pt x="480" y="1078" on="1"/>
        <pt x="480" y="526" on="1"/>
        <pt x="480" y="344" on="0"/>
        <pt x="652" y="169" on="0"/>
        <pt x="940" y="169" on="0"/>
        <pt x="1094" y="337" on="0"/>
        <pt x="1094" y="510" on="1"/>
        <pt x="1095" y="1073" on="1"/>
        <pt x="916" y="1131" on="1"/>
        <pt x="930" y="1244" on="1"/>
        <pt x="1462" y="1244" on="1"/>
        <pt x="1448" y="1131" on="1"/>
        <pt x="1282" y="1078" on="1"/>
        <pt x="1278" y="540" on="1"/>
        <pt x="1275" y="252" on="0"/>
        <pt x="1007" y="-27" on="0"/>
        <pt x="737" y="-27" on="1"/>
        <pt x="541" y="-27" on="0"/>
        <pt x="427" y="28" on="1"/>
        <pt x="198" y="137" on="0"/>
        <pt x="198" y="476" on="1"/>
        <pt x="198" y="1073" on="1"/>
      </contour>
      <contour>
        <pt x="507" y="1728" on="1"/>
        <pt x="724" y="1766" on="1"/>
        <pt x="864" y="1426" on="1"/>
        <pt x="707" y="1393" on="1"/>
      </contour>
    </TTGlyph>
    <TTGlyph name="Uhungarumlaut" xMin="11" yMin="-27" xMax="1462" yMax="1659">
      <contour>
        <pt x="11" y="1131" on="1"/>
        <pt x="32" y="1244" on="1"/>
        <pt x="663" y="1244" on="1"/>
        <pt x="648" y="1131" on="1"/>
        <pt x="480" y="1078" on="1"/>
        <pt x="480" y="526" on="1"/>
        <pt x="480" y="344" on="0"/>
        <pt x="652" y="169" on="0"/>
        <pt x="940" y="169" on="0"/>
        <pt x="1094" y="337" on="0"/>
        <pt x="1094" y="510" on="1"/>
        <pt x="1095" y="1073" on="1"/>
        <pt x="916" y="1131" on="1"/>
        <pt x="930" y="1244" on="1"/>
        <pt x="1462" y="1244" on="1"/>
        <pt x="1448" y="1131" on="1"/>
        <pt x="1282" y="1078" on="1"/>
        <pt x="1278" y="540" on="1"/>
        <pt x="1275" y="252" on="0"/>
        <pt x="1007" y="-27" on="0"/>
        <pt x="737" y="-27" on="1"/>
        <pt x="541" y="-27" on="0"/>
        <pt x="427" y="28" on="1"/>
        <pt x="198" y="137" on="0"/>
        <pt x="198" y="476" on="1"/>
        <pt x="198" y="1073" on="1"/>
      </contour>
      <contour>
        <pt x="777" y="1428" on="1"/>
        <pt x="1029" y="1654" on="1"/>
        <pt x="1220" y="1618" on="1"/>
        <pt x="918" y="1403" on="1"/>
      </contour>
      <contour>
        <pt x="512" y="1428" on="1"/>
        <pt x="779" y="1659" on="1"/>
        <pt x="968" y="1624" on="1"/>
        <pt x="656" y="1403" on="1"/>
      </contour>
    </TTGlyph>
    <TTGlyph name="Umacron" xMin="11" yMin="-27" xMax="1462" yMax="1540">
      <contour>
        <pt x="11" y="1131" on="1"/>
        <pt x="32" y="1244" on="1"/>
        <pt x="663" y="1244" on="1"/>
        <pt x="648" y="1131" on="1"/>
        <pt x="480" y="1078" on="1"/>
        <pt x="480" y="526" on="1"/>
        <pt x="480" y="344" on="0"/>
        <pt x="652" y="169" on="0"/>
        <pt x="940" y="169" on="0"/>
        <pt x="1094" y="337" on="0"/>
        <pt x="1094" y="510" on="1"/>
        <pt x="1095" y="1073" on="1"/>
        <pt x="916" y="1131" on="1"/>
        <pt x="930" y="1244" on="1"/>
        <pt x="1462" y="1244" on="1"/>
        <pt x="1448" y="1131" on="1"/>
        <pt x="1282" y="1078" on="1"/>
        <pt x="1278" y="540" on="1"/>
        <pt x="1275" y="252" on="0"/>
        <pt x="1007" y="-27" on="0"/>
        <pt x="737" y="-27" on="1"/>
        <pt x="541" y="-27" on="0"/>
        <pt x="427" y="28" on="1"/>
        <pt x="198" y="137" on="0"/>
        <pt x="198" y="476" on="1"/>
        <pt x="198" y="1073" on="1"/>
      </contour>
      <contour>
        <pt x="515" y="1393" on="1"/>
        <pt x="532" y="1540" on="1"/>
        <pt x="979" y="1540" on="1"/>
        <pt x="962" y="1393" on="1"/>
      </contour>
    </TTGlyph>
    <TTGlyph name="Uogonek" xMin="11" yMin="-407" xMax="1462" yMax="1244">
      <contour>
        <pt x="11" y="1131" on="1"/>
        <pt x="32" y="1244" on="1"/>
        <pt x="663" y="1244" on="1"/>
        <pt x="648" y="1131" on="1"/>
        <pt x="480" y="1078" on="1"/>
        <pt x="480" y="526" on="1"/>
        <pt x="480" y="344" on="0"/>
        <pt x="652" y="169" on="0"/>
        <pt x="940" y="169" on="0"/>
        <pt x="1094" y="337" on="0"/>
        <pt x="1094" y="510" on="1"/>
        <pt x="1095" y="1073" on="1"/>
        <pt x="916" y="1131" on="1"/>
        <pt x="930" y="1244" on="1"/>
        <pt x="1462" y="1244" on="1"/>
        <pt x="1448" y="1131" on="1"/>
        <pt x="1282" y="1078" on="1"/>
        <pt x="1278" y="540" on="1"/>
        <pt x="1275" y="263" on="0"/>
        <pt x="1028" y="-15" on="0"/>
        <pt x="779" y="-26" on="1"/>
        <pt x="734" y="-125" on="0"/>
        <pt x="763" y="-273" on="0"/>
        <pt x="849" y="-335" on="1"/>
        <pt x="820" y="-407" on="1"/>
        <pt x="702" y="-398" on="0"/>
        <pt x="542" y="-298" on="0"/>
        <pt x="542" y="-171" on="0"/>
        <pt x="599" y="-85" on="0"/>
        <pt x="675" y="-26" on="1"/>
        <pt x="360" y="-14" on="0"/>
        <pt x="254" y="196" on="1"/>
        <pt x="198" y="306" on="0"/>
        <pt x="198" y="476" on="1"/>
        <pt x="198" y="1073" on="1"/>
      </contour>
    </TTGlyph>
    <TTGlyph name="Uring" xMin="11" yMin="-27" xMax="1462" yMax="1762">
      <contour>
        <pt x="11" y="1131" on="1"/>
        <pt x="32" y="1244" on="1"/>
        <pt x="663" y="1244" on="1"/>
        <pt x="648" y="1131" on="1"/>
        <pt x="480" y="1078" on="1"/>
        <pt x="480" y="526" on="1"/>
        <pt x="480" y="344" on="0"/>
        <pt x="652" y="169" on="0"/>
        <pt x="940" y="169" on="0"/>
        <pt x="1094" y="337" on="0"/>
        <pt x="1094" y="510" on="1"/>
        <pt x="1095" y="1073" on="1"/>
        <pt x="916" y="1131" on="1"/>
        <pt x="930" y="1244" on="1"/>
        <pt x="1462" y="1244" on="1"/>
        <pt x="1448" y="1131" on="1"/>
        <pt x="1282" y="1078" on="1"/>
        <pt x="1278" y="540" on="1"/>
        <pt x="1275" y="252" on="0"/>
        <pt x="1007" y="-27" on="0"/>
        <pt x="737" y="-27" on="1"/>
        <pt x="541" y="-27" on="0"/>
        <pt x="427" y="28" on="1"/>
        <pt x="198" y="137" on="0"/>
        <pt x="198" y="476" on="1"/>
        <pt x="198" y="1073" on="1"/>
      </contour>
      <contour>
        <pt x="706" y="1624" on="0"/>
        <pt x="706" y="1586" on="0"/>
        <pt x="715" y="1563" on="0"/>
        <pt x="724" y="1559" on="1"/>
        <pt x="739" y="1553" on="0"/>
        <pt x="756" y="1553" on="1"/>
        <pt x="804" y="1556" on="0"/>
        <pt x="806" y="1605" on="1"/>
        <pt x="806" y="1654" on="0"/>
        <pt x="750" y="1654" on="1"/>
        <pt x="729" y="1654" on="0"/>
      </contour>
      <contour>
        <pt x="761" y="1762" on="1"/>
        <pt x="976" y="1762" on="0"/>
        <pt x="976" y="1607" on="1"/>
        <pt x="976" y="1536" on="0"/>
        <pt x="860" y="1445" on="0"/>
        <pt x="748" y="1445" on="1"/>
        <pt x="540" y="1445" on="0"/>
        <pt x="540" y="1598" on="1"/>
        <pt x="540" y="1670" on="0"/>
        <pt x="656" y="1762" on="0"/>
      </contour>
    </TTGlyph>
    <TTGlyph name="V" xMin="-10" yMin="-24" xMax="1365" yMax="1244">
      <contour>
        <pt x="-10" y="1128" on="1"/>
        <pt x="4" y="1244" on="1"/>
        <pt x="652" y="1244" on="1"/>
        <pt x="635" y="1128" on="1"/>
        <pt x="469" y="1078" on="1"/>
        <pt x="743" y="336" on="1"/>
        <pt x="1012" y="1076" on="1"/>
        <pt x="834" y="1128" on="1"/>
        <pt x="845" y="1244" on="1"/>
        <pt x="1365" y="1244" on="1"/>
        <pt x="1354" y="1128" on="1"/>
        <pt x="1221" y="1078" on="1"/>
        <pt x="812" y="20" on="1"/>
        <pt x="559" y="-24" on="1"/>
        <pt x="136" y="1076" on="1"/>
      </contour>
    </TTGlyph>
    <TTGlyph name="W" xMin="-6" yMin="-24" xMax="1927" yMax="1244">
      <contour>
        <pt x="-6" y="1128" on="1"/>
        <pt x="4" y="1244" on="1"/>
        <pt x="639" y="1244" on="1"/>
        <pt x="614" y="1124" on="1"/>
        <pt x="454" y="1078" on="1"/>
        <pt x="652" y="378" on="1"/>
        <pt x="880" y="1197" on="1"/>
        <pt x="1137" y="1230" on="1"/>
        <pt x="1364" y="394" on="1"/>
        <pt x="1571" y="1078" on="1"/>
        <pt x="1397" y="1126" on="1"/>
        <pt x="1413" y="1244" on="1"/>
        <pt x="1927" y="1244" on="1"/>
        <pt x="1909" y="1128" on="1"/>
        <pt x="1782" y="1082" on="1"/>
        <pt x="1432" y="21" on="1"/>
        <pt x="1188" y="-24" on="1"/>
        <pt x="954" y="836" on="1"/>
        <pt x="722" y="21" on="1"/>
        <pt x="468" y="-24" on="1"/>
        <pt x="152" y="1074" on="1"/>
      </contour>
    </TTGlyph>
    <TTGlyph name="Wacute" xMin="-6" yMin="-24" xMax="1927" yMax="1734">
      <contour>
        <pt x="-6" y="1128" on="1"/>
        <pt x="4" y="1244" on="1"/>
        <pt x="639" y="1244" on="1"/>
        <pt x="614" y="1124" on="1"/>
        <pt x="454" y="1078" on="1"/>
        <pt x="652" y="378" on="1"/>
        <pt x="880" y="1197" on="1"/>
        <pt x="1137" y="1230" on="1"/>
        <pt x="1364" y="394" on="1"/>
        <pt x="1571" y="1078" on="1"/>
        <pt x="1397" y="1126" on="1"/>
        <pt x="1413" y="1244" on="1"/>
        <pt x="1927" y="1244" on="1"/>
        <pt x="1909" y="1128" on="1"/>
        <pt x="1782" y="1082" on="1"/>
        <pt x="1432" y="21" on="1"/>
        <pt x="1188" y="-24" on="1"/>
        <pt x="954" y="836" on="1"/>
        <pt x="722" y="21" on="1"/>
        <pt x="468" y="-24" on="1"/>
        <pt x="152" y="1074" on="1"/>
      </contour>
      <contour>
        <pt x="874" y="1420" on="1"/>
        <pt x="988" y="1734" on="1"/>
        <pt x="1210" y="1706" on="1"/>
        <pt x="1028" y="1393" on="1"/>
      </contour>
    </TTGlyph>
    <TTGlyph name="Wcircumflex" xMin="-6" yMin="-24" xMax="1927" yMax="1600">
      <contour>
        <pt x="-6" y="1128" on="1"/>
        <pt x="4" y="1244" on="1"/>
        <pt x="639" y="1244" on="1"/>
        <pt x="614" y="1124" on="1"/>
        <pt x="454" y="1078" on="1"/>
        <pt x="652" y="378" on="1"/>
        <pt x="880" y="1197" on="1"/>
        <pt x="1137" y="1230" on="1"/>
        <pt x="1364" y="394" on="1"/>
        <pt x="1571" y="1078" on="1"/>
        <pt x="1397" y="1126" on="1"/>
        <pt x="1413" y="1244" on="1"/>
        <pt x="1927" y="1244" on="1"/>
        <pt x="1909" y="1128" on="1"/>
        <pt x="1782" y="1082" on="1"/>
        <pt x="1432" y="21" on="1"/>
        <pt x="1188" y="-24" on="1"/>
        <pt x="954" y="836" on="1"/>
        <pt x="722" y="21" on="1"/>
        <pt x="468" y="-24" on="1"/>
        <pt x="152" y="1074" on="1"/>
      </contour>
      <contour>
        <pt x="1270" y="1380" on="1"/>
        <pt x="1101" y="1345" on="1"/>
        <pt x="997" y="1430" on="1"/>
        <pt x="987" y="1430" on="1"/>
        <pt x="900" y="1339" on="1"/>
        <pt x="739" y="1363" on="1"/>
        <pt x="903" y="1579" on="1"/>
        <pt x="1090" y="1600" on="1"/>
      </contour>
    </TTGlyph>
    <TTGlyph name="Wdieresis" xMin="-6" yMin="-24" xMax="1927" yMax="1581">
      <contour>
        <pt x="-6" y="1128" on="1"/>
        <pt x="4" y="1244" on="1"/>
        <pt x="639" y="1244" on="1"/>
        <pt x="614" y="1124" on="1"/>
        <pt x="454" y="1078" on="1"/>
        <pt x="652" y="378" on="1"/>
        <pt x="880" y="1197" on="1"/>
        <pt x="1137" y="1230" on="1"/>
        <pt x="1364" y="394" on="1"/>
        <pt x="1571" y="1078" on="1"/>
        <pt x="1397" y="1126" on="1"/>
        <pt x="1413" y="1244" on="1"/>
        <pt x="1927" y="1244" on="1"/>
        <pt x="1909" y="1128" on="1"/>
        <pt x="1782" y="1082" on="1"/>
        <pt x="1432" y="21" on="1"/>
        <pt x="1188" y="-24" on="1"/>
        <pt x="954" y="836" on="1"/>
        <pt x="722" y="21" on="1"/>
        <pt x="468" y="-24" on="1"/>
        <pt x="152" y="1074" on="1"/>
      </contour>
      <contour>
        <pt x="800" y="1392" on="0"/>
        <pt x="747" y="1448" on="0"/>
        <pt x="747" y="1526" on="0"/>
        <pt x="802" y="1581" on="0"/>
        <pt x="910" y="1581" on="0"/>
        <pt x="967" y="1527" on="0"/>
        <pt x="967" y="1447" on="0"/>
        <pt x="910" y="1392" on="0"/>
      </contour>
      <contour>
        <pt x="1109" y="1392" on="0"/>
        <pt x="1056" y="1448" on="0"/>
        <pt x="1056" y="1526" on="0"/>
        <pt x="1111" y="1581" on="0"/>
        <pt x="1219" y="1581" on="0"/>
        <pt x="1276" y="1527" on="0"/>
        <pt x="1276" y="1447" on="0"/>
        <pt x="1219" y="1392" on="0"/>
      </contour>
    </TTGlyph>
    <TTGlyph name="Wgrave" xMin="-6" yMin="-24" xMax="1927" yMax="1766">
      <contour>
        <pt x="-6" y="1128" on="1"/>
        <pt x="4" y="1244" on="1"/>
        <pt x="639" y="1244" on="1"/>
        <pt x="614" y="1124" on="1"/>
        <pt x="454" y="1078" on="1"/>
        <pt x="652" y="378" on="1"/>
        <pt x="880" y="1197" on="1"/>
        <pt x="1137" y="1230" on="1"/>
        <pt x="1364" y="394" on="1"/>
        <pt x="1571" y="1078" on="1"/>
        <pt x="1397" y="1126" on="1"/>
        <pt x="1413" y="1244" on="1"/>
        <pt x="1927" y="1244" on="1"/>
        <pt x="1909" y="1128" on="1"/>
        <pt x="1782" y="1082" on="1"/>
        <pt x="1432" y="21" on="1"/>
        <pt x="1188" y="-24" on="1"/>
        <pt x="954" y="836" on="1"/>
        <pt x="722" y="21" on="1"/>
        <pt x="468" y="-24" on="1"/>
        <pt x="152" y="1074" on="1"/>
      </contour>
      <contour>
        <pt x="726" y="1728" on="1"/>
        <pt x="943" y="1766" on="1"/>
        <pt x="1083" y="1426" on="1"/>
        <pt x="926" y="1393" on="1"/>
      </contour>
    </TTGlyph>
    <TTGlyph name="X" xMin="0" yMin="0" xMax="1264" yMax="1244">
      <contour>
        <pt x="0" y="0" on="1"/>
        <pt x="18" y="116" on="1"/>
        <pt x="146" y="177" on="1"/>
        <pt x="492" y="602" on="1"/>
        <pt x="152" y="1068" on="1"/>
        <pt x="20" y="1116" on="1"/>
        <pt x="40" y="1244" on="1"/>
        <pt x="620" y="1244" on="1"/>
        <pt x="601" y="1121" on="1"/>
        <pt x="477" y="1066" on="1"/>
        <pt x="681" y="769" on="1"/>
        <pt x="896" y="1070" on="1"/>
        <pt x="754" y="1125" on="1"/>
        <pt x="774" y="1244" on="1"/>
        <pt x="1245" y="1244" on="1"/>
        <pt x="1229" y="1128" on="1"/>
        <pt x="1100" y="1072" on="1"/>
        <pt x="779" y="650" on="1"/>
        <pt x="1146" y="170" on="1"/>
        <pt x="1264" y="130" on="1"/>
        <pt x="1245" y="0" on="1"/>
        <pt x="672" y="0" on="1"/>
        <pt x="692" y="120" on="1"/>
        <pt x="818" y="176" on="1"/>
        <pt x="595" y="486" on="1"/>
        <pt x="368" y="174" on="1"/>
        <pt x="522" y="125" on="1"/>
        <pt x="500" y="0" on="1"/>
      </contour>
    </TTGlyph>
    <TTGlyph name="Y" xMin="-10" yMin="0" xMax="1216" yMax="1244">
      <contour>
        <pt x="-10" y="1128" on="1"/>
        <pt x="12" y="1244" on="1"/>
        <pt x="596" y="1244" on="1"/>
        <pt x="576" y="1128" on="1"/>
        <pt x="460" y="1079" on="1"/>
        <pt x="673" y="690" on="1"/>
        <pt x="880" y="1076" on="1"/>
        <pt x="740" y="1128" on="1"/>
        <pt x="756" y="1244" on="1"/>
        <pt x="1216" y="1244" on="1"/>
        <pt x="1198" y="1128" on="1"/>
        <pt x="1079" y="1078" on="1"/>
        <pt x="748" y="514" on="1"/>
        <pt x="748" y="168" on="1"/>
        <pt x="914" y="110" on="1"/>
        <pt x="902" y="0" on="1"/>
        <pt x="298" y="0" on="1"/>
        <pt x="312" y="106" on="1"/>
        <pt x="466" y="169" on="1"/>
        <pt x="466" y="494" on="1"/>
        <pt x="126" y="1076" on="1"/>
      </contour>
    </TTGlyph>
    <TTGlyph name="Yacute" xMin="-10" yMin="0" xMax="1216" yMax="1734">
      <contour>
        <pt x="-10" y="1128" on="1"/>
        <pt x="12" y="1244" on="1"/>
        <pt x="596" y="1244" on="1"/>
        <pt x="576" y="1128" on="1"/>
        <pt x="460" y="1079" on="1"/>
        <pt x="673" y="690" on="1"/>
        <pt x="880" y="1076" on="1"/>
        <pt x="740" y="1128" on="1"/>
        <pt x="756" y="1244" on="1"/>
        <pt x="1216" y="1244" on="1"/>
        <pt x="1198" y="1128" on="1"/>
        <pt x="1079" y="1078" on="1"/>
        <pt x="748" y="514" on="1"/>
        <pt x="748" y="168" on="1"/>
        <pt x="914" y="110" on="1"/>
        <pt x="902" y="0" on="1"/>
        <pt x="298" y="0" on="1"/>
        <pt x="312" y="106" on="1"/>
        <pt x="466" y="169" on="1"/>
        <pt x="466" y="494" on="1"/>
        <pt x="126" y="1076" on="1"/>
      </contour>
      <contour>
        <pt x="502" y="1420" on="1"/>
        <pt x="616" y="1734" on="1"/>
        <pt x="838" y="1706" on="1"/>
        <pt x="656" y="1393" on="1"/>
      </contour>
    </TTGlyph>
    <TTGlyph name="Ycircumflex" xMin="-10" yMin="0" xMax="1216" yMax="1600">
      <contour>
        <pt x="-10" y="1128" on="1"/>
        <pt x="12" y="1244" on="1"/>
        <pt x="596" y="1244" on="1"/>
        <pt x="576" y="1128" on="1"/>
        <pt x="460" y="1079" on="1"/>
        <pt x="673" y="690" on="1"/>
        <pt x="880" y="1076" on="1"/>
        <pt x="740" y="1128" on="1"/>
        <pt x="756" y="1244" on="1"/>
        <pt x="1216" y="1244" on="1"/>
        <pt x="1198" y="1128" on="1"/>
        <pt x="1079" y="1078" on="1"/>
        <pt x="748" y="514" on="1"/>
        <pt x="748" y="168" on="1"/>
        <pt x="914" y="110" on="1"/>
        <pt x="902" y="0" on="1"/>
        <pt x="298" y="0" on="1"/>
        <pt x="312" y="106" on="1"/>
        <pt x="466" y="169" on="1"/>
        <pt x="466" y="494" on="1"/>
        <pt x="126" y="1076" on="1"/>
      </contour>
      <contour>
        <pt x="919" y="1380" on="1"/>
        <pt x="750" y="1345" on="1"/>
        <pt x="646" y="1430" on="1"/>
        <pt x="636" y="1430" on="1"/>
        <pt x="549" y="1339" on="1"/>
        <pt x="388" y="1363" on="1"/>
        <pt x="552" y="1579" on="1"/>
        <pt x="739" y="1600" on="1"/>
      </contour>
    </TTGlyph>
    <TTGlyph name="Ydieresis" xMin="-10" yMin="0" xMax="1216" yMax="1581">
      <contour>
        <pt x="-10" y="1128" on="1"/>
        <pt x="12" y="1244" on="1"/>
        <pt x="596" y="1244" on="1"/>
        <pt x="576" y="1128" on="1"/>
        <pt x="460" y="1079" on="1"/>
        <pt x="673" y="690" on="1"/>
        <pt x="880" y="1076" on="1"/>
        <pt x="740" y="1128" on="1"/>
        <pt x="756" y="1244" on="1"/>
        <pt x="1216" y="1244" on="1"/>
        <pt x="1198" y="1128" on="1"/>
        <pt x="1079" y="1078" on="1"/>
        <pt x="748" y="514" on="1"/>
        <pt x="748" y="168" on="1"/>
        <pt x="914" y="110" on="1"/>
        <pt x="902" y="0" on="1"/>
        <pt x="298" y="0" on="1"/>
        <pt x="312" y="106" on="1"/>
        <pt x="466" y="169" on="1"/>
        <pt x="466" y="494" on="1"/>
        <pt x="126" y="1076" on="1"/>
      </contour>
      <contour>
        <pt x="425" y="1392" on="0"/>
        <pt x="372" y="1448" on="0"/>
        <pt x="372" y="1526" on="0"/>
        <pt x="427" y="1581" on="0"/>
        <pt x="535" y="1581" on="0"/>
        <pt x="592" y="1527" on="0"/>
        <pt x="592" y="1447" on="0"/>
        <pt x="535" y="1392" on="0"/>
      </contour>
      <contour>
        <pt x="734" y="1392" on="0"/>
        <pt x="681" y="1448" on="0"/>
        <pt x="681" y="1526" on="0"/>
        <pt x="736" y="1581" on="0"/>
        <pt x="844" y="1581" on="0"/>
        <pt x="901" y="1527" on="0"/>
        <pt x="901" y="1447" on="0"/>
        <pt x="844" y="1392" on="0"/>
      </contour>
    </TTGlyph>
    <TTGlyph name="Ygrave" xMin="-10" yMin="0" xMax="1216" yMax="1766">
      <contour>
        <pt x="-10" y="1128" on="1"/>
        <pt x="12" y="1244" on="1"/>
        <pt x="596" y="1244" on="1"/>
        <pt x="576" y="1128" on="1"/>
        <pt x="460" y="1079" on="1"/>
        <pt x="673" y="690" on="1"/>
        <pt x="880" y="1076" on="1"/>
        <pt x="740" y="1128" on="1"/>
        <pt x="756" y="1244" on="1"/>
        <pt x="1216" y="1244" on="1"/>
        <pt x="1198" y="1128" on="1"/>
        <pt x="1079" y="1078" on="1"/>
        <pt x="748" y="514" on="1"/>
        <pt x="748" y="168" on="1"/>
        <pt x="914" y="110" on="1"/>
        <pt x="902" y="0" on="1"/>
        <pt x="298" y="0" on="1"/>
        <pt x="312" y="106" on="1"/>
        <pt x="466" y="169" on="1"/>
        <pt x="466" y="494" on="1"/>
        <pt x="126" y="1076" on="1"/>
      </contour>
      <contour>
        <pt x="424" y="1728" on="1"/>
        <pt x="641" y="1766" on="1"/>
        <pt x="781" y="1426" on="1"/>
        <pt x="624" y="1393" on="1"/>
      </contour>
    </TTGlyph>
    <TTGlyph name="Z" xMin="24" yMin="0" xMax="1060" yMax="1244">
      <contour>
        <pt x="24" y="170" on="1"/>
        <pt x="712" y="1109" on="1"/>
        <pt x="273" y="1109" on="1"/>
        <pt x="203" y="858" on="1"/>
        <pt x="58" y="882" on="1"/>
        <pt x="68" y="1244" on="1"/>
        <pt x="1048" y="1244" on="1"/>
        <pt x="1044" y="1128" on="1"/>
        <pt x="320" y="153" on="1"/>
        <pt x="784" y="138" on="1"/>
        <pt x="938" y="404" on="1"/>
        <pt x="1060" y="384" on="1"/>
        <pt x="1001" y="0" on="1"/>
        <pt x="34" y="0" on="1"/>
      </contour>
    </TTGlyph>
    <TTGlyph name="Zacute" xMin="24" yMin="0" xMax="1060" yMax="1734">
      <contour>
        <pt x="24" y="170" on="1"/>
        <pt x="712" y="1109" on="1"/>
        <pt x="273" y="1109" on="1"/>
        <pt x="203" y="858" on="1"/>
        <pt x="58" y="882" on="1"/>
        <pt x="68" y="1244" on="1"/>
        <pt x="1048" y="1244" on="1"/>
        <pt x="1044" y="1128" on="1"/>
        <pt x="320" y="153" on="1"/>
        <pt x="784" y="138" on="1"/>
        <pt x="938" y="404" on="1"/>
        <pt x="1060" y="384" on="1"/>
        <pt x="1001" y="0" on="1"/>
        <pt x="34" y="0" on="1"/>
      </contour>
      <contour>
        <pt x="466" y="1420" on="1"/>
        <pt x="580" y="1734" on="1"/>
        <pt x="802" y="1706" on="1"/>
        <pt x="620" y="1393" on="1"/>
      </contour>
    </TTGlyph>
    <TTGlyph name="Zcaron" xMin="24" yMin="0" xMax="1060" yMax="1578">
      <contour>
        <pt x="24" y="170" on="1"/>
        <pt x="712" y="1109" on="1"/>
        <pt x="273" y="1109" on="1"/>
        <pt x="203" y="858" on="1"/>
        <pt x="58" y="882" on="1"/>
        <pt x="68" y="1244" on="1"/>
        <pt x="1048" y="1244" on="1"/>
        <pt x="1044" y="1128" on="1"/>
        <pt x="320" y="153" on="1"/>
        <pt x="784" y="138" on="1"/>
        <pt x="938" y="404" on="1"/>
        <pt x="1060" y="384" on="1"/>
        <pt x="1001" y="0" on="1"/>
        <pt x="34" y="0" on="1"/>
      </contour>
      <contour>
        <pt x="292" y="1543" on="1"/>
        <pt x="497" y="1578" on="1"/>
        <pt x="586" y="1493" on="1"/>
        <pt x="596" y="1493" on="1"/>
        <pt x="680" y="1574" on="1"/>
        <pt x="823" y="1560" on="1"/>
        <pt x="633" y="1344" on="1"/>
        <pt x="486" y="1323" on="1"/>
      </contour>
    </TTGlyph>
    <TTGlyph name="Zdotaccent" xMin="24" yMin="0" xMax="1060" yMax="1665">
      <contour>
        <pt x="24" y="170" on="1"/>
        <pt x="712" y="1109" on="1"/>
        <pt x="273" y="1109" on="1"/>
        <pt x="203" y="858" on="1"/>
        <pt x="58" y="882" on="1"/>
        <pt x="68" y="1244" on="1"/>
        <pt x="1048" y="1244" on="1"/>
        <pt x="1044" y="1128" on="1"/>
        <pt x="320" y="153" on="1"/>
        <pt x="784" y="138" on="1"/>
        <pt x="938" y="404" on="1"/>
        <pt x="1060" y="384" on="1"/>
        <pt x="1001" y="0" on="1"/>
        <pt x="34" y="0" on="1"/>
      </contour>
      <contour>
        <pt x="471" y="1393" on="0"/>
        <pt x="391" y="1472" on="0"/>
        <pt x="391" y="1584" on="0"/>
        <pt x="477" y="1665" on="0"/>
        <pt x="639" y="1665" on="0"/>
        <pt x="725" y="1586" on="0"/>
        <pt x="725" y="1471" on="0"/>
        <pt x="639" y="1393" on="0"/>
      </contour>
    </TTGlyph>
    <TTGlyph name="a" xMin="24" yMin="-24" xMax="852" yMax="924">
      <contour>
        <pt x="260" y="247" on="1"/>
        <pt x="260" y="210" on="0"/>
        <pt x="311" y="152" on="0"/>
        <pt x="420" y="152" on="0"/>
        <pt x="483" y="211" on="1"/>
        <pt x="483" y="413" on="1"/>
        <pt x="260" y="376" on="0"/>
      </contour>
      <contour>
        <pt x="24" y="178" on="1"/>
        <pt x="24" y="308" on="0"/>
        <pt x="261" y="491" on="0"/>
        <pt x="483" y="499" on="1"/>
        <pt x="483" y="574" on="1"/>
        <pt x="483" y="665" on="0"/>
        <pt x="405" y="787" on="0"/>
        <pt x="280" y="787" on="0"/>
        <pt x="246" y="699" on="0"/>
        <pt x="236" y="572" on="1"/>
        <pt x="102" y="572" on="0"/>
        <pt x="68" y="627" on="1"/>
        <pt x="52" y="652" on="0"/>
        <pt x="52" y="743" on="0"/>
        <pt x="182" y="854" on="0"/>
        <pt x="373" y="924" on="0"/>
        <pt x="458" y="924" on="1"/>
        <pt x="718" y="924" on="0"/>
        <pt x="718" y="617" on="1"/>
        <pt x="718" y="268" on="1"/>
        <pt x="718" y="227" on="0"/>
        <pt x="725" y="210" on="0"/>
        <pt x="734" y="186" on="0"/>
        <pt x="747" y="178" on="0"/>
        <pt x="757" y="171" on="1"/>
        <pt x="773" y="160" on="0"/>
        <pt x="813" y="153" on="1"/>
        <pt x="852" y="146" on="1"/>
        <pt x="833" y="18" on="1"/>
        <pt x="770" y="-21" on="0"/>
        <pt x="597" y="-21" on="0"/>
        <pt x="562" y="14" on="1"/>
        <pt x="527" y="50" on="0"/>
        <pt x="511" y="125" on="1"/>
        <pt x="499" y="128" on="1"/>
        <pt x="475" y="72" on="0"/>
        <pt x="326" y="-24" on="0"/>
        <pt x="139" y="-24" on="0"/>
        <pt x="24" y="81" on="0"/>
      </contour>
    </TTGlyph>
    <TTGlyph name="aacute" xMin="24" yMin="-24" xMax="852" yMax="1390">
      <contour>
        <pt x="260" y="247" on="1"/>
        <pt x="260" y="210" on="0"/>
        <pt x="311" y="152" on="0"/>
        <pt x="420" y="152" on="0"/>
        <pt x="483" y="211" on="1"/>
        <pt x="483" y="413" on="1"/>
        <pt x="260" y="376" on="0"/>
      </contour>
      <contour>
        <pt x="24" y="178" on="1"/>
        <pt x="24" y="308" on="0"/>
        <pt x="261" y="491" on="0"/>
        <pt x="483" y="499" on="1"/>
        <pt x="483" y="574" on="1"/>
        <pt x="483" y="665" on="0"/>
        <pt x="405" y="787" on="0"/>
        <pt x="280" y="787" on="0"/>
        <pt x="246" y="699" on="0"/>
        <pt x="236" y="572" on="1"/>
        <pt x="102" y="572" on="0"/>
        <pt x="68" y="627" on="1"/>
        <pt x="52" y="652" on="0"/>
        <pt x="52" y="743" on="0"/>
        <pt x="182" y="854" on="0"/>
        <pt x="373" y="924" on="0"/>
        <pt x="458" y="924" on="1"/>
        <pt x="718" y="924" on="0"/>
        <pt x="718" y="617" on="1"/>
        <pt x="718" y="268" on="1"/>
        <pt x="718" y="227" on="0"/>
        <pt x="725" y="210" on="0"/>
        <pt x="734" y="186" on="0"/>
        <pt x="747" y="178" on="0"/>
        <pt x="757" y="171" on="1"/>
        <pt x="773" y="160" on="0"/>
        <pt x="813" y="153" on="1"/>
        <pt x="852" y="146" on="1"/>
        <pt x="833" y="18" on="1"/>
        <pt x="770" y="-21" on="0"/>
        <pt x="597" y="-21" on="0"/>
        <pt x="562" y="14" on="1"/>
        <pt x="527" y="50" on="0"/>
        <pt x="511" y="125" on="1"/>
        <pt x="499" y="128" on="1"/>
        <pt x="475" y="72" on="0"/>
        <pt x="326" y="-24" on="0"/>
        <pt x="139" y="-24" on="0"/>
        <pt x="24" y="81" on="0"/>
      </contour>
      <contour>
        <pt x="346" y="1076" on="1"/>
        <pt x="460" y="1390" on="1"/>
        <pt x="682" y="1362" on="1"/>
        <pt x="500" y="1049" on="1"/>
      </contour>
    </TTGlyph>
    <TTGlyph name="abreve" xMin="24" yMin="-24" xMax="852" yMax="1289">
      <contour>
        <pt x="260" y="247" on="1"/>
        <pt x="260" y="210" on="0"/>
        <pt x="311" y="152" on="0"/>
        <pt x="420" y="152" on="0"/>
        <pt x="483" y="211" on="1"/>
        <pt x="483" y="413" on="1"/>
        <pt x="260" y="376" on="0"/>
      </contour>
      <contour>
        <pt x="24" y="178" on="1"/>
        <pt x="24" y="308" on="0"/>
        <pt x="261" y="491" on="0"/>
        <pt x="483" y="499" on="1"/>
        <pt x="483" y="574" on="1"/>
        <pt x="483" y="665" on="0"/>
        <pt x="405" y="787" on="0"/>
        <pt x="280" y="787" on="0"/>
        <pt x="246" y="699" on="0"/>
        <pt x="236" y="572" on="1"/>
        <pt x="102" y="572" on="0"/>
        <pt x="68" y="627" on="1"/>
        <pt x="52" y="652" on="0"/>
        <pt x="52" y="743" on="0"/>
        <pt x="182" y="854" on="0"/>
        <pt x="373" y="924" on="0"/>
        <pt x="458" y="924" on="1"/>
        <pt x="718" y="924" on="0"/>
        <pt x="718" y="617" on="1"/>
        <pt x="718" y="268" on="1"/>
        <pt x="718" y="227" on="0"/>
        <pt x="725" y="210" on="0"/>
        <pt x="734" y="186" on="0"/>
        <pt x="747" y="178" on="0"/>
        <pt x="757" y="171" on="1"/>
        <pt x="773" y="160" on="0"/>
        <pt x="813" y="153" on="1"/>
        <pt x="852" y="146" on="1"/>
        <pt x="833" y="18" on="1"/>
        <pt x="770" y="-21" on="0"/>
        <pt x="597" y="-21" on="0"/>
        <pt x="562" y="14" on="1"/>
        <pt x="527" y="50" on="0"/>
        <pt x="511" y="125" on="1"/>
        <pt x="499" y="128" on="1"/>
        <pt x="475" y="72" on="0"/>
        <pt x="326" y="-24" on="0"/>
        <pt x="139" y="-24" on="0"/>
        <pt x="24" y="81" on="0"/>
      </contour>
      <contour>
        <pt x="254" y="1242" on="1"/>
        <pt x="327" y="1289" on="1"/>
        <pt x="349" y="1252" on="0"/>
        <pt x="407" y="1213" on="0"/>
        <pt x="458" y="1213" on="1"/>
        <pt x="556" y="1213" on="0"/>
        <pt x="601" y="1289" on="1"/>
        <pt x="663" y="1242" on="1"/>
        <pt x="636" y="1163" on="0"/>
        <pt x="533" y="1049" on="0"/>
        <pt x="412" y="1049" on="0"/>
        <pt x="339" y="1084" on="0"/>
        <pt x="316" y="1114" on="1"/>
        <pt x="272" y="1169" on="0"/>
      </contour>
    </TTGlyph>
    <TTGlyph name="acircumflex" xMin="24" yMin="-24" xMax="852" yMax="1257">
      <contour>
        <pt x="260" y="247" on="1"/>
        <pt x="260" y="210" on="0"/>
        <pt x="311" y="152" on="0"/>
        <pt x="420" y="152" on="0"/>
        <pt x="483" y="211" on="1"/>
        <pt x="483" y="413" on="1"/>
        <pt x="260" y="376" on="0"/>
      </contour>
      <contour>
        <pt x="24" y="178" on="1"/>
        <pt x="24" y="308" on="0"/>
        <pt x="261" y="491" on="0"/>
        <pt x="483" y="499" on="1"/>
        <pt x="483" y="574" on="1"/>
        <pt x="483" y="665" on="0"/>
        <pt x="405" y="787" on="0"/>
        <pt x="280" y="787" on="0"/>
        <pt x="246" y="699" on="0"/>
        <pt x="236" y="572" on="1"/>
        <pt x="102" y="572" on="0"/>
        <pt x="68" y="627" on="1"/>
        <pt x="52" y="652" on="0"/>
        <pt x="52" y="743" on="0"/>
        <pt x="182" y="854" on="0"/>
        <pt x="373" y="924" on="0"/>
        <pt x="458" y="924" on="1"/>
        <pt x="718" y="924" on="0"/>
        <pt x="718" y="617" on="1"/>
        <pt x="718" y="268" on="1"/>
        <pt x="718" y="227" on="0"/>
        <pt x="725" y="210" on="0"/>
        <pt x="734" y="186" on="0"/>
        <pt x="747" y="178" on="0"/>
        <pt x="757" y="171" on="1"/>
        <pt x="773" y="160" on="0"/>
        <pt x="813" y="153" on="1"/>
        <pt x="852" y="146" on="1"/>
        <pt x="833" y="18" on="1"/>
        <pt x="770" y="-21" on="0"/>
        <pt x="597" y="-21" on="0"/>
        <pt x="562" y="14" on="1"/>
        <pt x="527" y="50" on="0"/>
        <pt x="511" y="125" on="1"/>
        <pt x="499" y="128" on="1"/>
        <pt x="475" y="72" on="0"/>
        <pt x="326" y="-24" on="0"/>
        <pt x="139" y="-24" on="0"/>
        <pt x="24" y="81" on="0"/>
      </contour>
      <contour>
        <pt x="683" y="1037" on="1"/>
        <pt x="514" y="1002" on="1"/>
        <pt x="410" y="1087" on="1"/>
        <pt x="400" y="1087" on="1"/>
        <pt x="313" y="996" on="1"/>
        <pt x="152" y="1020" on="1"/>
        <pt x="316" y="1236" on="1"/>
        <pt x="503" y="1257" on="1"/>
      </contour>
    </TTGlyph>
    <TTGlyph name="acute" xMin="88" yMin="1363" xMax="424" yMax="1704">
      <contour>
        <pt x="88" y="1390" on="1"/>
        <pt x="202" y="1704" on="1"/>
        <pt x="424" y="1676" on="1"/>
        <pt x="242" y="1363" on="1"/>
      </contour>
    </TTGlyph>
    <TTGlyph name="adieresis" xMin="24" yMin="-24" xMax="852" yMax="1238">
      <contour>
        <pt x="260" y="247" on="1"/>
        <pt x="260" y="210" on="0"/>
        <pt x="311" y="152" on="0"/>
        <pt x="420" y="152" on="0"/>
        <pt x="483" y="211" on="1"/>
        <pt x="483" y="413" on="1"/>
        <pt x="260" y="376" on="0"/>
      </contour>
      <contour>
        <pt x="24" y="178" on="1"/>
        <pt x="24" y="308" on="0"/>
        <pt x="261" y="491" on="0"/>
        <pt x="483" y="499" on="1"/>
        <pt x="483" y="574" on="1"/>
        <pt x="483" y="665" on="0"/>
        <pt x="405" y="787" on="0"/>
        <pt x="280" y="787" on="0"/>
        <pt x="246" y="699" on="0"/>
        <pt x="236" y="572" on="1"/>
        <pt x="102" y="572" on="0"/>
        <pt x="68" y="627" on="1"/>
        <pt x="52" y="652" on="0"/>
        <pt x="52" y="743" on="0"/>
        <pt x="182" y="854" on="0"/>
        <pt x="373" y="924" on="0"/>
        <pt x="458" y="924" on="1"/>
        <pt x="718" y="924" on="0"/>
        <pt x="718" y="617" on="1"/>
        <pt x="718" y="268" on="1"/>
        <pt x="718" y="227" on="0"/>
        <pt x="725" y="210" on="0"/>
        <pt x="734" y="186" on="0"/>
        <pt x="747" y="178" on="0"/>
        <pt x="757" y="171" on="1"/>
        <pt x="773" y="160" on="0"/>
        <pt x="813" y="153" on="1"/>
        <pt x="852" y="146" on="1"/>
        <pt x="833" y="18" on="1"/>
        <pt x="770" y="-21" on="0"/>
        <pt x="597" y="-21" on="0"/>
        <pt x="562" y="14" on="1"/>
        <pt x="527" y="50" on="0"/>
        <pt x="511" y="125" on="1"/>
        <pt x="499" y="128" on="1"/>
        <pt x="475" y="72" on="0"/>
        <pt x="326" y="-24" on="0"/>
        <pt x="139" y="-24" on="0"/>
        <pt x="24" y="81" on="0"/>
      </contour>
      <contour>
        <pt x="197" y="1049" on="0"/>
        <pt x="144" y="1105" on="0"/>
        <pt x="144" y="1183" on="0"/>
        <pt x="199" y="1238" on="0"/>
        <pt x="307" y="1238" on="0"/>
        <pt x="364" y="1184" on="0"/>
        <pt x="364" y="1104" on="0"/>
        <pt x="307" y="1049" on="0"/>
      </contour>
      <contour>
        <pt x="506" y="1049" on="0"/>
        <pt x="453" y="1105" on="0"/>
        <pt x="453" y="1183" on="0"/>
        <pt x="508" y="1238" on="0"/>
        <pt x="616" y="1238" on="0"/>
        <pt x="673" y="1184" on="0"/>
        <pt x="673" y="1104" on="0"/>
        <pt x="616" y="1049" on="0"/>
      </contour>
    </TTGlyph>
    <TTGlyph name="ae" xMin="22" yMin="-30" xMax="1243" yMax="924">
      <contour>
        <pt x="721" y="512" on="1"/>
        <pt x="962" y="537" on="1"/>
        <pt x="970" y="569" on="0"/>
        <pt x="970" y="683" on="0"/>
        <pt x="915" y="772" on="0"/>
        <pt x="801" y="772" on="0"/>
        <pt x="724" y="631" on="0"/>
      </contour>
      <contour>
        <pt x="267" y="293" on="1"/>
        <pt x="258" y="270" on="0"/>
        <pt x="258" y="196" on="0"/>
        <pt x="309" y="144" on="0"/>
        <pt x="395" y="144" on="0"/>
        <pt x="472" y="204" on="0"/>
        <pt x="482" y="248" on="1"/>
        <pt x="482" y="404" on="1"/>
        <pt x="300" y="377" on="0"/>
      </contour>
      <contour>
        <pt x="22" y="172" on="1"/>
        <pt x="22" y="301" on="0"/>
        <pt x="246" y="475" on="0"/>
        <pt x="482" y="498" on="1"/>
        <pt x="482" y="574" on="1"/>
        <pt x="482" y="662" on="0"/>
        <pt x="408" y="774" on="0"/>
        <pt x="289" y="774" on="0"/>
        <pt x="247" y="693" on="0"/>
        <pt x="231" y="588" on="1"/>
        <pt x="166" y="582" on="0"/>
        <pt x="60" y="639" on="0"/>
        <pt x="60" y="769" on="0"/>
        <pt x="199" y="870" on="0"/>
        <pt x="379" y="924" on="0"/>
        <pt x="452" y="924" on="1"/>
        <pt x="609" y="924" on="0"/>
        <pt x="662" y="830" on="1"/>
        <pt x="777" y="924" on="0"/>
        <pt x="1056" y="924" on="0"/>
        <pt x="1222" y="738" on="0"/>
        <pt x="1222" y="580" on="1"/>
        <pt x="1222" y="510" on="0"/>
        <pt x="1202" y="423" on="1"/>
        <pt x="722" y="412" on="1"/>
        <pt x="728" y="297" on="0"/>
        <pt x="867" y="142" on="0"/>
        <pt x="1108" y="142" on="0"/>
        <pt x="1224" y="205" on="1"/>
        <pt x="1243" y="113" on="1"/>
        <pt x="1182" y="41" on="0"/>
        <pt x="978" y="-30" on="0"/>
        <pt x="755" y="-30" on="0"/>
        <pt x="583" y="62" on="0"/>
        <pt x="548" y="147" on="1"/>
        <pt x="473" y="-24" on="0"/>
        <pt x="222" y="-24" on="1"/>
        <pt x="138" y="-24" on="0"/>
        <pt x="22" y="77" on="0"/>
      </contour>
    </TTGlyph>
    <TTGlyph name="agrave" xMin="24" yMin="-24" xMax="852" yMax="1422">
      <contour>
        <pt x="260" y="247" on="1"/>
        <pt x="260" y="210" on="0"/>
        <pt x="311" y="152" on="0"/>
        <pt x="420" y="152" on="0"/>
        <pt x="483" y="211" on="1"/>
        <pt x="483" y="413" on="1"/>
        <pt x="260" y="376" on="0"/>
      </contour>
      <contour>
        <pt x="24" y="178" on="1"/>
        <pt x="24" y="308" on="0"/>
        <pt x="261" y="491" on="0"/>
        <pt x="483" y="499" on="1"/>
        <pt x="483" y="574" on="1"/>
        <pt x="483" y="665" on="0"/>
        <pt x="405" y="787" on="0"/>
        <pt x="280" y="787" on="0"/>
        <pt x="246" y="699" on="0"/>
        <pt x="236" y="572" on="1"/>
        <pt x="102" y="572" on="0"/>
        <pt x="68" y="627" on="1"/>
        <pt x="52" y="652" on="0"/>
        <pt x="52" y="743" on="0"/>
        <pt x="182" y="854" on="0"/>
        <pt x="373" y="924" on="0"/>
        <pt x="458" y="924" on="1"/>
        <pt x="718" y="924" on="0"/>
        <pt x="718" y="617" on="1"/>
        <pt x="718" y="268" on="1"/>
        <pt x="718" y="227" on="0"/>
        <pt x="725" y="210" on="0"/>
        <pt x="734" y="186" on="0"/>
        <pt x="747" y="178" on="0"/>
        <pt x="757" y="171" on="1"/>
        <pt x="773" y="160" on="0"/>
        <pt x="813" y="153" on="1"/>
        <pt x="852" y="146" on="1"/>
        <pt x="833" y="18" on="1"/>
        <pt x="770" y="-21" on="0"/>
        <pt x="597" y="-21" on="0"/>
        <pt x="562" y="14" on="1"/>
        <pt x="527" y="50" on="0"/>
        <pt x="511" y="125" on="1"/>
        <pt x="499" y="128" on="1"/>
        <pt x="475" y="72" on="0"/>
        <pt x="326" y="-24" on="0"/>
        <pt x="139" y="-24" on="0"/>
        <pt x="24" y="81" on="0"/>
      </contour>
      <contour>
        <pt x="228" y="1384" on="1"/>
        <pt x="445" y="1422" on="1"/>
        <pt x="585" y="1082" on="1"/>
        <pt x="428" y="1049" on="1"/>
      </contour>
    </TTGlyph>
    <TTGlyph name="amacron" xMin="24" yMin="-24" xMax="852" yMax="1196">
      <contour>
        <pt x="260" y="247" on="1"/>
        <pt x="260" y="210" on="0"/>
        <pt x="311" y="152" on="0"/>
        <pt x="420" y="152" on="0"/>
        <pt x="483" y="211" on="1"/>
        <pt x="483" y="413" on="1"/>
        <pt x="260" y="376" on="0"/>
      </contour>
      <contour>
        <pt x="24" y="178" on="1"/>
        <pt x="24" y="308" on="0"/>
        <pt x="261" y="491" on="0"/>
        <pt x="483" y="499" on="1"/>
        <pt x="483" y="574" on="1"/>
        <pt x="483" y="665" on="0"/>
        <pt x="405" y="787" on="0"/>
        <pt x="280" y="787" on="0"/>
        <pt x="246" y="699" on="0"/>
        <pt x="236" y="572" on="1"/>
        <pt x="102" y="572" on="0"/>
        <pt x="68" y="627" on="1"/>
        <pt x="52" y="652" on="0"/>
        <pt x="52" y="743" on="0"/>
        <pt x="182" y="854" on="0"/>
        <pt x="373" y="924" on="0"/>
        <pt x="458" y="924" on="1"/>
        <pt x="718" y="924" on="0"/>
        <pt x="718" y="617" on="1"/>
        <pt x="718" y="268" on="1"/>
        <pt x="718" y="227" on="0"/>
        <pt x="725" y="210" on="0"/>
        <pt x="734" y="186" on="0"/>
        <pt x="747" y="178" on="0"/>
        <pt x="757" y="171" on="1"/>
        <pt x="773" y="160" on="0"/>
        <pt x="813" y="153" on="1"/>
        <pt x="852" y="146" on="1"/>
        <pt x="833" y="18" on="1"/>
        <pt x="770" y="-21" on="0"/>
        <pt x="597" y="-21" on="0"/>
        <pt x="562" y="14" on="1"/>
        <pt x="527" y="50" on="0"/>
        <pt x="511" y="125" on="1"/>
        <pt x="499" y="128" on="1"/>
        <pt x="475" y="72" on="0"/>
        <pt x="326" y="-24" on="0"/>
        <pt x="139" y="-24" on="0"/>
        <pt x="24" y="81" on="0"/>
      </contour>
      <contour>
        <pt x="226" y="1049" on="1"/>
        <pt x="243" y="1196" on="1"/>
        <pt x="690" y="1196" on="1"/>
        <pt x="673" y="1049" on="1"/>
      </contour>
    </TTGlyph>
    <TTGlyph name="ampersand" xMin="16" yMin="-24" xMax="1320" yMax="1272">
      <contour>
        <pt x="456" y="1145" on="0"/>
        <pt x="399" y="1075" on="0"/>
        <pt x="399" y="974" on="0"/>
        <pt x="480" y="856" on="0"/>
        <pt x="531" y="810" on="1"/>
        <pt x="573" y="847" on="0"/>
        <pt x="614" y="922" on="0"/>
        <pt x="614" y="1056" on="0"/>
        <pt x="554" y="1145" on="0"/>
      </contour>
      <contour>
        <pt x="384" y="591" on="1"/>
        <pt x="276" y="509" on="0"/>
        <pt x="276" y="293" on="0"/>
        <pt x="381" y="154" on="0"/>
        <pt x="454" y="154" on="1"/>
        <pt x="580" y="154" on="0"/>
        <pt x="668" y="288" on="1"/>
        <pt x="397" y="588" on="1"/>
      </contour>
      <contour>
        <pt x="822" y="1018" on="1"/>
        <pt x="822" y="848" on="0"/>
        <pt x="629" y="724" on="1"/>
        <pt x="629" y="710" on="1"/>
        <pt x="818" y="506" on="1"/>
        <pt x="971" y="730" on="1"/>
        <pt x="855" y="770" on="1"/>
        <pt x="872" y="888" on="1"/>
        <pt x="1320" y="888" on="1"/>
        <pt x="1304" y="770" on="1"/>
        <pt x="1132" y="722" on="1"/>
        <pt x="918" y="405" on="1"/>
        <pt x="1150" y="159" on="0"/>
        <pt x="1246" y="120" on="1"/>
        <pt x="1285" y="106" on="1"/>
        <pt x="1262" y="3" on="1"/>
        <pt x="1195" y="-18" on="0"/>
        <pt x="1112" y="-18" on="1"/>
        <pt x="962" y="-18" on="0"/>
        <pt x="828" y="124" on="1"/>
        <pt x="767" y="187" on="1"/>
        <pt x="608" y="-24" on="0"/>
        <pt x="380" y="-24" on="1"/>
        <pt x="221" y="-24" on="0"/>
        <pt x="122" y="50" on="1"/>
        <pt x="16" y="129" on="0"/>
        <pt x="16" y="296" on="1"/>
        <pt x="16" y="427" on="0"/>
        <pt x="167" y="607" on="0"/>
        <pt x="309" y="683" on="1"/>
        <pt x="254" y="732" on="0"/>
        <pt x="184" y="882" on="0"/>
        <pt x="184" y="954" on="1"/>
        <pt x="184" y="1088" on="0"/>
        <pt x="401" y="1272" on="0"/>
        <pt x="665" y="1272" on="0"/>
        <pt x="822" y="1144" on="0"/>
      </contour>
    </TTGlyph>
    <TTGlyph name="ampersand.osf" xMin="54" yMin="-18" xMax="1092" yMax="1008">
      <contour>
        <pt x="565" y="185" on="1"/>
        <pt x="365" y="413" on="1"/>
        <pt x="296" y="346" on="0"/>
        <pt x="296" y="257" on="1"/>
        <pt x="296" y="211" on="0"/>
        <pt x="359" y="133" on="0"/>
        <pt x="491" y="133" on="0"/>
      </contour>
      <contour>
        <pt x="638" y="103" on="1"/>
        <pt x="500" y="-18" on="0"/>
        <pt x="327" y="-18" on="1"/>
        <pt x="202" y="-18" on="0"/>
        <pt x="54" y="99" on="0"/>
        <pt x="54" y="210" on="1"/>
        <pt x="54" y="319" on="0"/>
        <pt x="128" y="390" on="1"/>
        <pt x="187" y="447" on="0"/>
        <pt x="286" y="504" on="1"/>
        <pt x="255" y="540" on="1"/>
        <pt x="165" y="643" on="0"/>
        <pt x="165" y="849" on="0"/>
        <pt x="339" y="1008" on="0"/>
        <pt x="567" y="1008" on="0"/>
        <pt x="712" y="891" on="0"/>
        <pt x="711" y="802" on="1"/>
        <pt x="711" y="677" on="0"/>
        <pt x="606" y="586" on="1"/>
        <pt x="580" y="563" on="0"/>
        <pt x="542" y="537" on="1"/>
        <pt x="708" y="348" on="1"/>
        <pt x="742" y="402" on="0"/>
        <pt x="777" y="474" on="1"/>
        <pt x="678" y="529" on="1"/>
        <pt x="696" y="632" on="1"/>
        <pt x="1092" y="632" on="1"/>
        <pt x="1076" y="529" on="1"/>
        <pt x="922" y="478" on="1"/>
        <pt x="842" y="344" on="0"/>
        <pt x="782" y="264" on="1"/>
        <pt x="786" y="260" on="1"/>
        <pt x="840" y="196" on="0"/>
        <pt x="955" y="135" on="0"/>
        <pt x="1027" y="116" on="1"/>
        <pt x="1055" y="108" on="1"/>
        <pt x="1033" y="6" on="1"/>
        <pt x="963" y="-16" on="0"/>
        <pt x="891" y="-16" on="1"/>
        <pt x="761" y="-16" on="0"/>
      </contour>
      <contour>
        <pt x="466" y="623" on="1"/>
        <pt x="528" y="683" on="0"/>
        <pt x="528" y="832" on="0"/>
        <pt x="465" y="905" on="0"/>
        <pt x="402" y="905" on="0"/>
        <pt x="362" y="847" on="0"/>
        <pt x="362" y="808" on="1"/>
        <pt x="362" y="736" on="0"/>
      </contour>
    </TTGlyph>
    <TTGlyph name="aogonek" xMin="24" yMin="-373" xMax="872" yMax="924">
      <contour>
        <pt x="260" y="247" on="1"/>
        <pt x="260" y="210" on="0"/>
        <pt x="311" y="152" on="0"/>
        <pt x="420" y="152" on="0"/>
        <pt x="483" y="211" on="1"/>
        <pt x="483" y="413" on="1"/>
        <pt x="260" y="376" on="0"/>
      </contour>
      <contour>
        <pt x="24" y="178" on="1"/>
        <pt x="24" y="308" on="0"/>
        <pt x="261" y="491" on="0"/>
        <pt x="483" y="499" on="1"/>
        <pt x="483" y="574" on="1"/>
        <pt x="483" y="665" on="0"/>
        <pt x="405" y="787" on="0"/>
        <pt x="280" y="787" on="0"/>
        <pt x="246" y="699" on="0"/>
        <pt x="236" y="572" on="1"/>
        <pt x="102" y="572" on="0"/>
        <pt x="68" y="627" on="1"/>
        <pt x="52" y="652" on="0"/>
        <pt x="52" y="743" on="0"/>
        <pt x="182" y="854" on="0"/>
        <pt x="373" y="924" on="0"/>
        <pt x="458" y="924" on="1"/>
        <pt x="718" y="924" on="0"/>
        <pt x="718" y="617" on="1"/>
        <pt x="718" y="268" on="1"/>
        <pt x="718" y="227" on="0"/>
        <pt x="725" y="210" on="0"/>
        <pt x="734" y="186" on="0"/>
        <pt x="747" y="178" on="0"/>
        <pt x="757" y="171" on="1"/>
        <pt x="773" y="160" on="0"/>
        <pt x="813" y="153" on="1"/>
        <pt x="852" y="146" on="1"/>
        <pt x="833" y="18" on="1"/>
        <pt x="810" y="5" on="0"/>
        <pt x="799" y="0" on="1"/>
        <pt x="757" y="-97" on="0"/>
        <pt x="788" y="-240" on="0"/>
        <pt x="872" y="-301" on="1"/>
        <pt x="843" y="-373" on="1"/>
        <pt x="725" y="-364" on="0"/>
        <pt x="565" y="-264" on="0"/>
        <pt x="565" y="-190" on="1"/>
        <pt x="565" y="-144" on="0"/>
        <pt x="608" y="-68" on="0"/>
        <pt x="662" y="-21" on="1"/>
        <pt x="592" y="-18" on="0"/>
        <pt x="560" y="17" on="1"/>
        <pt x="527" y="53" on="0"/>
        <pt x="511" y="125" on="1"/>
        <pt x="499" y="128" on="1"/>
        <pt x="475" y="72" on="0"/>
        <pt x="326" y="-24" on="0"/>
        <pt x="139" y="-24" on="0"/>
        <pt x="24" y="81" on="0"/>
      </contour>
    </TTGlyph>
    <TTGlyph name="approxequal" xMin="59" yMin="210" xMax="887" yMax="777">
      <contour>
        <pt x="59" y="221" on="1"/>
        <pt x="49" y="336" on="0"/>
        <pt x="106" y="416" on="1"/>
        <pt x="168" y="503" on="0"/>
        <pt x="309" y="477" on="1"/>
        <pt x="684" y="419" on="1"/>
        <pt x="721" y="413" on="0"/>
        <pt x="769" y="464" on="0"/>
        <pt x="774" y="487" on="1"/>
        <pt x="887" y="478" on="1"/>
        <pt x="889" y="336" on="0"/>
        <pt x="753" y="207" on="0"/>
        <pt x="616" y="233" on="1"/>
        <pt x="252" y="291" on="1"/>
        <pt x="203" y="301" on="0"/>
        <pt x="178" y="242" on="1"/>
        <pt x="173" y="229" on="0"/>
        <pt x="170" y="210" on="1"/>
      </contour>
      <contour>
        <pt x="59" y="509" on="1"/>
        <pt x="51" y="595" on="0"/>
        <pt x="104" y="705" on="0"/>
        <pt x="134" y="730" on="1"/>
        <pt x="202" y="786" on="0"/>
        <pt x="309" y="766" on="1"/>
        <pt x="684" y="707" on="1"/>
        <pt x="717" y="701" on="0"/>
        <pt x="767" y="753" on="0"/>
        <pt x="774" y="777" on="1"/>
        <pt x="887" y="767" on="1"/>
        <pt x="887" y="627" on="0"/>
        <pt x="747" y="495" on="0"/>
        <pt x="616" y="521" on="1"/>
        <pt x="252" y="580" on="1"/>
        <pt x="196" y="591" on="0"/>
        <pt x="172" y="507" on="1"/>
        <pt x="170" y="498" on="1"/>
      </contour>
    </TTGlyph>
    <TTGlyph name="aring" xMin="24" yMin="-24" xMax="852" yMax="1359">
      <contour>
        <pt x="260" y="247" on="1"/>
        <pt x="260" y="210" on="0"/>
        <pt x="311" y="152" on="0"/>
        <pt x="420" y="152" on="0"/>
        <pt x="483" y="211" on="1"/>
        <pt x="483" y="413" on="1"/>
        <pt x="260" y="376" on="0"/>
      </contour>
      <contour>
        <pt x="24" y="178" on="1"/>
        <pt x="24" y="308" on="0"/>
        <pt x="261" y="491" on="0"/>
        <pt x="483" y="499" on="1"/>
        <pt x="483" y="574" on="1"/>
        <pt x="483" y="665" on="0"/>
        <pt x="405" y="787" on="0"/>
        <pt x="280" y="787" on="0"/>
        <pt x="246" y="699" on="0"/>
        <pt x="236" y="572" on="1"/>
        <pt x="102" y="572" on="0"/>
        <pt x="68" y="627" on="1"/>
        <pt x="52" y="652" on="0"/>
        <pt x="52" y="743" on="0"/>
        <pt x="182" y="854" on="0"/>
        <pt x="373" y="924" on="0"/>
        <pt x="458" y="924" on="1"/>
        <pt x="718" y="924" on="0"/>
        <pt x="718" y="617" on="1"/>
        <pt x="718" y="268" on="1"/>
        <pt x="718" y="227" on="0"/>
        <pt x="725" y="210" on="0"/>
        <pt x="734" y="186" on="0"/>
        <pt x="747" y="178" on="0"/>
        <pt x="757" y="171" on="1"/>
        <pt x="773" y="160" on="0"/>
        <pt x="813" y="153" on="1"/>
        <pt x="852" y="146" on="1"/>
        <pt x="833" y="18" on="1"/>
        <pt x="770" y="-21" on="0"/>
        <pt x="597" y="-21" on="0"/>
        <pt x="562" y="14" on="1"/>
        <pt x="527" y="50" on="0"/>
        <pt x="511" y="125" on="1"/>
        <pt x="499" y="128" on="1"/>
        <pt x="475" y="72" on="0"/>
        <pt x="326" y="-24" on="0"/>
        <pt x="139" y="-24" on="0"/>
        <pt x="24" y="81" on="0"/>
      </contour>
      <contour>
        <pt x="368" y="1221" on="0"/>
        <pt x="368" y="1183" on="0"/>
        <pt x="377" y="1160" on="0"/>
        <pt x="386" y="1156" on="1"/>
        <pt x="401" y="1150" on="0"/>
        <pt x="418" y="1150" on="1"/>
        <pt x="466" y="1153" on="0"/>
        <pt x="468" y="1202" on="1"/>
        <pt x="468" y="1251" on="0"/>
        <pt x="412" y="1251" on="1"/>
        <pt x="391" y="1251" on="0"/>
      </contour>
      <contour>
        <pt x="423" y="1359" on="1"/>
        <pt x="638" y="1359" on="0"/>
        <pt x="638" y="1204" on="1"/>
        <pt x="638" y="1133" on="0"/>
        <pt x="522" y="1042" on="0"/>
        <pt x="410" y="1042" on="1"/>
        <pt x="202" y="1042" on="0"/>
        <pt x="202" y="1195" on="1"/>
        <pt x="202" y="1267" on="0"/>
        <pt x="318" y="1359" on="0"/>
      </contour>
    </TTGlyph>
    <TTGlyph name="asciicircum" xMin="21" yMin="788" xMax="660" yMax="1250">
      <contour>
        <pt x="21" y="826" on="1"/>
        <pt x="286" y="1237" on="1"/>
        <pt x="386" y="1250" on="1"/>
        <pt x="660" y="824" on="1"/>
        <pt x="571" y="788" on="1"/>
        <pt x="328" y="1018" on="1"/>
        <pt x="317" y="1018" on="1"/>
        <pt x="103" y="794" on="1"/>
      </contour>
    </TTGlyph>
    <TTGlyph name="asciitilde" xMin="43" yMin="336" xMax="916" yMax="665">
      <contour>
        <pt x="43" y="347" on="1"/>
        <pt x="41" y="438" on="0"/>
        <pt x="96" y="565" on="0"/>
        <pt x="125" y="598" on="1"/>
        <pt x="191" y="672" on="0"/>
        <pt x="307" y="654" on="1"/>
        <pt x="703" y="590" on="1"/>
        <pt x="739" y="584" on="0"/>
        <pt x="786" y="622" on="0"/>
        <pt x="792" y="644" on="1"/>
        <pt x="797" y="665" on="1"/>
        <pt x="916" y="655" on="1"/>
        <pt x="914" y="502" on="0"/>
        <pt x="769" y="330" on="0"/>
        <pt x="630" y="355" on="1"/>
        <pt x="247" y="424" on="1"/>
        <pt x="212" y="430" on="0"/>
        <pt x="169" y="386" on="0"/>
        <pt x="164" y="361" on="1"/>
        <pt x="160" y="336" on="1"/>
      </contour>
    </TTGlyph>
    <TTGlyph name="asterisk" xMin="122" yMin="654" xMax="696" yMax="1210">
      <contour>
        <pt x="164" y="1102" on="1"/>
        <pt x="273" y="1184" on="1"/>
        <pt x="376" y="990" on="1"/>
        <pt x="494" y="1210" on="1"/>
        <pt x="602" y="1132" on="1"/>
        <pt x="447" y="963" on="1"/>
        <pt x="696" y="934" on="1"/>
        <pt x="656" y="806" on="1"/>
        <pt x="452" y="888" on="1"/>
        <pt x="496" y="654" on="1"/>
        <pt x="359" y="654" on="1"/>
        <pt x="383" y="864" on="1"/>
        <pt x="164" y="756" on="1"/>
        <pt x="122" y="888" on="1"/>
        <pt x="341" y="926" on="1"/>
      </contour>
    </TTGlyph>
    <TTGlyph name="at" xMin="27" yMin="-224" xMax="1377" yMax="1044">
      <contour>
        <pt x="782" y="675" on="1"/>
        <pt x="722" y="686" on="1"/>
        <pt x="684" y="686" on="0"/>
        <pt x="622" y="619" on="0"/>
        <pt x="604" y="569" on="1"/>
        <pt x="567" y="466" on="0"/>
        <pt x="567" y="378" on="1"/>
        <pt x="567" y="234" on="0"/>
        <pt x="636" y="234" on="1"/>
        <pt x="682" y="234" on="0"/>
        <pt x="732" y="276" on="1"/>
      </contour>
      <contour>
        <pt x="131" y="-19" on="0"/>
        <pt x="27" y="193" on="0"/>
        <pt x="27" y="468" on="0"/>
        <pt x="144" y="729" on="0"/>
        <pt x="351" y="926" on="0"/>
        <pt x="657" y="1044" on="0"/>
        <pt x="940" y="1044" on="0"/>
        <pt x="1133" y="987" on="0"/>
        <pt x="1286" y="881" on="0"/>
        <pt x="1377" y="711" on="0"/>
        <pt x="1377" y="502" on="0"/>
        <pt x="1296" y="307" on="0"/>
        <pt x="1160" y="163" on="0"/>
        <pt x="974" y="76" on="0"/>
        <pt x="892" y="76" on="1"/>
        <pt x="727" y="76" on="0"/>
        <pt x="731" y="192" on="1"/>
        <pt x="720" y="192" on="1"/>
        <pt x="684" y="139" on="0"/>
        <pt x="584" y="72" on="0"/>
        <pt x="534" y="72" on="1"/>
        <pt x="454" y="72" on="0"/>
        <pt x="350" y="211" on="0"/>
        <pt x="350" y="334" on="1"/>
        <pt x="350" y="521" on="0"/>
        <pt x="615" y="792" on="0"/>
        <pt x="810" y="792" on="1"/>
        <pt x="901" y="792" on="0"/>
        <pt x="974" y="776" on="1"/>
        <pt x="992" y="756" on="1"/>
        <pt x="952" y="390" on="1"/>
        <pt x="923" y="206" on="0"/>
        <pt x="974" y="206" on="1"/>
        <pt x="1038" y="206" on="0"/>
        <pt x="1090" y="264" on="1"/>
        <pt x="1190" y="377" on="0"/>
        <pt x="1190" y="741" on="0"/>
        <pt x="964" y="942" on="0"/>
        <pt x="781" y="942" on="1"/>
        <pt x="655" y="942" on="0"/>
        <pt x="443" y="848" on="0"/>
        <pt x="374" y="768" on="1"/>
        <pt x="228" y="602" on="0"/>
        <pt x="228" y="144" on="0"/>
        <pt x="498" y="-114" on="0"/>
        <pt x="755" y="-114" on="1"/>
        <pt x="856" y="-114" on="0"/>
        <pt x="1054" y="-44" on="0"/>
        <pt x="1112" y="4" on="1"/>
        <pt x="1152" y="-84" on="1"/>
        <pt x="948" y="-224" on="0"/>
        <pt x="700" y="-224" on="1"/>
        <pt x="411" y="-224" on="0"/>
        <pt x="222" y="-86" on="1"/>
      </contour>
    </TTGlyph>
    <TTGlyph name="atilde" xMin="24" yMin="-24" xMax="852" yMax="1261">
      <contour>
        <pt x="260" y="247" on="1"/>
        <pt x="260" y="210" on="0"/>
        <pt x="311" y="152" on="0"/>
        <pt x="420" y="152" on="0"/>
        <pt x="483" y="211" on="1"/>
        <pt x="483" y="413" on="1"/>
        <pt x="260" y="376" on="0"/>
      </contour>
      <contour>
        <pt x="24" y="178" on="1"/>
        <pt x="24" y="308" on="0"/>
        <pt x="261" y="491" on="0"/>
        <pt x="483" y="499" on="1"/>
        <pt x="483" y="574" on="1"/>
        <pt x="483" y="665" on="0"/>
        <pt x="405" y="787" on="0"/>
        <pt x="280" y="787" on="0"/>
        <pt x="246" y="699" on="0"/>
        <pt x="236" y="572" on="1"/>
        <pt x="102" y="572" on="0"/>
        <pt x="68" y="627" on="1"/>
        <pt x="52" y="652" on="0"/>
        <pt x="52" y="743" on="0"/>
        <pt x="182" y="854" on="0"/>
        <pt x="373" y="924" on="0"/>
        <pt x="458" y="924" on="1"/>
        <pt x="718" y="924" on="0"/>
        <pt x="718" y="617" on="1"/>
        <pt x="718" y="268" on="1"/>
        <pt x="718" y="227" on="0"/>
        <pt x="725" y="210" on="0"/>
        <pt x="734" y="186" on="0"/>
        <pt x="747" y="178" on="0"/>
        <pt x="757" y="171" on="1"/>
        <pt x="773" y="160" on="0"/>
        <pt x="813" y="153" on="1"/>
        <pt x="852" y="146" on="1"/>
        <pt x="833" y="18" on="1"/>
        <pt x="770" y="-21" on="0"/>
        <pt x="597" y="-21" on="0"/>
        <pt x="562" y="14" on="1"/>
        <pt x="527" y="50" on="0"/>
        <pt x="511" y="125" on="1"/>
        <pt x="499" y="128" on="1"/>
        <pt x="475" y="72" on="0"/>
        <pt x="326" y="-24" on="0"/>
        <pt x="139" y="-24" on="0"/>
        <pt x="24" y="81" on="0"/>
      </contour>
      <contour>
        <pt x="150" y="1053" on="1"/>
        <pt x="143" y="1097" on="0"/>
        <pt x="190" y="1195" on="0"/>
        <pt x="213" y="1221" on="1"/>
        <pt x="266" y="1281" on="0"/>
        <pt x="353" y="1261" on="1"/>
        <pt x="559" y="1212" on="1"/>
        <pt x="590" y="1204" on="0"/>
        <pt x="614" y="1244" on="1"/>
        <pt x="622" y="1258" on="1"/>
        <pt x="704" y="1252" on="1"/>
        <pt x="704" y="1182" on="0"/>
        <pt x="648" y="1106" on="1"/>
        <pt x="621" y="1071" on="0"/>
        <pt x="531" y="1037" on="0"/>
        <pt x="478" y="1050" on="1"/>
        <pt x="291" y="1096" on="1"/>
        <pt x="272" y="1100" on="0"/>
        <pt x="243" y="1072" on="0"/>
        <pt x="232" y="1040" on="1"/>
      </contour>
    </TTGlyph>
    <TTGlyph name="b" xMin="-8" yMin="-23" xMax="991" yMax="1268">
      <contour>
        <pt x="380" y="207" on="1"/>
        <pt x="446" y="144" on="0"/>
        <pt x="625" y="144" on="0"/>
        <pt x="727" y="295" on="0"/>
        <pt x="727" y="428" on="1"/>
        <pt x="727" y="530" on="0"/>
        <pt x="674" y="655" on="0"/>
        <pt x="607" y="706" on="0"/>
        <pt x="561" y="706" on="1"/>
        <pt x="466" y="706" on="0"/>
        <pt x="380" y="625" on="1"/>
      </contour>
      <contour>
        <pt x="-8" y="1124" on="1"/>
        <pt x="13" y="1244" on="1"/>
        <pt x="340" y="1268" on="1"/>
        <pt x="380" y="1229" on="1"/>
        <pt x="380" y="864" on="1"/>
        <pt x="366" y="760" on="1"/>
        <pt x="378" y="758" on="1"/>
        <pt x="445" y="834" on="0"/>
        <pt x="575" y="914" on="0"/>
        <pt x="653" y="914" on="1"/>
        <pt x="806" y="914" on="0"/>
        <pt x="991" y="676" on="0"/>
        <pt x="991" y="484" on="1"/>
        <pt x="991" y="368" on="0"/>
        <pt x="904" y="174" on="0"/>
        <pt x="831" y="110" on="1"/>
        <pt x="678" y="-23" on="0"/>
        <pt x="466" y="-23" on="1"/>
        <pt x="389" y="-23" on="0"/>
        <pt x="201" y="14" on="0"/>
        <pt x="140" y="50" on="1"/>
        <pt x="140" y="1047" on="1"/>
      </contour>
    </TTGlyph>
    <TTGlyph name="backslash" xMin="18" yMin="-393" xMax="664" yMax="1304">
      <contour>
        <pt x="18" y="1304" on="1"/>
        <pt x="203" y="1291" on="1"/>
        <pt x="664" y="-393" on="1"/>
        <pt x="486" y="-382" on="1"/>
      </contour>
    </TTGlyph>
    <TTGlyph name="bar" xMin="54" yMin="-380" xMax="210" yMax="1260">
      <contour>
        <pt x="54" y="-364" on="1"/>
        <pt x="54" y="1260" on="1"/>
        <pt x="210" y="1248" on="1"/>
        <pt x="210" y="-380" on="1"/>
      </contour>
    </TTGlyph>
    <TTGlyph name="braceleft" xMin="11" yMin="-378" xMax="613" yMax="1255">
      <contour>
        <pt x="613" y="-378" on="1"/>
        <pt x="438" y="-378" on="1"/>
        <pt x="354" y="-378" on="0"/>
        <pt x="250" y="-303" on="0"/>
        <pt x="212" y="-180" on="0"/>
        <pt x="199" y="-31" on="0"/>
        <pt x="197" y="122" on="0"/>
        <pt x="190" y="188" on="1"/>
        <pt x="174" y="336" on="0"/>
        <pt x="68" y="357" on="1"/>
        <pt x="11" y="368" on="1"/>
        <pt x="11" y="516" on="1"/>
        <pt x="64" y="527" on="1"/>
        <pt x="173" y="548" on="0"/>
        <pt x="191" y="695" on="1"/>
        <pt x="199" y="760" on="0"/>
        <pt x="202" y="912" on="0"/>
        <pt x="214" y="1059" on="0"/>
        <pt x="251" y="1180" on="0"/>
        <pt x="353" y="1255" on="0"/>
        <pt x="436" y="1255" on="1"/>
        <pt x="606" y="1255" on="1"/>
        <pt x="600" y="1104" on="1"/>
        <pt x="492" y="1099" on="1"/>
        <pt x="425" y="1096" on="0"/>
        <pt x="428" y="883" on="1"/>
        <pt x="430" y="794" on="0"/>
        <pt x="423" y="611" on="0"/>
        <pt x="352" y="468" on="0"/>
        <pt x="278" y="452" on="1"/>
        <pt x="278" y="442" on="1"/>
        <pt x="384" y="395" on="0"/>
        <pt x="410" y="260" on="1"/>
        <pt x="430" y="160" on="0"/>
        <pt x="428" y="-55" on="0"/>
        <pt x="432" y="-106" on="1"/>
        <pt x="441" y="-216" on="0"/>
        <pt x="504" y="-220" on="1"/>
        <pt x="602" y="-225" on="1"/>
      </contour>
    </TTGlyph>
    <TTGlyph name="braceright" xMin="11" yMin="-378" xMax="613" yMax="1255">
      <contour>
        <pt x="11" y="-378" on="1"/>
        <pt x="22" y="-225" on="1"/>
        <pt x="120" y="-220" on="1"/>
        <pt x="183" y="-216" on="0"/>
        <pt x="192" y="-106" on="1"/>
        <pt x="196" y="-55" on="0"/>
        <pt x="195" y="68" on="0"/>
        <pt x="202" y="200" on="0"/>
        <pt x="214" y="260" on="1"/>
        <pt x="240" y="395" on="0"/>
        <pt x="346" y="442" on="1"/>
        <pt x="346" y="452" on="1"/>
        <pt x="272" y="468" on="0"/>
        <pt x="201" y="611" on="0"/>
        <pt x="194" y="794" on="0"/>
        <pt x="196" y="883" on="1"/>
        <pt x="199" y="1096" on="0"/>
        <pt x="132" y="1099" on="1"/>
        <pt x="24" y="1104" on="1"/>
        <pt x="18" y="1255" on="1"/>
        <pt x="188" y="1255" on="1"/>
        <pt x="271" y="1255" on="0"/>
        <pt x="373" y="1180" on="0"/>
        <pt x="410" y="1059" on="0"/>
        <pt x="422" y="912" on="0"/>
        <pt x="425" y="760" on="0"/>
        <pt x="433" y="695" on="1"/>
        <pt x="451" y="548" on="0"/>
        <pt x="560" y="527" on="1"/>
        <pt x="613" y="516" on="1"/>
        <pt x="613" y="368" on="1"/>
        <pt x="556" y="357" on="1"/>
        <pt x="450" y="336" on="0"/>
        <pt x="434" y="188" on="1"/>
        <pt x="427" y="122" on="0"/>
        <pt x="425" y="-31" on="0"/>
        <pt x="412" y="-180" on="0"/>
        <pt x="374" y="-303" on="0"/>
        <pt x="270" y="-378" on="0"/>
        <pt x="186" y="-378" on="1"/>
      </contour>
    </TTGlyph>
    <TTGlyph name="bracketleft" xMin="0" yMin="-377" xMax="422" yMax="1255">
      <contour>
        <pt x="422" y="-246" on="1"/>
        <pt x="403" y="-376" on="1"/>
        <pt x="0" y="-377" on="1"/>
        <pt x="2" y="1255" on="1"/>
        <pt x="397" y="1255" on="1"/>
        <pt x="418" y="1130" on="1"/>
        <pt x="190" y="1110" on="1"/>
        <pt x="190" y="-226" on="1"/>
      </contour>
    </TTGlyph>
    <TTGlyph name="bracketright" xMin="0" yMin="-377" xMax="422" yMax="1255">
      <contour>
        <pt x="0" y="-246" on="1"/>
        <pt x="232" y="-226" on="1"/>
        <pt x="232" y="1110" on="1"/>
        <pt x="4" y="1130" on="1"/>
        <pt x="25" y="1255" on="1"/>
        <pt x="420" y="1255" on="1"/>
        <pt x="422" y="-377" on="1"/>
        <pt x="19" y="-376" on="1"/>
      </contour>
    </TTGlyph>
    <TTGlyph name="breve" xMin="45" yMin="1372" xMax="454" yMax="1612">
      <contour>
        <pt x="45" y="1565" on="1"/>
        <pt x="118" y="1612" on="1"/>
        <pt x="140" y="1575" on="0"/>
        <pt x="198" y="1536" on="0"/>
        <pt x="249" y="1536" on="1"/>
        <pt x="347" y="1536" on="0"/>
        <pt x="392" y="1612" on="1"/>
        <pt x="454" y="1565" on="1"/>
        <pt x="427" y="1486" on="0"/>
        <pt x="324" y="1372" on="0"/>
        <pt x="203" y="1372" on="0"/>
        <pt x="130" y="1407" on="0"/>
        <pt x="106" y="1437" on="1"/>
        <pt x="63" y="1492" on="0"/>
      </contour>
    </TTGlyph>
    <TTGlyph name="brokenbar" xMin="54" yMin="-380" xMax="224" yMax="1267">
      <contour>
        <pt x="54" y="534" on="1"/>
        <pt x="54" y="1267" on="1"/>
        <pt x="222" y="1248" on="1"/>
        <pt x="222" y="517" on="1"/>
      </contour>
      <contour>
        <pt x="54" y="-358" on="1"/>
        <pt x="54" y="419" on="1"/>
        <pt x="224" y="399" on="1"/>
        <pt x="224" y="-380" on="1"/>
      </contour>
    </TTGlyph>
    <TTGlyph name="bullet" xMin="-14" yMin="522" xMax="420" yMax="873">
      <contour>
        <pt x="90" y="522" on="0"/>
        <pt x="-14" y="625" on="0"/>
        <pt x="-14" y="770" on="0"/>
        <pt x="95" y="873" on="0"/>
        <pt x="308" y="873" on="0"/>
        <pt x="420" y="771" on="0"/>
        <pt x="420" y="622" on="0"/>
        <pt x="308" y="522" on="0"/>
      </contour>
    </TTGlyph>
    <TTGlyph name="c" xMin="25" yMin="-30" xMax="806" yMax="934">
      <contour>
        <pt x="25" y="420" on="1"/>
        <pt x="25" y="537" on="0"/>
        <pt x="111" y="736" on="0"/>
        <pt x="180" y="800" on="1"/>
        <pt x="328" y="934" on="0"/>
        <pt x="506" y="934" on="1"/>
        <pt x="629" y="934" on="0"/>
        <pt x="770" y="821" on="0"/>
        <pt x="770" y="747" on="1"/>
        <pt x="770" y="611" on="0"/>
        <pt x="605" y="596" on="1"/>
        <pt x="570" y="696" on="0"/>
        <pt x="496" y="791" on="0"/>
        <pt x="444" y="791" on="1"/>
        <pt x="366" y="791" on="0"/>
        <pt x="282" y="649" on="0"/>
        <pt x="282" y="511" on="1"/>
        <pt x="282" y="381" on="0"/>
        <pt x="348" y="268" on="1"/>
        <pt x="379" y="213" on="0"/>
        <pt x="485" y="145" on="0"/>
        <pt x="554" y="145" on="1"/>
        <pt x="666" y="145" on="0"/>
        <pt x="774" y="211" on="1"/>
        <pt x="806" y="130" on="1"/>
        <pt x="766" y="63" on="0"/>
        <pt x="573" y="-30" on="0"/>
        <pt x="464" y="-30" on="1"/>
        <pt x="250" y="-30" on="0"/>
        <pt x="25" y="219" on="0"/>
      </contour>
    </TTGlyph>
    <TTGlyph name="cacute" xMin="25" yMin="-30" xMax="806" yMax="1396">
      <contour>
        <pt x="25" y="420" on="1"/>
        <pt x="25" y="537" on="0"/>
        <pt x="111" y="736" on="0"/>
        <pt x="180" y="800" on="1"/>
        <pt x="328" y="934" on="0"/>
        <pt x="506" y="934" on="1"/>
        <pt x="629" y="934" on="0"/>
        <pt x="770" y="821" on="0"/>
        <pt x="770" y="747" on="1"/>
        <pt x="770" y="611" on="0"/>
        <pt x="605" y="596" on="1"/>
        <pt x="570" y="696" on="0"/>
        <pt x="496" y="791" on="0"/>
        <pt x="444" y="791" on="1"/>
        <pt x="366" y="791" on="0"/>
        <pt x="282" y="649" on="0"/>
        <pt x="282" y="511" on="1"/>
        <pt x="282" y="381" on="0"/>
        <pt x="348" y="268" on="1"/>
        <pt x="379" y="213" on="0"/>
        <pt x="485" y="145" on="0"/>
        <pt x="554" y="145" on="1"/>
        <pt x="666" y="145" on="0"/>
        <pt x="774" y="211" on="1"/>
        <pt x="806" y="130" on="1"/>
        <pt x="766" y="63" on="0"/>
        <pt x="573" y="-30" on="0"/>
        <pt x="464" y="-30" on="1"/>
        <pt x="250" y="-30" on="0"/>
        <pt x="25" y="219" on="0"/>
      </contour>
      <contour>
        <pt x="414" y="1082" on="1"/>
        <pt x="528" y="1396" on="1"/>
        <pt x="750" y="1368" on="1"/>
        <pt x="568" y="1055" on="1"/>
      </contour>
    </TTGlyph>
    <TTGlyph name="caron" xMin="6" yMin="1288" xMax="537" yMax="1543">
      <contour>
        <pt x="6" y="1508" on="1"/>
        <pt x="211" y="1543" on="1"/>
        <pt x="300" y="1458" on="1"/>
        <pt x="310" y="1458" on="1"/>
        <pt x="394" y="1539" on="1"/>
        <pt x="537" y="1525" on="1"/>
        <pt x="347" y="1309" on="1"/>
        <pt x="200" y="1288" on="1"/>
      </contour>
    </TTGlyph>
    <TTGlyph name="ccaron" xMin="25" yMin="-30" xMax="806" yMax="1241">
      <contour>
        <pt x="25" y="420" on="1"/>
        <pt x="25" y="537" on="0"/>
        <pt x="111" y="736" on="0"/>
        <pt x="180" y="800" on="1"/>
        <pt x="328" y="934" on="0"/>
        <pt x="506" y="934" on="1"/>
        <pt x="629" y="934" on="0"/>
        <pt x="770" y="821" on="0"/>
        <pt x="770" y="747" on="1"/>
        <pt x="770" y="611" on="0"/>
        <pt x="605" y="596" on="1"/>
        <pt x="570" y="696" on="0"/>
        <pt x="496" y="791" on="0"/>
        <pt x="444" y="791" on="1"/>
        <pt x="366" y="791" on="0"/>
        <pt x="282" y="649" on="0"/>
        <pt x="282" y="511" on="1"/>
        <pt x="282" y="381" on="0"/>
        <pt x="348" y="268" on="1"/>
        <pt x="379" y="213" on="0"/>
        <pt x="485" y="145" on="0"/>
        <pt x="554" y="145" on="1"/>
        <pt x="666" y="145" on="0"/>
        <pt x="774" y="211" on="1"/>
        <pt x="806" y="130" on="1"/>
        <pt x="766" y="63" on="0"/>
        <pt x="573" y="-30" on="0"/>
        <pt x="464" y="-30" on="1"/>
        <pt x="250" y="-30" on="0"/>
        <pt x="25" y="219" on="0"/>
      </contour>
      <contour>
        <pt x="240" y="1206" on="1"/>
        <pt x="445" y="1241" on="1"/>
        <pt x="534" y="1156" on="1"/>
        <pt x="544" y="1156" on="1"/>
        <pt x="628" y="1237" on="1"/>
        <pt x="771" y="1223" on="1"/>
        <pt x="581" y="1007" on="1"/>
        <pt x="434" y="986" on="1"/>
      </contour>
    </TTGlyph>
</ttFont>
